<?xml version="1.0" standalone="no"?><!DOCTYPE svg PUBLIC "-//W3C//DTD SVG 1.1//EN" "http://www.w3.org/Graphics/SVG/1.1/DTD/svg11.dtd" ><svg xmlns="http://www.w3.org/2000/svg"><metadata></metadata><defs><font id="Founder: FZLanTingHei-L-GBK: Regular" horiz-adv-x="284"><font-face font-family="FZLanTingHei-L-GBK" font-weight="400" font-stretch="normal" units-per-em="256" panose-1="2 0 0 0 0 0 0 0 0 0" ascent="229" descent="-64" x-height="0" bbox="-14 -61 264 215" underline-thickness="12" underline-position="-52" unicode-range="U+0021-ffe5" /><missing-glyph horiz-adv-x="256"  /><glyph glyph-name="" unicode="!" d="M42 47 L30 47 L25 189 L48 189 L42 47 ZM26 -6 L26 15 L46 15 L46 -6 L26 -6 Z" /><glyph glyph-name="" unicode="&quot;" d="M30 124 L18 124 L13 190 L35 190 L30 124 ZM76 124 L64 124 L58 190 L81 190 L76 124 Z" /><glyph glyph-name="" unicode="#" d="M89 64 L99 113 L59 113 L49 64 L89 64 ZM144 113 L113 113 L103 64 L134 64 L132 52 L100 52 L88 -6 L75 -6 L87 52 L47 52 L35 -6 L22 -6 L34 52 L2 52 L5 64 L36 64 L46 113 L15 113 L18 125 L48 125 L60 183 L73 183 L62 125 L102 125 L113 183 L126 183 L115 125 L147 125 L144 113 Z" /><glyph glyph-name="" unicode="$" d="M85 86 L85 6 Q127 9 129 46 Q132 74 85 86 ZM71 105 L71 177 Q34 172 32 141 Q31 116 71 105 ZM85 -8 L85 -32 L71 -32 L71 -7 Q20 -4 10 48 L25 54 Q31 11 71 6 L71 89 Q13 104 17 141 Q20 187 71 192 L71 213 L85 213 L85 191 Q132 187 139 142 L123 136 Q115 171 85 177 L85 103 Q148 87 145 45 Q141 -3 85 -8 Z" /><glyph glyph-name="" unicode="%" d="M169 193 L183 193 L75 -12 L61 -12 L169 193 ZM57 104 Q83 106 84 143 Q83 180 57 182 Q30 180 29 142 Q30 106 57 104 ZM57 194 Q95 193 96 142 Q95 94 56 93 Q18 95 16 142 Q18 192 57 194 ZM186 -2 Q214 -1 215 37 Q214 74 188 76 Q161 76 160 36 Q161 1 186 -2 ZM188 87 Q226 85 227 36 Q226 -11 186 -12 Q149 -10 147 36 Q148 85 188 87 Z" /><glyph glyph-name="" unicode="&amp;" d="M71 3 Q108 3 132 32 Q101 60 70 93 Q29 72 28 44 Q30 5 71 3 ZM53 148 Q51 134 74 107 Q112 125 110 150 Q109 179 82 181 Q54 179 53 148 ZM191 3 L179 -9 Q169 -1 142 22 Q113 -9 70 -9 Q15 -7 12 40 Q11 78 62 102 Q38 129 38 150 Q42 189 82 192 Q124 190 127 151 Q128 118 82 99 Q98 80 139 44 Q151 68 153 96 L170 93 Q165 58 150 35 Q168 19 191 3 Z" /><glyph glyph-name="" unicode="&#39;" d="M30 124 L18 124 L12 191 L35 191 L30 124 Z" /><glyph glyph-name="" unicode="(" d="M18 76 Q19 146 65 207 L77 207 Q34 148 34 77 Q33 6 76 -50 L65 -50 Q20 5 18 76 Z" /><glyph glyph-name="" unicode=")" d="M53 77 Q53 148 10 208 L22 208 Q68 147 69 77 Q67 6 22 -49 L10 -49 Q54 7 53 77 Z" /><glyph glyph-name="" unicode="*" d="M57 147 L88 115 L74 105 L53 143 L32 105 L18 116 L48 147 L7 152 L12 170 L49 152 L44 194 L62 194 L56 151 L93 169 L98 152 L57 147 Z" /><glyph glyph-name="" unicode="+" d="M148 98 L148 84 L89 84 L89 25 L74 25 L74 84 L15 84 L15 98 L74 98 L74 157 L89 157 L89 98 L148 98 Z" /><glyph glyph-name="" unicode="," d="M28 -52 L23 -47 Q39 -34 40 -4 L24 -4 L24 20 L50 20 L50 -3 Q50 -37 28 -52 Z" /><glyph glyph-name="" unicode="-" d="M15 83 L15 98 L149 98 L149 83 L15 83 Z" /><glyph glyph-name="" unicode="." d="M50 -4 L24 -4 L24 20 L50 20 L50 -4 Z" /><glyph glyph-name="" unicode="/" d="M57 192 L70 192 L14 -9 L0 -9 L57 192 Z" /><glyph glyph-name="" unicode="0" d="M74 179 Q31 175 30 90 Q30 2 76 3 Q121 2 121 90 Q121 180 74 179 ZM77 -9 Q12 -8 12 90 Q13 189 76 192 Q138 190 139 90 Q138 -8 77 -9 Z" /><glyph glyph-name="" unicode="1" d="M84 156 Q58 132 31 122 L31 139 Q77 160 89 192 L100 192 L100 -6 L84 -6 L84 156 Z" /><glyph glyph-name="" unicode="2" d="M9 -4 L9 8 Q28 44 71 76 Q117 110 116 138 Q115 177 73 178 Q40 175 29 140 L14 147 Q29 193 76 192 Q130 190 134 141 Q137 103 85 68 Q44 38 29 11 L135 11 L135 -4 L9 -4 Z" /><glyph glyph-name="" unicode="3" d="M138 46 Q135 -7 74 -9 Q20 -9 9 39 L27 44 Q33 4 72 4 Q120 4 120 48 Q116 86 71 89 Q57 89 56 89 L56 102 Q57 102 63 102 Q108 103 111 142 Q108 176 74 178 Q38 177 31 140 L14 146 Q25 191 73 192 Q128 190 130 142 Q129 111 90 97 Q136 83 138 46 Z" /><glyph glyph-name="" unicode="4" d="M23 56 L96 56 L96 163 L23 56 ZM139 43 L111 43 L111 -6 L96 -6 L96 43 L4 43 L4 51 L99 192 L111 192 L111 56 L139 56 L139 43 Z" /><glyph glyph-name="" unicode="5" d="M79 122 Q135 119 139 58 Q137 -8 76 -9 Q21 -9 11 40 L28 45 Q34 4 74 3 Q120 5 122 56 Q120 104 75 107 Q47 106 30 85 L19 87 L30 188 L129 188 L129 173 L43 173 L36 103 Q52 122 79 122 Z" /><glyph glyph-name="" unicode="6" d="M28 67 Q29 4 79 2 Q119 4 121 54 Q120 105 79 106 Q39 106 28 67 ZM134 151 L119 145 Q112 180 79 179 Q27 178 27 84 Q40 119 82 119 Q135 116 139 56 Q135 -5 78 -9 Q10 -9 10 85 Q11 192 81 192 Q123 190 134 151 Z" /><glyph glyph-name="" unicode="7" d="M60 -6 L42 -6 Q56 81 118 173 L13 173 L13 188 L138 188 L138 177 Q73 87 60 -6 Z" /><glyph glyph-name="" unicode="8" d="M76 90 Q33 87 29 43 Q33 5 77 2 Q120 5 124 41 Q121 87 76 90 ZM77 179 Q41 176 38 142 Q39 103 77 101 Q112 102 114 140 Q111 175 77 179 ZM55 95 Q21 111 19 140 Q23 189 77 192 Q128 188 133 140 Q131 110 99 95 Q140 79 142 41 Q139 -8 77 -9 Q13 -8 11 43 Q14 80 55 95 Z" /><glyph glyph-name="" unicode="9" d="M122 113 Q122 179 71 178 Q31 174 28 126 Q30 78 71 75 Q110 78 122 113 ZM17 29 L33 35 Q40 0 72 2 Q121 4 122 98 Q108 63 70 61 Q16 65 11 124 Q15 187 74 192 Q141 193 140 95 Q140 -8 70 -9 Q27 -8 17 29 Z" /><glyph glyph-name="" unicode=":" d="M24 108 L24 134 L50 134 L50 108 L24 108 ZM24 -3 L24 23 L50 23 L50 -3 L24 -3 Z" /><glyph glyph-name="" unicode=";" d="M24 108 L24 134 L50 134 L50 108 L24 108 ZM28 -52 L23 -47 Q39 -34 40 -4 L24 -4 L24 20 L50 20 L50 -3 Q50 -37 28 -52 Z" /><glyph glyph-name="" unicode="&lt;" d="M147 23 L147 4 L16 81 L16 99 L147 176 L147 158 L26 90 L147 23 Z" /><glyph glyph-name="" unicode="=" d="M15 53 L15 67 L143 67 L143 53 L15 53 ZM15 114 L15 128 L143 128 L143 114 L15 114 Z" /><glyph glyph-name="" unicode="&gt;" d="M15 176 L147 99 L147 81 L15 4 L15 23 L136 90 L15 158 L15 176 Z" /><glyph glyph-name="" unicode="?" d="M61 -5 L61 15 L82 15 L82 -5 L61 -5 ZM80 45 L64 45 Q64 47 64 52 Q63 79 89 97 Q121 119 118 144 Q113 175 79 179 Q36 181 28 138 L12 144 Q24 194 81 193 Q132 190 136 143 Q138 113 101 88 Q79 73 80 51 Q80 45 80 45 Z" /><glyph glyph-name="" unicode="@" d="M145 121 Q99 116 93 56 Q90 12 124 15 Q167 21 174 85 Q174 118 145 121 ZM181 132 L197 132 Q189 90 184 48 Q179 10 205 14 Q245 18 248 81 Q241 172 143 179 Q41 171 32 65 Q35 -40 143 -43 Q204 -43 240 -15 L247 -24 Q203 -57 141 -56 Q20 -52 15 64 Q24 185 144 192 Q258 188 264 83 Q260 7 199 3 Q168 3 172 50 Q160 4 118 3 Q74 4 75 58 Q83 129 144 134 Q167 133 174 114 Q179 114 179 122 Q180 129 181 132 Z" /><glyph glyph-name="" unicode="a" d="M49 69 L131 69 L90 178 L49 69 ZM162 -6 L137 55 L43 55 L19 -6 L0 -6 L79 189 L100 189 L181 -6 L162 -6 Z" /><glyph glyph-name="" unicode="b" d="M95 87 L37 87 L37 7 L99 7 Q148 7 148 48 Q145 84 95 87 ZM92 174 L37 174 L37 102 L92 102 Q135 104 139 140 Q137 173 92 174 ZM114 96 Q163 87 166 45 Q163 -5 102 -6 L21 -6 L21 189 L97 189 Q154 186 158 141 Q155 106 114 96 Z" /><glyph glyph-name="" unicode="c" d="M165 57 L186 52 Q169 -8 103 -9 Q19 -5 14 87 Q18 187 105 192 Q160 190 182 138 L162 133 Q144 176 102 177 Q39 170 33 89 Q37 10 101 4 Q153 6 165 57 Z" /><glyph glyph-name="" unicode="d" d="M89 174 L39 174 L39 6 L88 6 Q166 7 165 90 Q162 170 89 174 ZM88 -6 L22 -6 L22 189 L90 189 Q180 186 183 91 Q185 -8 88 -6 Z" /><glyph glyph-name="" unicode="e" d="M39 9 L167 9 L167 -6 L22 -6 L22 189 L161 189 L161 173 L39 173 L39 102 L154 102 L154 87 L39 87 L39 9 Z" /><glyph glyph-name="" unicode="f" d="M153 174 L40 174 L40 102 L138 102 L139 87 L40 87 L40 -6 L23 -6 L23 189 L153 189 L153 174 Z" /><glyph glyph-name="" unicode="g" d="M114 92 L195 92 L195 22 Q171 -9 112 -9 Q20 -5 15 88 Q19 188 108 192 Q173 191 193 137 L173 132 Q157 176 106 177 Q40 170 34 89 Q39 10 110 4 Q157 4 178 29 L178 77 L114 77 L114 92 Z" /><glyph glyph-name="" unicode="h" d="M157 189 L174 189 L174 -6 L157 -6 L157 87 L40 87 L40 -6 L22 -6 L22 189 L40 189 L40 102 L157 102 L157 189 Z" /><glyph glyph-name="" unicode="i" d="M26 189 L43 189 L43 -6 L26 -6 L26 189 Z" /><glyph glyph-name="" unicode="j" d="M59 -9 Q11 -10 8 43 L25 46 Q25 2 60 5 Q96 3 96 50 L96 189 L114 189 L114 51 Q116 -11 59 -9 Z" /><glyph glyph-name="" unicode="k" d="M154 -6 L81 98 L38 55 L38 -6 L20 -6 L20 189 L38 189 L38 76 L149 189 L173 189 L91 108 L179 -6 L154 -6 Z" /><glyph glyph-name="" unicode="l" d="M20 -6 L20 189 L37 189 L37 10 L141 10 L141 -6 L20 -6 Z" /><glyph glyph-name="" unicode="m" d="M114 18 L183 189 L209 189 L209 -6 L192 -6 L192 174 L119 -6 L109 -6 L37 174 L37 -6 L21 -6 L21 189 L47 189 L114 18 Z" /><glyph glyph-name="" unicode="n" d="M153 -6 L37 174 L37 -6 L21 -6 L21 189 L43 189 L158 12 L158 189 L174 189 L174 -6 L153 -6 Z" /><glyph glyph-name="" unicode="o" d="M108 177 Q39 170 32 89 Q36 10 106 4 Q178 8 182 89 Q176 170 108 177 ZM107 -9 Q18 -5 14 87 Q18 187 110 192 Q196 186 202 89 Q198 -6 107 -9 Z" /><glyph glyph-name="" unicode="p" d="M100 174 L39 174 L39 90 L100 90 Q150 91 151 133 Q149 173 100 174 ZM104 75 L39 75 L39 -6 L22 -6 L22 189 L106 189 Q164 186 170 132 Q169 76 104 75 Z" /><glyph glyph-name="" unicode="q" d="M104 5 Q175 9 179 90 Q173 171 106 177 Q36 170 30 90 Q35 12 104 5 ZM129 -5 L177 -52 L153 -57 L111 -7 Q108 -7 105 -7 Q16 -3 12 88 Q16 188 108 192 Q193 186 200 90 Q198 13 129 -5 Z" /><glyph glyph-name="" unicode="r" d="M40 174 L40 99 L108 99 Q159 100 159 138 Q158 173 108 174 L40 174 ZM190 -6 L166 -6 L97 84 L40 84 L40 -6 L22 -6 L22 189 L113 189 Q174 186 178 137 Q178 87 116 83 L190 -6 Z" /><glyph glyph-name="" unicode="s" d="M89 178 Q40 177 38 141 Q37 114 91 103 Q171 88 167 43 Q162 -7 95 -9 Q23 -11 12 46 L30 53 Q37 1 94 4 Q146 5 148 44 Q153 74 90 87 Q16 101 20 141 Q24 190 87 193 Q150 193 161 142 L142 136 Q131 178 89 178 Z" /><glyph glyph-name="" unicode="t" d="M161 189 L161 173 L93 173 L93 -6 L75 -6 L75 173 L7 173 L7 189 L161 189 Z" /><glyph glyph-name="" unicode="u" d="M175 189 L175 74 Q176 -10 98 -9 Q21 -10 22 74 L22 189 L40 189 L40 75 Q39 1 98 4 Q160 1 158 75 L158 189 L175 189 Z" /><glyph glyph-name="" unicode="v" d="M93 7 L162 189 L182 189 L103 -6 L82 -6 L4 189 L23 189 L93 7 Z" /><glyph glyph-name="" unicode="w" d="M191 14 L237 189 L255 189 L200 -6 L182 -6 L130 170 L76 -6 L58 -6 L4 189 L22 189 L68 14 L121 189 L140 189 L191 14 Z" /><glyph glyph-name="" unicode="x" d="M100 93 L176 -6 L153 -6 L78 93 L100 93 ZM78 93 L11 189 L31 189 L100 93 L23 -6 L1 -6 L78 93 L148 189 L169 189 L100 93 L78 93 Z" /><glyph glyph-name="" unicode="y" d="M176 189 L96 73 L96 -7 L78 -7 L78 73 L1 189 L20 189 L88 88 L154 189 L176 189 Z" /><glyph glyph-name="" unicode="z" d="M28 10 L159 10 L159 -6 L5 -6 L5 4 L133 173 L17 173 L17 189 L155 189 L155 177 L28 10 Z" /><glyph glyph-name="" unicode="[" d="M19 -45 L19 206 L68 206 L68 194 L33 194 L33 -31 L68 -31 L68 -45 L19 -45 Z" /><glyph glyph-name="" unicode="\" d="M0 192 L13 192 L69 -9 L57 -9 L0 192 Z" /><glyph glyph-name="" unicode="]" d="M39 -31 L39 194 L4 194 L4 206 L53 206 L53 -45 L3 -45 L3 -31 L39 -31 Z" /><glyph glyph-name="" unicode="^" d="M101 89 L65 176 L61 176 L25 89 L7 89 L55 194 L70 194 L117 89 L101 89 Z" /><glyph glyph-name="" unicode="_" d="M161 -38 L161 -49 L0 -49 L0 -38 L161 -38 Z" /><glyph glyph-name="" unicode="a" d="M115 48 L115 74 Q107 65 69 59 Q27 53 28 28 Q29 4 64 4 Q111 7 115 48 ZM32 95 L16 100 Q26 140 78 139 Q134 140 132 85 L132 26 Q131 1 137 -5 L123 -5 Q117 1 117 20 Q95 -9 58 -9 Q14 -8 11 26 Q12 66 62 71 Q105 75 115 83 Q118 127 77 125 Q36 127 32 95 Z" /><glyph glyph-name="" unicode="b" d="M35 78 L35 55 Q43 5 79 2 Q122 3 123 62 Q122 124 75 125 Q39 118 35 78 ZM35 -5 L18 -5 L18 189 L35 189 L35 107 Q51 137 80 138 Q136 135 139 62 Q138 -7 85 -8 Q49 -11 35 25 L35 -5 Z" /><glyph glyph-name="" unicode="c" d="M75 125 Q29 125 29 63 Q29 3 75 3 Q112 3 115 40 L132 36 Q124 -11 74 -9 Q12 -8 11 63 Q13 135 73 138 Q119 137 130 99 L113 93 Q104 122 75 125 Z" /><glyph glyph-name="" unicode="d" d="M114 55 L114 78 Q109 118 74 125 Q27 124 26 62 Q27 4 71 2 Q107 5 114 55 ZM131 -5 L114 -5 L114 25 Q100 -9 65 -8 Q12 -6 10 62 Q13 135 70 138 Q97 136 114 107 L114 189 L131 189 L131 -5 Z" /><glyph glyph-name="" unicode="e" d="M29 73 L122 73 Q120 121 77 124 Q32 119 29 73 ZM121 34 L138 29 Q128 -10 78 -9 Q13 -7 11 62 Q14 135 77 138 Q138 136 140 62 Q140 58 140 60 L29 60 Q31 6 76 3 Q112 3 121 34 Z" /><glyph glyph-name="" unicode="f" d="M40 156 L39 135 L69 135 L69 122 L39 122 L39 -5 L23 -5 L23 122 L0 122 L0 135 L23 135 L23 155 Q22 192 55 192 Q69 192 81 187 L77 176 Q71 179 61 179 Q39 180 40 156 Z" /><glyph glyph-name="" unicode="g" d="M116 59 L116 81 Q111 117 74 125 Q27 123 25 66 Q27 12 70 9 Q111 15 116 59 ZM133 135 L133 10 Q137 -59 67 -57 Q32 -56 16 -38 L22 -30 Q41 -43 65 -44 Q117 -45 116 4 L116 32 Q103 -3 65 -1 Q11 1 9 66 Q12 135 70 138 Q98 137 116 108 L116 135 L133 135 Z" /><glyph glyph-name="" unicode="h" d="M132 85 L132 -5 L115 -5 L115 82 Q115 126 79 126 Q43 119 35 81 L35 -6 L18 -6 L18 189 L35 189 L35 107 Q53 138 85 139 Q133 140 132 85 Z" /><glyph glyph-name="" unicode="i" d="M19 135 L35 135 L35 -6 L19 -6 L19 135 ZM19 186 L35 186 L35 167 L19 167 L19 186 Z" /><glyph glyph-name="" unicode="j" d="M19 186 L35 186 L35 167 L19 167 L19 186 ZM6 -57 Q1 -57 -14 -52 L-10 -44 Q-7 -46 1 -45 Q19 -45 19 -25 L19 135 L35 135 L35 -25 Q36 -57 6 -57 Z" /><glyph glyph-name="" unicode="k" d="M112 -5 L61 72 L35 46 L35 -6 L18 -6 L18 189 L35 189 L35 65 L103 135 L125 135 L71 81 L133 -5 L112 -5 Z" /><glyph glyph-name="" unicode="l" d="M18 189 L34 189 L34 -5 L18 -5 L18 189 Z" /><glyph glyph-name="" unicode="m" d="M210 87 L210 -5 L194 -5 L194 82 Q195 127 161 126 Q129 120 122 81 L122 -5 L106 -5 L106 82 Q107 127 74 126 Q41 120 34 83 L34 -5 L18 -5 L18 135 L34 135 L34 106 Q51 139 77 139 Q112 139 121 103 Q136 139 165 139 Q211 140 210 87 Z" /><glyph glyph-name="" unicode="n" d="M132 85 L132 -5 L116 -5 L116 82 Q115 124 79 126 Q43 120 34 81 L34 -5 L18 -5 L18 135 L34 135 L34 107 Q52 138 85 139 Q132 139 132 85 Z" /><glyph glyph-name="" unicode="o" d="M76 126 Q27 125 26 62 Q27 4 76 2 Q121 4 122 63 Q119 121 76 126 ZM74 -9 Q12 -6 9 61 Q11 136 77 138 Q137 134 140 64 Q139 -8 74 -9 Z" /><glyph glyph-name="" unicode="p" d="M34 78 L34 55 Q35 3 79 2 Q122 3 123 62 Q122 122 75 125 Q37 120 34 78 ZM34 -56 L18 -56 L18 135 L34 135 L34 107 Q53 138 79 138 Q136 135 139 62 Q138 -7 84 -8 Q49 -11 34 22 L34 -56 Z" /><glyph glyph-name="" unicode="q" d="M114 55 L114 78 Q109 120 73 125 Q26 122 25 62 Q27 5 69 2 Q109 6 114 55 ZM130 -56 L114 -56 L114 25 Q99 -9 64 -8 Q11 -5 9 62 Q12 135 69 138 Q95 136 114 107 L114 135 L130 135 L130 -56 Z" /><glyph glyph-name="" unicode="r" d="M34 109 Q43 137 68 138 Q83 138 92 132 L85 117 Q78 122 69 122 Q53 122 43 108 Q34 95 34 70 L34 -6 L18 -6 L18 135 L34 135 L34 109 Z" /><glyph glyph-name="" unicode="s" d="M66 125 Q35 123 32 100 Q30 79 74 72 Q125 63 125 30 Q124 -8 68 -9 Q20 -10 9 29 L25 34 Q33 1 68 2 Q106 3 107 29 Q109 51 68 59 Q13 65 14 100 Q18 137 65 139 Q110 138 118 104 L101 99 Q95 125 66 125 Z" /><glyph glyph-name="" unicode="t" d="M66 3 L69 -6 Q62 -8 51 -8 Q22 -9 23 21 L23 122 L3 122 L3 135 L23 135 L23 175 L39 183 L39 135 L66 135 L66 122 L39 122 L39 21 Q38 -1 58 1 Q64 1 66 3 Z" /><glyph glyph-name="" unicode="u" d="M114 135 L130 135 L130 -5 L114 -5 L114 20 Q96 -9 63 -9 Q16 -10 17 42 L17 135 L33 135 L33 44 Q34 3 69 2 Q108 10 114 45 L114 135 Z" /><glyph glyph-name="" unicode="v" d="M66 6 L112 135 L130 135 L75 -5 L56 -5 L3 135 L22 135 L66 6 Z" /><glyph glyph-name="" unicode="w" d="M148 -5 L129 -5 L97 122 L65 -5 L45 -5 L1 135 L18 135 L54 7 L56 7 L88 135 L107 135 L138 7 L139 7 L177 135 L194 135 L148 -5 Z" /><glyph glyph-name="" unicode="x" d="M58 65 L2 -5 L22 -5 L75 64 L27 135 L8 135 L58 65 L58 65 ZM75 64 L125 135 L105 135 L58 65 L108 -5 L128 -5 L75 64 L75 64 Z" /><glyph glyph-name="" unicode="y" d="M67 13 L113 135 L131 135 Q79 4 70 -17 Q56 -61 28 -56 Q16 -55 9 -52 L13 -43 Q15 -44 23 -44 Q41 -46 51 -24 Q54 -17 59 -3 L4 135 L23 135 L67 13 Z" /><glyph glyph-name="" unicode="z" d="M5 -5 L5 4 L103 121 L12 121 L12 135 L126 135 L126 127 L28 9 L129 9 L129 -5 L5 -5 Z" /><glyph glyph-name="" unicode="{" d="M37 -13 L37 43 Q37 71 7 72 L7 83 Q37 84 37 112 L37 170 Q34 209 82 208 L82 197 Q48 198 50 169 L50 111 Q49 87 27 80 L27 75 Q50 67 50 44 L50 -10 Q48 -41 82 -40 L82 -50 Q34 -51 37 -13 Z" /><glyph glyph-name="" unicode="|" d="M26 209 L40 209 L40 -43 L26 -43 L26 209 Z" /><glyph glyph-name="" unicode="}" d="M39 -10 L39 44 Q40 67 61 75 L61 80 Q40 88 39 111 L39 169 Q40 198 7 197 L7 208 Q55 209 52 170 L52 112 Q52 84 81 83 L81 72 Q52 70 52 43 L52 -13 Q55 -51 7 -50 L7 -40 Q41 -41 39 -10 Z" /><glyph glyph-name="" unicode="~" d="M47 106 Q63 107 84 97 Q102 89 116 89 Q137 90 147 99 L147 84 Q135 74 115 74 Q94 74 80 81 Q63 91 46 91 Q26 91 11 78 L11 94 Q28 106 47 106 Z" /><glyph glyph-name="" unicode="·" d="M112 76 L112 104 L140 104 L140 76 L112 76 Z" /><glyph glyph-name="" unicode="&#x2014;" d="M0 96 L250 96 L250 80 L0 80 L0 96 Z" /><glyph glyph-name="" unicode="&#x2026;" d="M45 76 L45 104 L73 104 L73 76 L45 76 ZM111 76 L111 104 L139 104 L139 76 L111 76 ZM178 76 L178 104 L206 104 L206 76 L178 76 Z" /><glyph glyph-name="" unicode="&#x3001;" d="M37 36 L48 45 L97 -9 L85 -19 L37 36 Z" /><glyph glyph-name="" unicode="&#x3002;" d="M46 14 Q48 -5 70 -7 Q92 -5 94 14 Q92 36 70 39 Q48 36 46 14 ZM36 14 Q39 46 70 49 Q101 46 104 14 Q101 -16 70 -18 Q40 -16 36 14 Z" /><glyph glyph-name="" unicode="&#x4e00;" d="M10 108 L246 108 L246 91 L10 91 L10 108 Z" /><glyph glyph-name="" unicode="&#x4e07;" d="M14 190 L242 190 L242 176 L14 176 L14 190 ZM90 121 L206 121 L206 107 L90 107 L90 121 ZM197 121 L211 121 Q210 60 208 23 Q206 -17 169 -17 Q148 -17 123 -16 Q123 -15 119 -1 Q147 -3 167 -3 Q192 -3 193 24 Q195 59 197 121 ZM85 187 L101 187 Q101 140 101 113 Q99 62 84 34 Q65 0 19 -23 Q15 -16 9 -9 Q51 12 69 40 Q83 65 84 112 Q85 141 85 187 Z" /><glyph glyph-name="" unicode="&#x4e09;" d="M28 184 L227 184 L227 169 L28 169 L28 184 ZM39 101 L216 101 L216 86 L39 86 L39 101 ZM13 10 L243 10 L243 -6 L13 -6 L13 10 Z" /><glyph glyph-name="" unicode="&#x4e0a;" d="M121 132 L225 132 L225 117 L121 117 L121 132 ZM12 5 L244 5 L244 -9 L12 -9 L12 5 ZM108 205 L125 205 L125 1 L108 1 L108 205 Z" /><glyph glyph-name="" unicode="&#x4e0b;" d="M12 190 L243 190 L243 175 L12 175 L12 190 ZM109 187 L126 187 L126 -22 L109 -22 L109 187 ZM135 123 Q182 92 220 65 L206 55 Q166 86 123 114 L135 123 Z" /><glyph glyph-name="" unicode="&#x4e0d;" d="M15 189 L241 189 L241 174 L15 174 L15 189 ZM119 132 L135 132 L135 -24 L119 -24 L119 132 ZM160 115 Q212 82 247 58 L236 44 Q199 71 150 103 L160 115 ZM141 185 L155 178 Q107 93 20 34 Q17 37 9 45 Q96 107 141 185 Z" /><glyph glyph-name="" unicode="&#x4e0e;" d="M62 171 L245 171 L245 158 L62 158 L62 171 ZM10 57 L186 57 L186 44 L10 44 L10 57 ZM62 209 L78 209 L65 100 L49 100 L62 209 ZM59 114 L221 114 L221 100 L59 100 L59 114 ZM211 114 L227 114 Q224 57 221 22 Q217 -19 175 -19 Q149 -19 119 -18 Q118 -11 116 -2 Q149 -4 172 -4 Q202 -4 205 24 Q208 56 211 114 Z" /><glyph glyph-name="" unicode="&#x4e13;" d="M27 176 L230 176 L230 163 L27 163 L27 176 ZM12 125 L245 125 L245 112 L12 112 L12 125 ZM109 209 L126 209 L73 73 L73 64 L58 64 L58 77 L109 209 ZM67 77 L212 77 L212 64 L67 64 L67 77 ZM202 77 L217 77 L217 61 L144 -2 L131 6 L202 67 L202 77 ZM64 45 Q123 17 188 -14 L180 -27 Q118 4 57 33 L64 45 Z" /><glyph glyph-name="" unicode="&#x4e14;" d="M43 195 L58 195 L58 -5 L43 -5 L43 195 ZM52 195 L205 195 L205 182 L52 182 L52 195 ZM197 194 L212 194 L212 -5 L197 -5 L197 194 ZM51 130 L206 130 L206 118 L51 118 L51 130 ZM48 66 L202 66 L202 54 L48 54 L48 66 ZM10 2 L245 2 L245 -11 L10 -11 L10 2 Z" /><glyph glyph-name="" unicode="&#x4e1a;" d="M11 6 L246 6 L246 -8 L11 -8 L11 6 ZM151 205 L167 205 L167 1 L151 1 L151 205 ZM88 205 L104 205 L104 1 L88 1 L88 205 ZM35 155 Q55 108 72 61 L57 55 Q41 102 21 150 L35 155 ZM220 155 L235 149 Q217 101 195 55 L181 62 Q202 105 220 155 Z" /><glyph glyph-name="" unicode="&#x4e2a;" d="M119 121 L136 121 L136 -23 L119 -23 L119 121 ZM139 205 L135 199 Q182 133 245 106 Q240 99 235 91 Q169 128 127 187 Q93 132 20 88 Q15 95 10 102 Q86 145 121 205 L139 205 Z" /><glyph glyph-name="" unicode="&#x4e2d;" d="M26 157 L42 157 L42 51 L26 51 L26 157 ZM33 157 L223 157 L223 144 L33 144 L33 157 ZM214 157 L230 157 L230 51 L214 51 L214 157 ZM33 77 L224 77 L224 64 L33 64 L33 77 ZM120 209 L136 209 L136 -26 L120 -26 L120 209 Z" /><glyph glyph-name="" unicode="&#x4e30;" d="M19 169 L236 169 L236 156 L19 156 L19 169 ZM35 112 L220 112 L220 99 L35 99 L35 112 ZM12 54 L244 54 L244 41 L12 41 L12 54 ZM120 209 L136 209 L136 -25 L120 -25 L120 209 Z" /><glyph glyph-name="" unicode="&#x4e3a;" d="M21 147 L222 147 L222 133 L21 133 L21 147 ZM214 147 L229 147 Q229 78 227 29 Q225 -16 183 -16 Q159 -16 137 -16 Q136 -9 134 0 Q153 -2 182 -2 Q210 -2 211 31 Q213 70 214 147 ZM150 92 Q170 73 185 55 L172 45 Q157 63 139 83 L150 92 ZM48 205 Q67 189 83 172 L72 161 Q56 179 38 196 L48 205 ZM114 210 L131 210 Q130 163 125 134 Q108 25 26 -25 Q22 -19 15 -12 Q93 34 109 137 Q114 167 114 210 Z" /><glyph glyph-name="" unicode="&#x4e3b;" d="M31 91 L225 91 L225 78 L31 78 L31 91 ZM21 165 L233 165 L233 151 L21 151 L21 165 ZM12 4 L244 4 L244 -10 L12 -10 L12 4 ZM120 157 L136 157 L136 -3 L120 -3 L120 157 ZM123 210 Q132 198 144 181 L131 171 Q120 189 110 201 L123 210 Z" /><glyph glyph-name="" unicode="&#x4e48;" d="M170 163 L186 153 Q126 65 64 6 Q141 10 216 14 L224 0 Q133 -5 69 -8 Q55 -9 41 -12 L33 4 Q47 10 59 22 Q124 87 170 163 ZM119 209 L135 201 Q84 118 22 69 Q17 75 11 81 Q81 140 119 209 ZM184 78 Q216 33 243 -11 L229 -20 Q204 22 171 70 L184 78 Z" /><glyph glyph-name="" unicode="&#x4e49;" d="M56 192 Q84 97 133 52 Q174 15 242 -3 Q236 -11 231 -20 Q162 3 121 41 Q70 91 41 187 L56 192 ZM196 193 L212 189 Q187 93 136 41 Q94 4 23 -23 Q19 -16 13 -7 Q82 15 125 54 Q173 100 196 193 ZM117 210 Q133 183 146 156 L131 148 Q120 176 104 203 L117 210 Z" /><glyph glyph-name="" unicode="&#x4e4b;" d="M27 163 L209 163 L209 150 L27 150 L27 163 ZM202 163 L221 163 L221 149 Q153 77 58 21 L47 32 Q135 83 202 151 L202 163 ZM36 31 Q52 43 69 25 Q97 0 143 -1 Q194 -2 245 0 Q241 -10 239 -15 Q184 -15 139 -15 Q82 -13 54 19 Q50 24 46 20 Q33 9 17 -11 L8 4 Q26 21 36 31 ZM120 210 Q134 192 145 177 L132 169 Q121 186 108 203 L120 210 Z" /><glyph glyph-name="" unicode="&#x4e5f;" d="M45 181 L59 181 L59 19 Q59 0 83 0 L198 0 Q222 0 226 17 Q228 30 230 51 Q236 49 246 46 Q243 27 240 13 Q235 -14 202 -14 L80 -14 Q45 -14 45 18 L45 181 ZM220 167 Q219 113 217 82 Q214 53 185 53 Q171 53 158 54 Q156 63 155 69 Q164 68 182 67 Q201 67 202 84 Q205 110 205 150 L12 114 L10 127 L220 167 ZM121 208 L136 208 L136 28 L121 28 L121 208 Z" /><glyph glyph-name="" unicode="&#x4e70;" d="M13 67 L241 67 L241 54 L13 54 L13 67 ZM23 194 L229 194 L229 181 L23 181 L23 194 ZM227 194 L234 194 L234 178 Q221 154 208 133 Q203 137 194 141 Q210 163 227 194 ZM66 167 Q93 150 117 134 L108 123 Q83 141 58 157 L66 167 ZM43 127 Q70 110 94 94 L85 83 Q60 101 35 117 L43 127 ZM144 167 L159 167 Q158 87 149 61 Q127 0 29 -25 Q26 -18 21 -10 Q111 10 134 62 Q144 84 144 167 ZM130 46 Q183 20 242 -10 L234 -23 Q179 7 123 34 L130 46 Z" /><glyph glyph-name="" unicode="&#x4e86;" d="M124 120 Q171 150 210 176 L19 176 L19 191 L230 191 L230 171 Q188 143 141 113 L141 20 Q141 -18 104 -18 Q87 -18 64 -17 Q63 -9 61 0 Q81 -1 101 -1 Q124 -1 124 21 L124 120 Z" /><glyph glyph-name="" unicode="&#x4e8b;" d="M27 97 L214 97 L214 86 L27 86 L27 97 ZM206 97 L219 97 L219 10 L206 10 L206 97 ZM27 32 L213 32 L213 21 L27 21 L27 32 ZM11 65 L245 65 L245 54 L11 54 L11 65 ZM13 190 L244 190 L244 179 L13 179 L13 190 ZM121 209 L135 209 L135 6 Q135 -22 109 -22 Q96 -22 81 -21 Q79 -13 78 -6 Q91 -7 106 -7 Q121 -7 121 8 L121 209 ZM42 158 L56 158 L56 117 L42 117 L42 158 ZM50 158 L207 158 L207 147 L50 147 L50 158 ZM200 158 L215 158 L215 117 L200 117 L200 158 ZM50 128 L206 128 L206 117 L50 117 L50 128 Z" /><glyph glyph-name="" unicode="&#x4e8c;" d="M35 178 L225 178 L225 164 L35 164 L35 178 ZM14 18 L242 18 L242 4 L14 4 L14 18 Z" /><glyph glyph-name="" unicode="&#x4e8e;" d="M30 191 L227 191 L227 177 L30 177 L30 191 ZM11 110 L245 110 L245 95 L11 95 L11 110 ZM123 180 L140 180 L140 10 Q140 -19 110 -19 Q97 -19 70 -19 Q69 -11 67 -2 Q90 -3 105 -3 Q123 -3 123 13 L123 180 Z" /><glyph glyph-name="" unicode="&#x4e91;" d="M114 114 L128 104 Q92 55 55 16 Q114 18 198 23 Q203 15 209 8 Q128 4 56 -1 Q45 -2 35 -5 L28 15 Q38 19 46 26 Q82 64 114 114 ZM163 83 Q201 36 233 -5 L218 -16 Q188 27 150 75 L163 83 ZM35 192 L223 192 L223 177 L35 177 L35 192 ZM13 118 L246 118 L246 103 L13 103 L13 118 Z" /><glyph glyph-name="" unicode="&#x4e92;" d="M24 189 L232 189 L232 176 L24 176 L24 189 ZM15 7 L241 7 L241 -7 L15 -7 L15 7 ZM63 136 L198 136 L198 123 L63 123 L63 136 ZM189 136 L204 136 L195 1 L179 1 L189 136 ZM62 180 L78 180 L61 65 L61 52 L46 52 L46 67 L62 180 ZM52 65 L190 65 L190 52 L52 52 L52 65 Z" /><glyph glyph-name="" unicode="&#x4ea7;" d="M15 181 L244 181 L244 168 L15 168 L15 181 ZM40 112 L238 112 L238 99 L40 99 L40 112 ZM35 112 L49 112 L49 66 Q49 11 21 -24 Q16 -17 11 -12 Q35 18 35 66 L35 112 ZM129 209 Q138 193 145 179 L131 172 Q124 187 115 202 L129 209 ZM179 157 L192 149 Q175 125 158 103 L145 109 Q163 132 179 157 ZM78 158 Q93 141 104 126 L92 117 Q81 133 67 150 L78 158 Z" /><glyph glyph-name="" unicode="&#x4eab;" d="M11 37 L245 37 L245 24 L11 24 L11 37 ZM123 51 L191 71 L33 71 L33 83 L211 83 L211 65 L138 44 L138 5 Q138 -22 111 -22 Q97 -22 77 -21 Q76 -14 74 -7 Q93 -9 110 -9 Q123 -9 123 5 L123 51 ZM49 150 L63 150 L63 104 L49 104 L49 150 ZM55 150 L201 150 L201 136 L55 136 L55 150 ZM193 150 L207 150 L207 104 L193 104 L193 150 ZM58 117 L201 117 L201 104 L58 104 L58 117 ZM13 184 L243 184 L243 170 L13 170 L13 184 ZM128 211 Q136 195 142 182 L128 174 Q121 189 114 205 L128 211 Z" /><glyph glyph-name="" unicode="&#x4eac;" d="M123 76 L137 76 L137 9 Q137 -20 110 -20 Q96 -20 79 -20 Q78 -13 76 -5 Q95 -7 108 -7 Q123 -7 123 9 L123 76 ZM76 49 L86 39 Q53 12 21 -11 L12 0 Q47 24 76 49 ZM177 48 Q211 24 240 1 L229 -9 Q198 16 167 39 L177 48 ZM38 142 L53 142 L53 69 L38 69 L38 142 ZM46 142 L209 142 L209 128 L46 128 L46 142 ZM202 142 L217 142 L217 69 L202 69 L202 142 ZM46 83 L210 83 L210 69 L46 69 L46 83 ZM12 181 L244 181 L244 167 L12 167 L12 181 ZM128 210 Q137 193 144 179 L130 172 Q123 187 114 203 L128 210 Z" /><glyph glyph-name="" unicode="&#x4eb2;" d="M31 69 L223 69 L223 57 L31 57 L31 69 ZM122 93 L137 93 L137 8 Q137 -21 105 -21 Q93 -21 79 -21 Q78 -14 76 -6 Q89 -8 105 -8 Q122 -8 122 8 L122 93 ZM74 43 L84 33 Q58 10 25 -9 Q21 -2 17 2 Q48 19 74 43 ZM176 42 Q205 25 236 6 L228 -6 Q195 15 168 31 L176 42 ZM23 183 L232 183 L232 170 L23 170 L23 183 ZM11 120 L244 120 L244 107 L11 107 L11 120 ZM128 211 Q138 195 145 181 L131 174 Q124 189 114 204 L128 211 ZM74 161 Q88 144 98 130 L86 123 Q75 139 62 155 L74 161 ZM180 162 L193 154 Q176 130 160 109 L148 115 Q165 137 180 162 Z" /><glyph glyph-name="" unicode="&#x4eba;" d="M119 205 L135 205 Q129 46 23 -20 Q18 -13 11 -7 Q114 52 119 205 ZM131 171 Q159 39 244 -2 Q237 -10 231 -17 Q147 32 121 162 L131 171 Z" /><glyph glyph-name="" unicode="&#x4ec0;" d="M46 132 L60 132 L60 -23 L46 -23 L46 132 ZM68 209 L83 205 Q53 126 14 79 Q11 87 7 93 Q47 144 68 209 ZM77 122 L246 122 L246 109 L77 109 L77 122 ZM152 209 L167 209 L167 -24 L152 -24 L152 209 Z" /><glyph glyph-name="" unicode="&#x4ecb;" d="M163 114 L178 114 L178 -23 L163 -23 L163 114 ZM73 114 L88 114 L88 66 Q88 2 27 -27 Q24 -21 18 -14 Q73 10 73 66 L73 114 ZM140 208 L135 202 Q183 138 246 111 Q241 104 236 96 Q169 132 127 190 Q94 136 20 93 Q16 100 11 107 Q87 149 122 208 L140 208 Z" /><glyph glyph-name="" unicode="&#x4ecd;" d="M45 130 L58 130 L58 -22 L45 -22 L45 130 ZM66 207 L79 202 Q52 124 15 78 Q12 86 9 92 Q46 142 66 207 ZM95 192 L210 192 L210 179 L95 179 L95 192 ZM202 191 L215 191 L215 176 L186 113 L186 103 L174 103 L174 119 L202 180 L202 191 ZM183 116 L226 116 L226 104 L183 104 L183 116 ZM222 116 L236 116 Q234 56 232 23 Q232 -14 197 -14 Q183 -14 166 -13 Q165 -4 164 2 Q183 1 197 0 Q217 1 218 25 Q220 57 222 116 ZM120 188 L134 188 Q134 160 133 140 Q132 87 126 58 Q116 13 79 -23 Q74 -18 69 -12 Q107 23 114 69 Q118 90 120 141 Q120 159 120 188 Z" /><glyph glyph-name="" unicode="&#x4ece;" d="M166 139 Q178 42 246 -4 Q240 -11 234 -18 Q162 40 158 137 L166 139 ZM155 206 L169 206 Q169 150 166 124 Q157 27 88 -23 Q84 -16 78 -10 Q138 35 150 108 Q155 141 155 206 ZM66 206 L81 206 Q81 128 70 82 Q55 25 20 -19 Q15 -13 9 -8 Q42 32 56 86 Q66 126 66 206 ZM71 121 Q99 91 125 60 L115 50 Q89 83 62 113 L71 121 Z" /><glyph glyph-name="" unicode="&#x4ee5;" d="M103 206 Q122 180 139 151 L125 142 Q109 171 91 199 L103 206 ZM187 55 Q217 25 243 -4 L230 -16 Q204 16 175 45 L187 55 ZM29 198 L44 198 L44 26 Q77 43 110 62 Q112 52 113 46 Q79 28 46 9 Q39 5 31 -2 L21 14 Q29 22 29 34 L29 198 ZM192 204 L207 204 L207 161 Q207 88 185 48 Q159 2 99 -24 Q94 -17 89 -11 Q148 15 171 55 Q192 90 192 161 L192 204 Z" /><glyph glyph-name="" unicode="&#x4eec;" d="M43 131 L55 131 L55 -23 L43 -23 L43 131 ZM62 208 L75 203 Q49 125 15 78 Q12 86 9 92 Q44 143 62 208 ZM96 160 L111 160 L111 -21 L96 -21 L96 160 ZM154 192 L226 192 L226 178 L154 178 L154 192 ZM219 192 L234 192 L234 14 Q234 -19 200 -19 Q184 -19 168 -18 Q166 -10 164 -4 Q183 -6 199 -6 Q219 -6 219 13 L219 192 ZM109 207 Q123 195 140 180 L129 169 Q116 182 99 197 L109 207 Z" /><glyph glyph-name="" unicode="&#x4ef6;" d="M44 130 L56 130 L56 -23 L44 -23 L44 130 ZM64 207 L77 202 Q50 124 15 78 Q12 85 8 92 Q44 142 64 207 ZM111 152 L239 152 L239 139 L111 139 L111 152 ZM82 73 L247 73 L247 60 L82 60 L82 73 ZM166 208 L180 208 L180 -23 L166 -23 L166 208 ZM123 190 L136 186 Q114 129 89 95 Q84 100 79 106 Q106 142 123 190 Z" /><glyph glyph-name="" unicode="&#x4ef7;" d="M45 129 L57 129 L57 -24 L45 -24 L45 129 ZM64 206 L77 202 Q51 123 17 76 Q14 84 11 91 Q45 141 64 206 ZM189 112 L205 112 L205 -22 L189 -22 L189 112 ZM115 111 L131 111 L131 70 Q131 12 90 -25 Q83 -19 77 -15 Q115 18 115 69 L115 111 ZM169 208 L165 202 Q201 144 249 121 Q243 115 238 106 Q191 135 158 188 Q133 139 85 106 Q81 113 75 120 Q126 150 152 208 L169 208 Z" /><glyph glyph-name="" unicode="&#x4efb;" d="M46 130 L60 130 L60 -24 L46 -24 L46 130 ZM68 208 L81 203 Q53 124 16 77 Q13 85 9 92 Q47 143 68 208 ZM85 102 L247 102 L247 90 L85 90 L85 102 ZM88 3 L244 3 L244 -10 L88 -10 L88 3 ZM157 179 L174 179 L174 0 L157 0 L157 179 ZM235 195 L239 182 Q162 175 91 170 Q90 176 87 183 Q162 187 235 195 Z" /><glyph glyph-name="" unicode="&#x4f01;" d="M141 208 L136 202 Q183 149 245 121 Q240 114 236 106 Q174 138 127 191 Q85 138 19 104 Q16 110 10 118 Q81 154 122 208 L141 208 ZM132 82 L213 82 L213 68 L132 68 L132 82 ZM20 1 L236 1 L236 -13 L20 -13 L20 1 ZM124 135 L139 135 L139 -7 L124 -7 L124 135 ZM53 94 L68 94 L68 -7 L53 -7 L53 94 Z" /><glyph glyph-name="" unicode="&#x4f18;" d="M44 131 L57 131 L57 -23 L44 -23 L44 131 ZM64 208 L77 203 Q50 125 15 78 Q12 86 8 93 Q44 143 64 208 ZM75 146 L240 146 L240 133 L75 133 L75 146 ZM125 209 L139 209 Q139 91 129 56 Q118 11 80 -23 Q75 -17 68 -11 Q104 18 115 60 Q125 94 125 209 ZM161 143 L175 143 L175 8 Q175 -5 191 -5 L210 -5 Q224 -5 226 7 Q229 17 231 35 Q238 33 245 31 Q243 17 240 5 Q235 -17 209 -17 L189 -17 Q160 -17 161 8 L161 143 ZM184 202 Q202 187 217 174 L205 165 Q191 179 174 193 L184 202 Z" /><glyph glyph-name="" unicode="&#x4f19;" d="M47 131 L60 131 L60 -23 L47 -23 L47 131 ZM68 208 L82 204 Q53 125 16 78 Q13 86 9 93 Q47 143 68 208 ZM150 206 L164 206 Q164 149 161 123 Q151 26 82 -24 Q77 -18 71 -11 Q133 34 145 107 Q150 141 150 206 ZM160 149 Q175 33 248 -6 Q241 -14 236 -20 Q165 27 150 135 L160 149 ZM228 157 L240 149 Q219 117 195 91 Q191 96 184 102 Q210 129 228 157 ZM89 158 Q109 127 124 98 L111 91 Q96 123 78 152 L89 158 Z" /><glyph glyph-name="" unicode="&#x4f1a;" d="M63 122 L193 122 L193 109 L63 109 L63 122 ZM19 71 L237 71 L237 58 L19 58 L19 71 ZM141 208 L136 202 Q183 149 245 121 Q240 114 236 106 Q174 138 127 191 Q85 138 19 104 Q16 110 10 118 Q81 154 122 208 L141 208 ZM112 59 L125 50 Q96 24 68 2 Q136 4 192 6 L203 -7 Q135 -8 69 -12 Q57 -13 46 -15 L39 1 Q49 5 58 11 Q87 34 112 59 ZM169 36 Q197 11 222 -14 L210 -24 Q184 3 157 27 L169 36 Z" /><glyph glyph-name="" unicode="&#x4f20;" d="M45 131 L58 131 L58 -23 L45 -23 L45 131 ZM66 208 L79 203 Q52 125 16 78 Q12 86 9 93 Q46 143 66 208 ZM89 173 L236 173 L236 160 L89 160 L89 173 ZM79 123 L246 123 L246 111 L79 111 L79 123 ZM143 207 L159 207 Q139 130 121 70 L121 62 L107 62 L107 76 Q126 135 143 207 ZM113 75 L224 75 L224 63 L113 63 L113 75 ZM218 75 L231 75 L231 59 L168 -4 L157 5 L218 66 L218 75 ZM116 43 Q162 14 204 -18 L192 -28 Q149 5 105 33 L116 43 Z" /><glyph glyph-name="" unicode="&#x4f34;" d="M44 130 L56 130 L56 -23 L44 -23 L44 130 ZM64 207 L77 202 Q50 124 15 78 Q12 85 8 92 Q44 142 64 207 ZM89 121 L237 121 L237 108 L89 108 L89 121 ZM79 59 L247 59 L247 46 L79 46 L79 59 ZM155 209 L169 209 L169 -23 L155 -23 L155 209 ZM99 192 Q116 170 132 147 L120 138 Q105 162 88 184 L99 192 ZM225 193 L237 184 Q224 161 207 136 L196 146 Q213 170 225 193 Z" /><glyph glyph-name="" unicode="&#x4f4d;" d="M44 131 L57 131 L57 -23 L44 -23 L44 131 ZM65 208 L79 204 Q51 125 14 78 Q11 86 7 93 Q45 143 65 208 ZM79 165 L236 165 L236 151 L79 151 L79 165 ZM76 1 L246 1 L246 -12 L76 -12 L76 1 ZM152 210 Q163 194 172 176 L155 171 Q149 185 137 205 L152 210 ZM105 131 Q125 81 143 27 L126 22 Q111 70 91 128 L105 131 ZM205 132 L222 127 Q198 53 176 -9 L158 -9 Q184 62 205 132 Z" /><glyph glyph-name="" unicode="&#x4f53;" d="M42 131 L54 131 L54 -23 L42 -23 L42 131 ZM61 208 L74 204 Q48 125 14 78 Q12 86 8 93 Q43 143 61 208 ZM74 159 L239 159 L239 146 L74 146 L74 159 ZM113 39 L198 39 L198 27 L113 27 L113 39 ZM148 208 L162 208 L162 -23 L148 -23 L148 208 ZM139 156 L148 153 Q128 77 72 17 Q68 24 61 30 Q114 84 139 156 ZM164 152 L174 152 Q198 69 247 35 Q240 27 235 21 Q186 60 164 152 Z" /><glyph glyph-name="" unicode="&#x4f55;" d="M43 131 L55 131 L55 -23 L43 -23 L43 131 ZM62 209 L75 204 Q49 125 14 78 Q11 86 8 93 Q43 144 62 209 ZM95 140 L108 140 L108 46 L95 46 L95 140 ZM101 140 L164 140 L164 127 L101 127 L101 140 ZM159 140 L172 140 L172 46 L159 46 L159 140 ZM103 58 L168 58 L168 46 L103 46 L103 58 ZM88 192 L246 192 L246 179 L88 179 L88 192 ZM211 185 L225 185 L225 10 Q225 -21 197 -21 Q182 -21 159 -20 Q159 -13 157 -5 Q176 -6 192 -6 Q211 -6 211 12 L211 185 Z" /><glyph glyph-name="" unicode="&#x4f5c;" d="M45 131 L58 131 L58 -23 L45 -23 L45 131 ZM65 208 L78 204 Q51 125 15 78 Q12 86 9 92 Q45 143 65 208 ZM115 171 L246 171 L246 158 L115 158 L115 171 ZM151 111 L236 111 L236 98 L151 98 L151 111 ZM149 50 L239 50 L239 36 L149 36 L149 50 ZM139 163 L153 163 L153 -24 L139 -24 L139 163 ZM125 209 L138 205 Q118 151 92 104 Q86 107 78 111 Q102 150 125 209 Z" /><glyph glyph-name="" unicode="&#x4f60;" d="M46 129 L59 129 L59 -23 L46 -23 L46 129 ZM67 206 L81 202 Q53 124 16 77 Q13 85 9 92 Q47 142 67 206 ZM120 171 L235 171 L235 157 L120 157 L120 171 ZM231 171 L239 171 L239 155 Q229 132 222 115 Q215 118 208 121 Q222 151 231 171 ZM131 206 L145 200 Q122 151 93 116 Q88 125 85 131 Q110 159 131 206 ZM158 132 L172 132 L172 8 Q172 -21 145 -21 Q130 -21 117 -21 Q115 -13 113 -6 Q126 -7 143 -7 Q158 -7 158 9 L158 132 ZM121 102 L134 95 Q115 53 92 13 L80 22 Q104 64 121 102 ZM208 101 Q229 62 245 25 L231 16 Q215 56 196 94 L208 101 Z" /><glyph glyph-name="" unicode="&#x4f7f;" d="M75 176 L245 176 L245 163 L75 163 L75 176 ZM153 208 L166 208 L166 106 Q166 48 151 23 Q133 -5 78 -25 Q74 -18 69 -12 Q122 5 138 30 Q153 51 153 106 L153 208 ZM107 59 Q142 0 245 -7 Q239 -15 235 -23 Q133 -10 95 52 L107 59 ZM84 133 L97 133 L97 72 L84 72 L84 133 ZM91 133 L228 133 L228 120 L91 120 L91 133 ZM222 133 L234 133 L234 72 L222 72 L222 133 ZM90 85 L228 85 L228 72 L90 72 L90 85 ZM42 131 L54 131 L54 -23 L42 -23 L42 131 ZM60 208 L72 203 Q47 125 15 78 Q12 86 9 92 Q42 143 60 208 Z" /><glyph glyph-name="" unicode="&#x4fbf;" d="M44 131 L57 131 L57 -24 L44 -24 L44 131 ZM64 209 L78 205 Q50 126 13 78 Q10 86 7 93 Q44 144 64 209 ZM89 158 L102 158 L102 60 L89 60 L89 158 ZM99 158 L221 158 L221 147 L99 147 L99 158 ZM217 158 L231 158 L231 60 L217 60 L217 158 ZM99 72 L221 72 L221 60 L99 60 L99 72 ZM98 115 L221 115 L221 104 L98 104 L98 115 ZM83 196 L240 196 L240 184 L83 184 L83 196 ZM153 191 L167 191 L167 96 Q167 42 152 19 Q134 -7 80 -25 Q76 -19 72 -14 Q123 3 139 25 Q153 45 153 96 L153 191 ZM108 49 Q145 1 245 -8 Q241 -14 238 -21 Q137 -11 95 41 L108 49 Z" /><glyph glyph-name="" unicode="&#x4fe1;" d="M43 130 L56 130 L56 -25 L43 -25 L43 130 ZM63 208 L76 204 Q49 124 15 77 Q12 85 8 92 Q44 143 63 208 ZM103 2 L220 2 L220 -9 L103 -9 L103 2 ZM92 98 L231 98 L231 86 L92 86 L92 98 ZM92 137 L231 137 L231 125 L92 125 L92 137 ZM79 176 L245 176 L245 164 L79 164 L79 176 ZM214 59 L229 59 L229 -24 L214 -24 L214 59 ZM94 59 L109 59 L109 -24 L94 -24 L94 59 ZM102 59 L222 59 L222 47 L102 47 L102 59 ZM157 210 Q167 195 175 182 L160 176 Q153 189 143 203 L157 210 Z" /><glyph glyph-name="" unicode="&#x50a8;" d="M39 131 L50 131 L50 -23 L39 -23 L39 131 ZM56 208 L67 204 Q44 125 14 78 Q12 86 9 93 Q40 144 56 208 ZM148 90 L229 90 L229 78 L148 78 L148 90 ZM215 83 L229 83 L229 -23 L215 -23 L215 83 ZM147 6 L223 6 L223 -6 L147 -6 L147 6 ZM148 48 L224 48 L224 36 L148 36 L148 48 ZM126 178 L207 178 L207 166 L126 166 L126 178 ZM117 128 L245 128 L245 116 L117 116 L117 128 ZM159 209 L172 209 L172 124 L159 124 L159 209 ZM143 81 L156 81 L156 -23 L143 -23 L143 81 ZM234 190 L245 184 Q223 149 199 124 Q168 91 109 56 Q106 61 102 68 Q152 94 183 125 Q209 150 234 190 ZM86 198 Q101 178 113 161 L101 152 Q90 171 76 191 L86 198 ZM124 34 Q124 23 125 19 Q95 1 86 -7 L77 4 Q84 10 84 24 L84 109 L62 109 L62 121 L97 121 L97 16 Q110 25 124 34 Z" /><glyph glyph-name="" unicode="&#x5143;" d="M155 115 L169 115 L169 79 L155 79 L155 115 ZM155 86 L169 86 L169 22 Q169 2 183 2 L211 2 Q225 2 229 19 Q231 34 232 54 Q239 50 248 46 Q245 28 242 13 Q236 -15 213 -15 L183 -15 Q155 -15 155 21 L155 86 ZM83 115 L97 115 Q97 82 93 60 Q81 4 21 -26 Q17 -17 12 -9 Q65 14 78 60 Q83 78 83 115 ZM36 193 L221 193 L221 179 L36 179 L36 193 ZM14 122 L243 122 L243 108 L14 108 L14 122 Z" /><glyph glyph-name="" unicode="&#x5144;" d="M38 200 L55 200 L55 90 L38 90 L38 200 ZM47 200 L209 200 L209 186 L47 186 L47 200 ZM200 200 L216 200 L216 90 L200 90 L200 200 ZM47 104 L208 104 L208 90 L47 90 L47 104 ZM87 94 L102 94 L102 79 Q102 3 27 -24 Q23 -16 18 -8 Q87 14 87 79 L87 94 ZM146 95 L162 95 L162 12 Q162 -3 180 -3 L199 -3 Q219 -3 222 10 Q226 30 229 55 Q238 50 245 47 Q242 22 238 5 Q236 -7 227 -13 Q217 -18 200 -18 L179 -18 Q146 -18 146 11 L146 95 Z" /><glyph glyph-name="" unicode="&#x5148;" d="M53 166 L227 166 L227 151 L53 151 L53 166 ZM13 100 L245 100 L245 84 L13 84 L13 100 ZM128 210 L143 210 L143 93 L128 93 L128 210 ZM64 205 L78 200 Q58 143 31 110 Q27 117 22 121 Q49 156 64 205 ZM83 90 L98 90 L98 75 Q98 2 21 -24 Q17 -16 11 -8 Q83 13 83 75 L83 90 ZM144 91 L160 91 L160 11 Q160 -4 180 -4 L199 -4 Q220 -4 223 8 Q227 28 230 52 Q239 47 247 45 Q243 21 240 4 Q237 -8 228 -13 Q218 -18 200 -18 L178 -18 Q144 -18 144 10 L144 91 Z" /><glyph glyph-name="" unicode="&#x5168;" d="M51 115 L206 115 L206 101 L51 101 L51 115 ZM42 60 L215 60 L215 46 L42 46 L42 60 ZM20 1 L236 1 L236 -13 L20 -13 L20 1 ZM120 107 L136 107 L136 -5 L120 -5 L120 107 ZM141 208 L136 202 Q183 149 245 121 Q240 114 236 106 Q174 138 127 191 Q85 138 19 104 Q16 110 10 118 Q81 154 122 208 L141 208 Z" /><glyph glyph-name="" unicode="&#x516c;" d="M155 200 Q189 125 244 100 Q239 92 234 82 Q173 120 141 194 L155 200 ZM92 197 L105 187 Q70 123 20 83 Q16 90 11 98 Q61 136 92 197 ZM112 113 L125 103 Q92 50 58 9 Q112 11 190 16 Q195 8 200 0 Q125 -4 59 -9 Q48 -10 39 -13 L33 7 Q42 12 49 20 Q83 60 112 113 ZM157 80 Q193 30 222 -14 L209 -25 Q181 21 146 72 L157 80 Z" /><glyph glyph-name="" unicode="&#x5171;" d="M20 160 L235 160 L235 146 L20 146 L20 160 ZM11 75 L245 75 L245 61 L11 61 L11 75 ZM73 206 L89 206 L89 68 L73 68 L73 206 ZM166 206 L182 206 L182 69 L166 69 L166 206 ZM89 43 L101 30 Q63 2 22 -22 Q19 -16 12 -7 Q52 13 89 43 ZM161 42 Q203 16 239 -7 L228 -22 Q192 4 151 29 L161 42 Z" /><glyph glyph-name="" unicode="&#x5173;" d="M121 147 L137 147 Q137 90 122 59 Q98 4 21 -25 Q17 -18 11 -9 Q81 15 106 61 Q122 89 121 147 ZM131 103 Q152 19 241 -7 Q234 -17 230 -22 Q137 12 119 100 L131 103 ZM36 159 L219 159 L219 147 L36 147 L36 159 ZM15 94 L241 94 L241 81 L15 81 L15 94 ZM181 209 L195 200 Q176 176 159 153 L145 159 Q164 183 181 209 ZM69 208 Q85 193 97 178 L85 166 Q72 183 57 198 L69 208 Z" /><glyph glyph-name="" unicode="&#x5176;" d="M16 178 L240 178 L240 165 L16 165 L16 178 ZM61 134 L195 134 L195 122 L61 122 L61 134 ZM60 91 L196 91 L196 79 L60 79 L60 91 ZM11 47 L245 47 L245 34 L11 34 L11 47 ZM52 208 L67 208 L67 40 L52 40 L52 208 ZM188 208 L204 208 L204 41 L188 41 L188 208 ZM86 25 L95 13 Q58 -7 19 -24 Q16 -18 11 -10 Q50 4 86 25 ZM166 23 Q209 6 245 -10 L238 -25 Q199 -6 159 10 L166 23 Z" /><glyph glyph-name="" unicode="&#x5177;" d="M43 198 L58 198 L58 37 L43 37 L43 198 ZM51 198 L207 198 L207 186 L51 186 L51 198 ZM198 198 L213 198 L213 37 L198 37 L198 198 ZM10 42 L245 42 L245 30 L10 30 L10 42 ZM51 159 L205 159 L205 147 L51 147 L51 159 ZM51 120 L205 120 L205 109 L51 109 L51 120 ZM52 81 L204 81 L204 70 L52 70 L52 81 ZM86 19 L95 8 Q59 -9 21 -24 Q18 -19 13 -12 Q51 1 86 19 ZM164 17 Q206 2 241 -12 L234 -25 Q196 -8 157 6 L164 17 Z" /><glyph glyph-name="" unicode="&#x5185;" d="M31 167 L46 167 L46 -21 L31 -21 L31 167 ZM37 166 L217 166 L217 152 L37 152 L37 166 ZM209 167 L225 167 L225 9 Q225 -19 197 -19 Q183 -19 160 -18 Q159 -11 157 -2 Q177 -4 192 -4 Q209 -4 209 12 L209 167 ZM122 208 L136 208 Q136 163 134 149 Q128 73 61 35 Q58 41 52 50 Q115 81 120 149 Q122 164 122 208 ZM121 110 Q168 79 200 56 L190 43 Q156 69 113 98 L121 110 Z" /><glyph glyph-name="" unicode="&#x518c;" d="M11 110 L245 110 L245 97 L11 97 L11 110 ZM40 197 L109 197 L109 184 L40 184 L40 197 ZM95 186 L108 186 L108 14 Q108 -12 84 -12 Q79 -12 60 -11 Q59 -5 56 4 Q68 3 80 3 Q95 3 95 18 L95 186 ZM35 197 L49 197 L49 94 Q49 11 20 -24 Q15 -18 9 -11 Q35 20 35 94 L35 197 ZM150 197 L220 197 L220 184 L150 184 L150 197 ZM206 191 L220 191 L220 8 Q220 -20 196 -20 Q175 -20 168 -20 Q166 -14 165 -5 Q178 -7 193 -7 Q206 -7 206 8 L206 191 ZM144 197 L158 197 L158 95 Q158 14 129 -21 Q124 -15 118 -9 Q144 22 144 96 L144 197 Z" /><glyph glyph-name="" unicode="&#x518d;" d="M19 195 L237 195 L237 183 L19 183 L19 195 ZM49 104 L206 104 L206 92 L49 92 L49 104 ZM12 56 L246 56 L246 43 L12 43 L12 56 ZM121 189 L135 189 L135 50 L121 50 L121 189 ZM42 152 L55 152 L55 -20 L42 -20 L42 152 ZM49 152 L206 152 L206 140 L49 140 L49 152 ZM201 152 L214 152 L214 4 Q214 -20 191 -20 Q178 -20 163 -20 Q162 -12 160 -5 Q177 -7 190 -7 Q201 -7 201 6 L201 152 Z" /><glyph glyph-name="" unicode="&#x51b5;" d="M24 192 Q45 171 65 148 L52 137 Q33 161 12 182 L24 192 ZM51 95 Q57 90 65 85 Q46 39 25 -10 L10 -1 Q31 42 51 95 ZM90 197 L105 197 L105 90 L90 90 L90 197 ZM96 197 L216 197 L216 184 L96 184 L96 197 ZM209 197 L225 197 L225 90 L209 90 L209 197 ZM96 103 L216 103 L216 90 L96 90 L96 103 ZM125 92 L140 92 Q140 45 125 21 Q110 -4 69 -25 Q64 -18 59 -11 Q96 5 112 30 Q125 50 125 92 ZM167 101 L182 101 L182 5 Q182 -5 194 -5 L216 -5 Q228 -5 230 7 Q232 18 233 32 Q240 29 247 27 Q246 15 244 4 Q240 -17 218 -17 L190 -17 Q167 -17 167 4 L167 101 Z" /><glyph glyph-name="" unicode="&#x51c0;" d="M40 93 Q47 89 56 86 Q43 43 31 -2 L14 5 Q29 47 40 93 ZM30 193 Q43 170 57 143 L42 135 Q29 164 16 185 L30 193 ZM88 138 L216 138 L216 126 L88 126 L88 138 ZM210 139 L223 139 L223 29 L210 29 L210 139 ZM84 52 L217 52 L217 40 L84 40 L84 52 ZM72 96 L245 96 L245 83 L72 83 L72 96 ZM114 188 L198 188 L198 176 L114 176 L114 188 ZM195 188 L203 188 L203 176 L166 131 L152 135 L195 188 ZM124 211 L137 203 Q111 161 78 127 Q72 133 67 137 Q100 171 124 211 ZM145 131 L159 131 L159 7 Q159 -22 131 -22 Q116 -22 103 -22 Q101 -14 99 -7 Q113 -8 129 -8 Q145 -8 145 8 L145 131 Z" /><glyph glyph-name="" unicode="&#x51cf;" d="M40 93 Q47 89 56 86 Q43 43 31 -2 L14 5 Q29 47 40 93 ZM30 193 Q43 170 57 143 L42 135 Q29 164 16 185 L30 193 ZM106 92 L119 92 L119 21 L106 21 L106 92 ZM114 92 L154 92 L154 81 L114 81 L114 92 ZM147 92 L160 92 L160 21 L147 21 L147 92 ZM114 32 L154 32 L154 21 L114 21 L114 32 ZM103 130 L162 130 L162 118 L103 118 L103 130 ZM83 170 L241 170 L241 158 L83 158 L83 170 ZM77 171 L91 171 L91 95 Q91 25 58 -20 Q51 -14 46 -9 Q77 30 77 96 L77 171 ZM174 208 L188 208 Q188 160 190 125 Q194 31 213 4 Q218 -4 224 -4 Q229 -4 231 5 Q233 17 235 35 Q242 31 248 29 Q246 14 243 -1 Q239 -20 225 -20 Q210 -20 198 1 Q180 34 176 127 Q174 166 174 208 ZM223 121 L238 117 Q205 28 149 -22 Q147 -18 142 -10 Q196 40 223 121 ZM212 206 Q222 193 228 185 L217 179 Q214 184 202 200 L212 206 Z" /><glyph glyph-name="" unicode="&#x51e0;" d="M70 195 L170 195 L170 181 L70 181 L70 195 ZM162 195 L178 195 L178 15 Q178 1 193 1 L210 1 Q224 1 226 15 Q229 30 230 52 Q238 49 247 46 Q243 23 241 11 Q236 -14 210 -14 L189 -14 Q162 -14 162 17 L162 195 ZM63 195 L79 195 L79 115 Q79 55 69 31 Q60 4 31 -21 Q25 -14 19 -8 Q45 13 54 38 Q63 62 63 114 L63 195 Z" /><glyph glyph-name="" unicode="&#x51fa;" d="M28 71 L43 71 L43 -10 L28 -10 L28 71 ZM39 4 L222 4 L222 -10 L39 -10 L39 4 ZM212 71 L227 71 L227 -20 L212 -20 L212 71 ZM120 206 L135 206 L135 -2 L120 -2 L120 206 ZM35 179 L50 179 L50 102 L35 102 L35 179 ZM42 116 L211 116 L211 102 L42 102 L42 116 ZM203 179 L218 179 L218 102 L203 102 L203 179 Z" /><glyph glyph-name="" unicode="&#x5206;" d="M39 102 L190 102 L190 88 L39 88 L39 102 ZM182 102 L197 102 Q196 54 195 25 Q194 -16 155 -16 Q135 -17 112 -16 Q111 -8 110 0 Q130 -2 153 -2 Q180 -2 181 26 Q182 52 182 102 ZM86 91 L102 91 Q100 47 86 21 Q68 -10 27 -26 Q23 -18 17 -11 Q55 3 72 30 Q85 54 86 91 ZM155 210 Q189 140 246 116 Q241 108 235 99 Q173 134 141 204 L155 210 ZM92 207 L105 198 Q69 138 18 100 Q14 107 9 114 Q60 150 92 207 Z" /><glyph glyph-name="" unicode="&#x5207;" d="M105 146 L107 133 L13 121 L11 134 L105 146 ZM42 210 L56 210 L56 34 Q74 45 97 59 L102 46 Q79 32 61 21 Q54 16 47 11 L36 23 Q42 30 42 46 L42 210 ZM98 193 L226 193 L226 179 L98 179 L98 193 ZM220 193 L235 193 L227 24 Q225 -17 188 -17 Q165 -17 146 -16 Q145 -8 143 1 Q162 -2 185 -2 Q210 -2 212 27 L220 193 ZM140 188 L155 188 Q155 139 154 112 Q153 60 140 32 Q123 -3 82 -25 Q78 -18 73 -11 Q110 9 126 38 Q139 64 140 111 Q140 141 140 188 Z" /><glyph glyph-name="" unicode="&#x5212;" d="M167 182 L179 182 L179 35 L167 35 L167 182 ZM218 208 L231 208 L231 7 Q231 -20 207 -20 Q194 -20 182 -20 Q181 -16 179 -5 Q193 -6 205.5 -6 Q218 -6 218 9 L218 208 ZM51 206 L66 206 Q66 168 68 129 Q71 75 81 44 Q88 18 109 -2 Q116 -8 122 -8 Q128 -8 131 1 Q135 18 136 39 Q142 35 150 33 Q146 10 143 -4 Q137 -23 123 -23 Q111 -23 100 -14 Q79 4 68 38 Q57 73 54 126 Q52 159 51 206 ZM146 149 L148 136 L16 119 L14 132 L146 149 ZM93 199 Q110 186 126 171 L117 161 Q100 178 84 191 L93 199 ZM129 111 L141 104 Q99 30 18 -5 Q13 2 8 7 Q89 39 129 111 Z" /><glyph glyph-name="" unicode="&#x521b;" d="M166 185 L182 185 L182 32 L166 32 L166 185 ZM215 205 L231 205 L231 5 Q231 -22 202 -22 Q187 -22 170 -21 Q168 -13 166 -6 Q181 -7 198 -7 Q215 -7 215 8 L215 205 ZM36 123 L127 123 L127 111 L36 111 L36 123 ZM120 123 L134 123 Q133 92 131 73 Q130 47 105 46 Q88 46 72 46 Q71 54 68 60 Q92 60 103 60 Q116 61 118 76 Q119 93 120 123 ZM36 118 L50 118 L50 16 Q50 -3 65 -3 L111 -3 Q127 -3 132 15 Q134 27 136 42 Q142 39 151 36 Q148 20 145 10 Q139 -16 109 -16 L66 -16 Q36 -16 36 14 L36 118 ZM83 188 Q56 144 19 111 Q16 117 9 127 Q45 155 77 207 L95 207 L91 199 Q124 172 150 149 L139 135 Q109 165 83 188 Z" /><glyph glyph-name="" unicode="&#x5229;" d="M10 138 L137 138 L137 125 L10 125 L10 138 ZM69 186 L83 186 L83 -22 L69 -22 L69 186 ZM129 200 L132 186 Q82 181 15 177 L15 191 Q77 194 129 200 ZM64 130 L77 125 Q48 55 16 18 Q13 28 10 34 Q47 81 64 130 ZM80 105 Q111 82 138 61 L130 47 Q103 71 73 94 L80 105 ZM158 182 L172 182 L172 33 L158 33 L158 182 ZM217 207 L232 207 L232 6 Q232 -22 204 -22 Q189 -22 175 -21 Q174 -18 172 -7 Q188 -8 202.5 -8 Q217 -8 217 8 L217 207 Z" /><glyph glyph-name="" unicode="&#x522b;" d="M167 182 L179 182 L179 35 L167 35 L167 182 ZM218 208 L231 208 L231 7 Q231 -20 207 -20 Q194 -20 182 -20 Q181 -16 179 -5 Q193 -6 205.5 -6 Q218 -6 218 9 L218 208 ZM27 195 L40 195 L40 120 L27 120 L27 195 ZM32 195 L125 195 L125 183 L32 183 L32 195 ZM120 195 L133 195 L133 120 L120 120 L120 195 ZM33 131 L126 131 L126 120 L33 120 L33 131 ZM19 87 L126 87 L126 74 L19 74 L19 87 ZM119 87 L134 87 Q134 67 133 26 Q133 -18 97 -18 Q88 -18 72 -17 Q71 -9 69 -3 Q85 -3 98 -3 Q118 -3 118 23 Q118 46 119 87 ZM57 105 L73 105 Q73 72 71 58 Q65 13 22 -23 Q17 -19 10 -13 Q50 15 56 60 Q57 70 57 105 Z" /><glyph glyph-name="" unicode="&#x5230;" d="M169 190 L184 190 L184 34 L169 34 L169 190 ZM219 209 L235 209 L235 7 Q235 -20 206 -20 Q190 -20 173 -20 Q171 -11 169 -4 Q184 -5 201.5 -5 Q219 -5 219 10 L219 209 ZM15 194 L150 194 L150 182 L15 182 L15 194 ZM17 70 L144 70 L144 57 L17 57 L17 70 ZM74 100 L88 100 L88 3 L74 3 L74 100 ZM72 186 L84 179 Q62 147 42 123 Q81 125 127 127 L131 114 Q74 111 39 109 Q31 108 22 105 L16 121 Q25 124 30 130 Q46 147 72 186 ZM114 162 Q132 136 148 108 L134 99 Q120 128 103 155 L114 162 ZM147 16 Q148 7 148 2 Q71 -6 13 -14 L10 2 Q67 7 147 16 Z" /><glyph glyph-name="" unicode="&#x5236;" d="M35 170 L147 170 L147 158 L35 158 L35 170 ZM11 121 L157 121 L157 108 L11 108 L11 121 ZM81 208 L94 208 L94 -24 L81 -24 L81 208 ZM28 77 L41 77 L41 -6 L28 -6 L28 77 ZM34 76 L147 76 L147 64 L34 64 L34 76 ZM134 70 L147 70 L147 25 Q147 -2 124 -2 Q116 -2 107 -2 Q106 8 105 11 Q106 11 119 10 Q134 10 134 25 L134 70 ZM39 198 L53 194 Q44 159 27 132 Q20 136 15 139 Q33 167 39 198 ZM173 187 L187 187 L187 34 L173 34 L173 187 ZM219 207 L233 207 L233 7 Q233 -20 207 -20 Q192 -20 176 -20 Q175 -11 173 -4 Q187 -5 203 -5 Q219 -5 219 9 L219 207 Z" /><glyph glyph-name="" unicode="&#x524d;" d="M12 172 L244 172 L244 160 L12 160 L12 172 ZM35 90 L122 90 L122 78 L35 78 L35 90 ZM35 47 L122 47 L122 36 L35 36 L35 47 ZM28 132 L41 132 L41 -24 L28 -24 L28 132 ZM33 132 L129 132 L129 120 L33 120 L33 132 ZM115 125 L129 125 L129 5 Q129 -21 103 -21 Q94 -21 81 -21 Q80 -11 78 -7 Q87 -7 102 -7 Q115 -7 115 7 L115 125 ZM83 210 Q92 199 103 183 L90 174 Q80 190 70 202 L83 210 ZM173 210 L186 199 Q177 187 165 174 L153 183 Q163 196 173 210 ZM164 127 L177 127 L177 19 L164 19 L164 127 ZM213 141 L227 141 L227 8 Q227 -21 200 -21 Q191 -21 175 -20 Q174 -13 171 -5 Q187 -7 199 -7 Q213 -7 213 9 L213 141 Z" /><glyph glyph-name="" unicode="&#x529b;" d="M22 155 L220 155 L220 141 L22 141 L22 155 ZM211 155 L225 155 Q225 83 223 32 Q222 -15 182 -15 Q160 -15 139 -15 Q138 -7 137 1 Q154 0 182 0 Q208 0 209 34 Q210 74 211 155 ZM102 209 L117 209 Q116 178 116 145 Q114 77 95 43 Q78 8 22 -22 Q17 -15 13 -9 Q66 17 82 50 Q99 79 101 141 Q101 173 102 209 Z" /><glyph glyph-name="" unicode="&#x529e;" d="M24 164 L193 164 L193 151 L24 151 L24 164 ZM186 164 L200 164 Q198 73 196 26 Q194 -16 161 -16 Q145 -16 126 -15 Q124 -7 122 1 Q145 -1 159 -1 Q180 -1 181 23 Q184 72 186 164 ZM43 123 L55 118 Q41 81 23 49 Q17 53 11 56 Q29 87 43 123 ZM222 121 Q234 92 246 60 L233 55 Q221 87 210 116 L222 121 ZM98 208 L113 208 Q112 177 112 144 Q110 76 92 43 Q75 8 21 -22 Q17 -15 13 -9 Q64 17 80 50 Q96 79 97 141 Q98 172 98 208 Z" /><glyph glyph-name="" unicode="&#x529f;" d="M103 157 L228 157 L228 143 L103 143 L103 157 ZM218 157 L233 157 Q231 68 229 21 Q227 -20 192 -20 Q176 -20 155 -19 Q154 -10 151 -3 Q176 -5 190 -5 Q212 -5 214 18 Q216 67 218 157 ZM143 206 L158 206 Q158 96 147 61 Q130 10 78 -24 Q74 -16 68 -9 Q118 24 132 68 Q143 97 143 206 ZM13 182 L105 182 L105 168 L13 168 L13 182 ZM49 176 L64 176 L64 37 L49 37 L49 176 ZM107 58 Q107 51 108 44 Q58 32 12 20 L10 35 Q58 45 107 58 Z" /><glyph glyph-name="" unicode="&#x52a0;" d="M21 157 L115 157 L115 144 L21 144 L21 157 ZM107 157 L120 157 Q118 65 116 19 Q115 -16 87 -16 Q80 -16 65 -16 Q64 -9 63 -1 Q77 -2 87 -2 Q102 -2 104 21 Q106 70 107 157 ZM48 209 L62 209 L62 122 Q62 28 19 -23 Q15 -17 10 -10 Q48 37 48 123 L48 209 ZM148 177 L162 177 L162 -17 L148 -17 L148 177 ZM152 177 L232 177 L232 164 L152 164 L152 177 ZM222 177 L236 177 L236 -16 L222 -16 L222 177 ZM153 17 L228 17 L228 3 L153 3 L153 17 Z" /><glyph glyph-name="" unicode="&#x52a1;" d="M23 71 L206 71 L206 57 L23 57 L23 71 ZM199 71 L212 71 Q210 36 208 14 Q205 -21 172 -21 Q150 -21 131 -20 Q130 -11 128 -2 Q147 -5 172 -5 Q193 -5 195 15 Q197 33 199 71 ZM105 95 L117 95 Q116 58 111 40 Q95 -9 22 -27 Q19 -19 15 -12 Q84 3 99 46 Q104 63 105 95 ZM65 189 L202 189 L202 176 L65 176 L65 189 ZM197 189 L212 189 L212 176 Q158 111 15 84 Q12 92 8 99 Q134 118 197 180 L197 189 ZM71 180 Q119 117 244 103 Q241 97 237 89 Q103 106 58 177 L71 180 ZM78 212 L91 206 Q62 163 21 128 Q20 130 13 141 Q51 170 78 212 Z" /><glyph glyph-name="" unicode="&#x52a8;" d="M22 189 L114 189 L114 176 L22 176 L22 189 ZM12 120 L124 120 L124 107 L12 107 L12 120 ZM55 109 L71 109 Q51 61 34 27 Q64 30 107 35 L107 20 Q72 17 31 11 Q23 10 16 6 L9 23 Q18 27 22 36 Q39 68 55 109 ZM90 75 Q106 44 120 14 L107 6 Q93 39 78 68 L90 75 ZM121 158 L231 158 L231 144 L121 144 L121 158 ZM222 157 L237 157 Q235 65 233 19 Q231 -17 199 -17 Q191 -17 173 -16 Q172 -9 170 -1 Q187 -2 199 -2 Q217 -2 218 21 Q220 70 222 157 ZM153 209 L169 209 L169 122 Q169 28 119 -23 Q114 -17 108 -10 Q153 37 153 123 L153 209 Z" /><glyph glyph-name="" unicode="&#x5305;" d="M62 181 L210 181 L210 168 L62 168 L62 181 ZM200 181 L215 181 Q214 97 211 65 Q208 26 173 26 Q163 26 141 26 Q139 34 138 41 Q157 40 174 40 Q195 40 197 64 Q199 97 200 181 ZM46 134 L142 134 L142 122 L46 122 L46 134 ZM134 134 L148 134 L148 67 L134 67 L134 134 ZM53 79 L141 79 L141 67 L53 67 L53 79 ZM46 133 L60 133 L60 17 Q60 -1 80 -1 L199 -1 Q221 -1 225 13 Q228 26 231 47 Q238 44 246 41 Q243 25 240 11 Q234 -15 199 -15 L80 -15 Q46 -15 46 19 L46 133 ZM70 210 L83 205 Q57 147 20 100 Q15 106 10 111 Q48 157 70 210 Z" /><glyph glyph-name="" unicode="&#x5316;" d="M48 131 L61 131 L61 -22 L48 -22 L48 131 ZM69 208 L82 204 Q54 125 17 78 Q14 86 10 93 Q48 143 69 208 ZM222 174 L235 165 Q181 93 86 48 Q82 54 78 60 Q169 103 222 174 ZM131 205 L147 205 L147 16 Q147 0 164 0 L206 0 Q224 0 227 14 Q229 28 231 49 Q236 48 247 44 Q245 24 242 8 Q237 -15 209 -15 L159 -15 Q131 -15 131 15 L131 205 Z" /><glyph glyph-name="" unicode="&#x5317;" d="M13 138 L93 138 L93 124 L13 124 L13 138 ZM84 207 L99 207 L99 -22 L84 -22 L84 207 ZM94 49 L97 34 Q76 26 16 1 L9 16 Q44 28 94 49 ZM152 208 L167 208 L167 19 Q167 0 183 0 L209 0 Q224 0 226 18 Q229 34 230 56 Q238 53 246 50 Q244 29 241 12 Q236 -15 211 -15 L181 -15 Q152 -15 152 17 L152 208 ZM231 160 L240 147 Q211 128 158 103 L158 117 Q197 137 231 160 Z" /><glyph glyph-name="" unicode="&#x533a;" d="M202 163 L217 156 Q165 76 73 19 Q69 22 60 29 Q154 88 202 163 ZM90 155 Q160 92 215 38 L201 27 Q145 84 77 146 L90 155 ZM28 192 L44 192 L44 -11 L28 -11 L28 192 ZM36 192 L239 192 L239 178 L36 178 L36 192 ZM37 3 L242 3 L242 -11 L37 -11 L37 3 Z" /><glyph glyph-name="" unicode="&#x534e;" d="M13 41 L242 41 L242 26 L13 26 L13 41 ZM119 80 L134 80 L134 -25 L119 -25 L119 80 ZM55 172 L69 172 L69 79 L55 79 L55 172 ZM79 210 L92 203 Q64 158 20 125 Q17 130 12 137 Q54 168 79 210 ZM220 194 L229 183 Q168 138 91 112 Q88 119 84 126 Q168 151 220 194 ZM141 206 L155 206 L155 115 Q155 99 172 99 L203 99 Q223 99 226 116 Q227 122 229 141 Q238 137 243 135 Q241 119 239 110 Q235 86 207 86 L170 86 Q141 86 141 113 L141 206 Z" /><glyph glyph-name="" unicode="&#x534f;" d="M10 140 L74 140 L74 127 L10 127 L10 140 ZM36 207 L50 207 L50 -23 L36 -23 L36 207 ZM226 116 Q238 83 246 57 L233 52 Q225 80 214 112 L226 116 ZM97 116 L110 112 Q98 77 84 48 Q81 49 71 53 Q86 82 97 116 ZM100 159 L200 159 L200 146 L100 146 L100 159 ZM192 159 L206 159 Q204 65 202 18 Q200 -18 171 -18 Q164 -18 148 -17 Q147 -10 145 -2 Q160 -3 171 -3 Q187 -3 189 20 Q191 70 192 159 ZM130 211 L144 211 L144 123 Q144 28 98 -24 Q94 -18 88 -11 Q130 37 130 125 L130 211 Z" /><glyph glyph-name="" unicode="&#x5355;" d="M11 37 L245 37 L245 24 L11 24 L11 37 ZM120 164 L135 164 L135 -25 L120 -25 L120 164 ZM35 171 L50 171 L50 68 L35 68 L35 171 ZM46 172 L210 172 L210 158 L46 158 L46 172 ZM206 171 L221 171 L221 68 L206 68 L206 171 ZM46 81 L210 81 L210 68 L46 68 L46 81 ZM46 127 L211 127 L211 113 L46 113 L46 127 ZM182 212 L196 205 Q177 183 160 163 L147 169 Q165 189 182 212 ZM72 212 Q87 199 100 185 L87 175 Q75 189 60 203 L72 212 Z" /><glyph glyph-name="" unicode="&#x5357;" d="M12 180 L244 180 L244 167 L12 167 L12 180 ZM65 81 L193 81 L193 69 L65 69 L65 81 ZM56 39 L200 39 L200 27 L56 27 L56 39 ZM121 75 L136 75 L136 -18 L121 -18 L121 75 ZM121 208 L136 208 L136 132 L121 132 L121 208 ZM27 138 L42 138 L42 -23 L27 -23 L27 138 ZM35 139 L221 139 L221 126 L35 126 L35 139 ZM214 138 L229 138 L229 7 Q229 -23 199 -23 Q183 -23 169 -22 Q168 -18 166 -7 Q182 -8 198 -8 Q214 -8 214 8 L214 138 ZM92 118 Q103 106 111 94 L99 85 Q91 97 80 110 L92 118 ZM162 119 L175 112 Q164 95 152 78 L136 78 Q150 98 162 119 Z" /><glyph glyph-name="" unicode="&#x5373;" d="M150 192 L165 192 L165 -24 L150 -24 L150 192 ZM157 192 L225 192 L225 178 L157 178 L157 192 ZM217 192 L231 192 L231 51 Q231 19 205 19 Q190 19 175 19 Q174 25 172 34 Q186 33 201 33 Q217 33 217 52 L217 192 ZM36 143 L111 143 L111 131 L36 131 L36 143 ZM37 195 L109 195 L109 182 L37 182 L37 195 ZM104 195 L119 195 L119 79 L104 79 L104 195 ZM35 91 L110 91 L110 79 L35 79 L35 91 ZM27 195 L42 195 L42 8 Q62 16 104 34 L108 20 Q66 3 43 -7 Q37 -11 31 -16 L20 -3 Q27 3 27 11 L27 195 ZM93 63 Q111 38 127 11 L114 3 Q99 30 82 56 L93 63 Z" /><glyph glyph-name="" unicode="&#x53a6;" d="M75 145 L87 145 L87 59 L75 59 L75 145 ZM80 144 L214 144 L214 134 L80 134 L80 144 ZM207 144 L220 144 L220 59 L207 59 L207 144 ZM79 70 L215 70 L215 59 L79 59 L79 70 ZM79 119 L215 119 L215 109 L79 109 L79 119 ZM79 94 L215 94 L215 84 L79 84 L79 94 ZM62 170 L235 170 L235 160 L62 160 L62 170 ZM133 168 L146 168 L139 139 L126 139 L133 168 ZM111 66 L127 66 Q102 33 61 6 Q57 11 52 16 Q90 38 111 66 ZM96 44 L204 44 L204 33 L96 33 L96 44 ZM200 44 L212 44 L212 33 Q185 -4 60 -25 Q57 -18 53 -11 Q158 1 200 36 L200 44 ZM97 36 Q117 20 144 10 Q179 -3 240 -9 Q237 -17 234 -23 Q161 -13 125 4 Q102 15 86 28 L97 36 ZM42 197 L243 197 L243 186 L42 186 L42 197 ZM35 197 L48 197 L48 92 Q48 22 21 -21 Q15 -14 11 -9 Q35 28 35 92 L35 197 Z" /><glyph glyph-name="" unicode="&#x53d1;" d="M82 106 L208 106 L208 93 L82 93 L82 106 ZM201 106 L215 106 L215 92 Q172 6 64 -25 Q60 -19 55 -11 Q161 15 201 98 L201 106 ZM36 200 L51 200 L36 153 L36 141 L21 141 L21 153 L36 200 ZM31 154 L244 154 L244 141 L31 141 L31 154 ZM84 103 L99 103 Q139 9 241 -7 Q236 -15 231 -22 Q123 2 84 103 ZM99 210 L115 207 Q100 66 27 -13 Q23 -6 18 0 Q84 70 99 210 ZM172 208 Q193 191 216 172 L205 162 Q184 181 163 199 L172 208 Z" /><glyph glyph-name="" unicode="&#x53ea;" d="M162 61 Q206 23 242 -10 L229 -23 Q191 15 151 50 L162 61 ZM89 61 L103 55 Q71 9 21 -24 Q17 -19 12 -12 Q60 19 89 61 ZM40 193 L56 193 L56 76 L40 76 L40 193 ZM49 193 L208 193 L208 179 L49 179 L49 193 ZM199 193 L215 193 L215 76 L199 76 L199 193 ZM49 90 L208 90 L208 76 L49 76 L49 90 Z" /><glyph glyph-name="" unicode="&#x53eb;" d="M211 207 L226 207 L226 -23 L211 -23 L211 207 ZM138 187 L153 187 L153 55 Q183 68 216 82 L213 66 Q176 50 150 38 Q143 34 140 32 L132 44 Q138 51 138 63 L138 187 ZM27 186 L41 186 L41 14 L27 14 L27 186 ZM36 186 L92 186 L92 172 L36 172 L36 186 ZM87 186 L101 186 L101 16 L87 16 L87 186 ZM34 49 L94 49 L94 35 L34 35 L34 49 Z" /><glyph glyph-name="" unicode="&#x53ef;" d="M11 190 L246 190 L246 176 L11 176 L11 190 ZM190 180 L205 180 L205 13 Q205 -20 174 -20 Q159 -20 134 -19 Q133 -10 131 -2 Q150 -4 171 -4 Q190 -4 190 14 L190 180 ZM37 136 L53 136 L53 42 L37 42 L37 136 ZM46 137 L132 137 L132 123 L46 123 L46 137 ZM124 137 L140 137 L140 42 L124 42 L124 137 ZM46 56 L132 56 L132 42 L46 42 L46 56 Z" /><glyph glyph-name="" unicode="&#x53f0;" d="M111 211 L127 203 Q87 159 46 125 Q111 127 205 131 Q211 125 217 118 Q127 114 47 110 Q34 109 23 107 L16 124 Q27 128 36 134 Q76 167 111 211 ZM183 177 Q214 140 243 104 L230 95 Q202 132 172 169 L183 177 ZM40 81 L55 81 L55 -23 L40 -23 L40 81 ZM48 81 L209 81 L209 66 L48 66 L48 81 ZM201 81 L217 81 L217 -23 L201 -23 L201 81 ZM45 5 L206 5 L206 -9 L45 -9 L45 5 Z" /><glyph glyph-name="" unicode="&#x53f7;" d="M10 104 L246 104 L246 91 L10 91 L10 104 ZM64 99 L80 99 L66 60 L66 49 L51 49 L51 63 L64 99 ZM59 63 L203 63 L203 49 L59 49 L59 63 ZM197 63 L212 63 Q210 37 207 19 Q203 -19 162 -19 Q136 -19 106 -18 Q105 -11 102 -1 Q134 -4 163 -4 Q189 -4 192 19 Q194 31 197 63 ZM45 198 L59 198 L59 126 L45 126 L45 198 ZM52 198 L208 198 L208 185 L52 185 L52 198 ZM201 198 L215 198 L215 126 L201 126 L201 198 ZM52 139 L208 139 L208 126 L52 126 L52 139 Z" /><glyph glyph-name="" unicode="&#x53f8;" d="M13 149 L193 149 L193 136 L13 136 L13 149 ZM27 197 L223 197 L223 183 L27 183 L27 197 ZM216 197 L232 197 L232 12 Q232 -22 203 -22 Q185 -22 158 -22 Q157 -15 154 -4 Q181 -6 197 -6 Q216 -6 216 13 L216 197 ZM37 102 L52 102 L52 15 L37 15 L37 102 ZM43 102 L152 102 L152 89 L43 89 L43 102 ZM145 102 L160 102 L160 15 L145 15 L145 102 ZM44 29 L153 29 L153 16 L44 16 L44 29 Z" /><glyph glyph-name="" unicode="&#x5404;" d="M64 183 L203 183 L203 169 L64 169 L64 183 ZM198 183 L212 183 L212 169 Q158 98 14 68 Q11 77 8 84 Q134 105 198 174 L198 183 ZM71 174 Q119 105 245 90 Q242 82 238 74 Q103 92 57 170 L71 174 ZM77 210 L91 203 Q61 155 20 117 Q19 119 13 130 Q50 163 77 210 ZM48 68 L63 68 L63 -23 L48 -23 L48 68 ZM56 68 L203 68 L203 55 L56 55 L56 68 ZM195 68 L210 68 L210 -23 L195 -23 L195 68 ZM53 2 L200 2 L200 -11 L53 -11 L53 2 Z" /><glyph glyph-name="" unicode="&#x540c;" d="M59 149 L196 149 L196 136 L59 136 L59 149 ZM26 197 L40 197 L40 -20 L26 -20 L26 197 ZM34 197 L224 197 L224 183 L34 183 L34 197 ZM216 197 L230 197 L230 3 Q230 -21 203 -21 Q190 -21 167 -20 Q166 -14 164 -6 Q186 -8 197 -8 Q216 -8 216 8 L216 197 ZM78 104 L92 104 L92 28 L78 28 L78 104 ZM85 104 L166 104 L166 92 L85 92 L85 104 ZM163 104 L177 104 L177 28 L163 28 L163 104 ZM85 40 L166 40 L166 28 L85 28 L85 40 Z" /><glyph glyph-name="" unicode="&#x540e;" d="M44 137 L245 137 L245 123 L44 123 L44 137 ZM79 80 L94 80 L94 -24 L79 -24 L79 80 ZM87 80 L213 80 L213 67 L87 67 L87 80 ZM207 80 L222 80 L222 -24 L207 -24 L207 80 ZM87 5 L213 5 L213 -8 L87 -8 L87 5 ZM225 202 L230 187 Q146 180 33 179 L33 193 Q143 193 225 202 ZM33 186 L47 186 L47 104 Q47 19 19 -23 Q14 -15 8 -10 Q33 22 33 103 L33 186 Z" /><glyph glyph-name="" unicode="&#x5411;" d="M110 210 L125 206 Q118 185 111 166 L96 166 Q104 188 110 210 ZM26 173 L42 173 L42 -20 L26 -20 L26 173 ZM35 173 L219 173 L219 159 L35 159 L35 173 ZM213 173 L229 173 L229 7 Q229 -20 202 -20 Q187 -20 168 -19 Q167 -11 165 -3 Q186 -5 201 -5 Q213 -5 213 9 L213 173 ZM79 121 L93 121 L93 35 L79 35 L79 121 ZM87 121 L168 121 L168 109 L87 109 L87 121 ZM161 121 L176 121 L176 35 L161 35 L161 121 ZM87 48 L168 48 L168 35 L87 35 L87 48 Z" /><glyph glyph-name="" unicode="&#x542f;" d="M73 77 L87 77 L87 -24 L73 -24 L73 77 ZM80 76 L223 76 L223 62 L80 62 L80 76 ZM216 77 L230 77 L230 -24 L216 -24 L216 77 ZM78 4 L221 4 L221 -10 L78 -10 L78 4 ZM44 182 L224 182 L224 169 L44 169 L44 182 ZM217 182 L232 182 L232 112 L217 112 L217 182 ZM45 125 L224 125 L224 112 L45 112 L45 125 ZM37 182 L52 182 L52 100 Q52 18 20 -24 Q15 -18 9 -12 Q37 24 37 100 L37 182 ZM129 211 Q139 195 146 181 L132 174 Q124 189 115 204 L129 211 Z" /><glyph glyph-name="" unicode="&#x544a;" d="M45 70 L60 70 L60 -22 L45 -22 L45 70 ZM53 70 L206 70 L206 57 L53 57 L53 70 ZM198 70 L213 70 L213 -22 L198 -22 L198 70 ZM50 3 L203 3 L203 -10 L50 -10 L50 3 ZM53 172 L227 172 L227 159 L53 159 L53 172 ZM13 114 L245 114 L245 100 L13 100 L13 114 ZM128 210 L143 210 L143 108 L128 108 L128 210 ZM64 206 L78 202 Q58 152 31 123 Q27 129 22 133 Q49 163 64 206 Z" /><glyph glyph-name="" unicode="&#x5458;" d="M35 106 L50 106 L50 22 L35 22 L35 106 ZM44 106 L215 106 L215 92 L44 92 L44 106 ZM206 106 L221 106 L221 24 L206 24 L206 106 ZM123 81 L139 81 Q139 69 138 55 Q136 27 119 9 Q92 -14 23 -26 Q20 -20 15 -12 Q82 -2 106 18 Q122 32 122 56 Q123 69 123 81 ZM131 30 Q195 7 240 -11 L231 -25 Q181 -3 123 18 L131 30 ZM48 198 L61 198 L61 128 L48 128 L48 198 ZM54 198 L201 198 L201 185 L54 185 L54 198 ZM194 198 L208 198 L208 128 L194 128 L194 198 ZM55 141 L202 141 L202 129 L55 129 L55 141 Z" /><glyph glyph-name="" unicode="&#x547c;" d="M23 181 L37 181 L37 9 L23 9 L23 181 ZM27 181 L78 181 L78 168 L27 168 L27 181 ZM69 181 L83 181 L83 13 L69 13 L69 181 ZM29 42 L80 42 L80 29 L29 29 L29 42 ZM96 89 L251 89 L251 75 L96 75 L96 89 ZM235 202 L239 189 Q169 181 106 176 Q104 182 102 190 Q170 194 235 202 ZM120 161 Q133 136 144 112 L131 105 Q121 129 109 156 L120 161 ZM226 165 L240 161 Q227 130 211 105 Q209 106 198 110 Q214 135 226 165 ZM164 187 L178 187 L178 7 Q178 -20 152 -20 Q138 -20 122 -19 Q121 -12 119 -4 Q136 -5 148 -6 Q164 -6 164 9 L164 187 Z" /><glyph glyph-name="" unicode="&#x547d;" d="M73 141 L184 141 L184 128 L73 128 L73 141 ZM140 210 L135 204 Q184 155 245 137 Q239 130 235 123 Q176 145 126 194 Q85 149 19 119 Q15 127 11 134 Q80 160 121 210 L140 210 ZM34 97 L46 97 L46 -3 L34 -3 L34 97 ZM39 97 L103 97 L103 84 L39 84 L39 97 ZM96 97 L108 97 L108 -3 L96 -3 L96 97 ZM39 28 L103 28 L103 15 L39 15 L39 28 ZM139 101 L153 101 L153 -25 L139 -25 L139 101 ZM146 100 L215 100 L215 87 L146 87 L146 100 ZM210 101 L223 101 L223 30 Q223 5 199 5 Q187 5 172 5 Q171 11 169 20 Q185 18 196 18 Q210 18 210 32 L210 101 Z" /><glyph glyph-name="" unicode="&#x548c;" d="M133 181 L149 181 L149 -17 L133 -17 L133 181 ZM138 180 L231 180 L231 167 L138 167 L138 180 ZM219 180 L235 180 L235 -15 L219 -15 L219 180 ZM138 17 L227 17 L227 4 L138 4 L138 17 ZM10 138 L114 138 L114 124 L10 124 L10 138 ZM54 186 L68 186 L68 -24 L54 -24 L54 186 ZM55 136 L64 134 Q49 68 18 25 Q13 30 7 34 Q40 78 55 136 ZM75 95 Q95 78 111 62 L100 51 Q84 69 65 85 L75 95 ZM107 198 L111 185 Q62 179 17 174 Q16 181 13 188 Q61 192 107 198 Z" /><glyph glyph-name="" unicode="&#x54c1;" d="M47 199 L60 199 L60 113 L47 113 L47 199 ZM53 199 L202 199 L202 183 L53 183 L53 199 ZM195 199 L209 199 L209 113 L195 113 L195 199 ZM54 129 L203 129 L203 113 L54 113 L54 129 ZM22 83 L37 83 L37 -24 L22 -24 L22 83 ZM28 84 L105 84 L105 69 L28 69 L28 84 ZM97 84 L111 84 L111 -24 L97 -24 L97 84 ZM28 9 L105 9 L105 -5 L28 -5 L28 9 ZM145 83 L159 83 L159 -24 L145 -24 L145 83 ZM151 84 L227 84 L227 69 L151 69 L151 84 ZM219 84 L233 84 L233 -24 L219 -24 L219 84 ZM150 9 L227 9 L227 -5 L150 -5 L150 9 Z" /><glyph glyph-name="" unicode="&#x5546;" d="M12 183 L245 183 L245 170 L12 170 L12 183 ZM29 131 L43 131 L43 -24 L29 -24 L29 131 ZM34 131 L219 131 L219 118 L34 118 L34 131 ZM212 132 L226 132 L226 5 Q226 -21 199 -21 Q185 -21 168 -21 Q167 -13 165 -6 Q184 -7 199 -7 Q212 -7 212 6 L212 132 ZM127 209 Q133 195 139 180 L125 175 Q120 191 114 204 L127 209 ZM83 166 Q91 156 101 142 L90 133 Q80 148 72 159 L83 166 ZM172 165 L184 158 Q172 142 159 125 L143 125 Q159 146 172 165 ZM148 111 Q178 94 207 77 L199 65 Q170 84 141 100 L148 111 ZM102 111 L113 101 Q83 78 59 62 Q55 68 50 73 Q75 89 102 111 ZM81 74 L94 74 L94 11 L81 11 L81 74 ZM89 74 L168 74 L168 61 L89 61 L89 74 ZM162 74 L175 74 L175 11 L162 11 L162 74 ZM88 23 L167 23 L167 10 L88 10 L88 23 Z" /><glyph glyph-name="" unicode="&#x5609;" d="M20 39 L115 39 L115 28 L20 28 L20 39 ZM108 38 L122 38 Q121 21 120 6 Q119 -22 97 -22 Q88 -22 72 -22 Q72 -15 69 -7 Q87 -9 96.5 -9 Q106 -9 107 5 Q108 21 108 38 ZM55 54 L68 54 Q67 27 60 12 Q51 -8 21 -25 Q17 -19 12 -14 Q40 2 48 17 Q54 29 55 54 ZM42 138 L55 138 L55 98 L42 98 L42 138 ZM49 138 L207 138 L207 127 L49 127 L49 138 ZM201 138 L214 138 L214 98 L201 98 L201 138 ZM49 109 L206 109 L206 98 L49 98 L49 109 ZM18 194 L239 194 L239 183 L18 183 L18 194 ZM34 166 L222 166 L222 156 L34 156 L34 166 ZM13 73 L244 73 L244 62 L13 62 L13 73 ZM121 209 L135 209 L135 160 L121 160 L121 209 ZM84 93 Q92 84 101 72 L91 64 Q82 77 74 87 L84 93 ZM172 93 L185 89 Q174 76 163 63 L150 65 Q162 79 172 93 ZM145 44 L158 44 L158 -21 L145 -21 L145 44 ZM152 44 L224 44 L224 32 L152 32 L152 44 ZM218 44 L231 44 L231 -20 L218 -20 L218 44 ZM153 1 L226 1 L226 -11 L153 -11 L153 1 Z" /><glyph glyph-name="" unicode="&#x5668;" d="M15 118 L241 118 L241 106 L15 106 L15 118 ZM123 138 L138 138 Q128 101 101 82 Q77 64 23 53 Q20 58 15 65 Q68 74 93 91 Q116 109 123 138 ZM135 113 Q170 72 241 67 Q236 61 230 54 Q152 66 122 113 L135 113 ZM170 141 Q182 132 192 123 L182 116 Q173 126 161 135 L170 141 ZM30 49 L43 49 L43 -21 L30 -21 L30 49 ZM37 49 L105 49 L105 36 L37 36 L37 49 ZM99 49 L112 49 L112 -20 L99 -20 L99 49 ZM38 2 L107 2 L107 -10 L38 -10 L38 2 ZM141 49 L154 49 L154 -21 L141 -21 L141 49 ZM149 49 L217 49 L217 37 L149 37 L149 49 ZM211 49 L223 49 L223 -20 L211 -20 L211 49 ZM149 2 L219 2 L219 -10 L149 -10 L149 2 ZM30 195 L42 195 L42 140 L30 140 L30 195 ZM37 195 L104 195 L104 183 L37 183 L37 195 ZM98 195 L111 195 L111 140 L98 140 L98 195 ZM37 152 L104 152 L104 140 L37 140 L37 152 ZM142 195 L155 195 L155 140 L142 140 L142 195 ZM149 195 L217 195 L217 183 L149 183 L149 195 ZM211 195 L224 195 L224 140 L211 140 L211 195 ZM149 152 L217 152 L217 140 L149 140 L149 152 Z" /><glyph glyph-name="" unicode="&#x56de;" d="M79 138 L94 138 L94 49 L79 49 L79 138 ZM87 138 L171 138 L171 125 L87 125 L87 138 ZM163 138 L178 138 L178 49 L163 49 L163 138 ZM87 62 L170 62 L170 49 L87 49 L87 62 ZM25 195 L39 195 L39 -22 L25 -22 L25 195 ZM32 195 L225 195 L225 182 L32 182 L32 195 ZM218 195 L232 195 L232 -22 L218 -22 L218 195 ZM33 1 L225 1 L225 -11 L33 -11 L33 1 Z" /><glyph glyph-name="" unicode="&#x56e2;" d="M55 137 L205 137 L205 124 L55 124 L55 137 ZM145 173 L158 173 L158 43 Q158 17 133 17 Q123 17 105 18 Q104 26 102 31 Q116 30 130 30 Q145 30 145 45 L145 173 ZM141 130 L155 130 Q123 72 55 34 Q51 40 47 48 Q107 78 141 130 ZM24 197 L38 197 L38 -24 L24 -24 L24 197 ZM31 197 L225 197 L225 184 L31 184 L31 197 ZM217 197 L232 197 L232 -24 L217 -24 L217 197 ZM32 -1 L224 -1 L224 -14 L32 -14 L32 -1 Z" /><glyph glyph-name="" unicode="&#x56fd;" d="M24 197 L38 197 L38 -24 L24 -24 L24 197 ZM31 197 L225 197 L225 184 L31 184 L31 197 ZM218 197 L233 197 L233 -24 L218 -24 L218 197 ZM32 0 L225 0 L225 -13 L32 -13 L32 0 ZM58 156 L198 156 L198 144 L58 144 L58 156 ZM62 106 L193 106 L193 94 L62 94 L62 106 ZM54 42 L202 42 L202 30 L54 30 L54 42 ZM121 151 L135 151 L135 36 L121 36 L121 151 ZM163 85 Q172 75 182 61 L170 53 Q161 68 152 78 L163 85 Z" /><glyph glyph-name="" unicode="&#x56fe;" d="M22 200 L37 200 L37 -23 L22 -23 L22 200 ZM30 200 L226 200 L226 186 L30 186 L30 200 ZM218 200 L233 200 L233 -23 L218 -23 L218 200 ZM31 0 L225 0 L225 -13 L31 -13 L31 0 ZM93 65 L97 78 Q129 73 167 66 L163 53 Q124 60 93 65 ZM68 33 L71 46 Q130 38 184 27 L179 14 Q127 24 68 33 ZM91 161 L180 161 L180 149 L91 149 L91 161 ZM174 161 L186 161 L186 149 Q141 99 55 76 Q52 82 47 88 Q127 106 174 154 L174 161 ZM92 155 Q123 104 207 94 Q204 87 202 80 Q117 91 82 147 L92 155 ZM95 181 L109 177 Q87 136 63 110 Q60 114 54 121 Q81 149 95 181 Z" /><glyph glyph-name="" unicode="&#x5728;" d="M89 97 L231 97 L231 84 L89 84 L89 97 ZM76 8 L245 8 L245 -5 L76 -5 L76 8 ZM151 146 L167 146 L167 0 L151 0 L151 146 ZM13 182 L245 182 L245 169 L13 169 L13 182 ZM48 112 L63 112 L63 -22 L48 -22 L48 112 ZM90 210 L105 206 Q73 108 17 54 Q15 59 10 67 Q63 121 90 210 Z" /><glyph glyph-name="" unicode="&#x5730;" d="M12 146 L81 146 L81 132 L12 132 L12 146 ZM42 207 L55 207 L55 21 L42 21 L42 207 ZM83 35 Q83 29 83 21 Q48 15 12 7 L10 21 Q31 25 83 35 ZM160 209 L174 209 L174 27 L160 27 L160 209 ZM234 159 Q234 111 232 81 Q230 55 208 55 Q199 55 188 56 Q187 63 186 71 Q196 69 206 69 Q217 69 218 83 Q220 109 220 142 L80 110 L77 123 L234 159 ZM101 180 L115 180 L115 21 Q115 -1 136 -1 L207 -1 Q228 -1 231 16 Q234 31 236 51 Q240 49 251 45 Q247 21 244 9 Q239 -15 210 -15 L132 -15 Q101 -15 101 18 L101 180 Z" /><glyph glyph-name="" unicode="&#x5747;" d="M11 144 L91 144 L91 130 L11 130 L11 144 ZM44 207 L59 207 L59 25 L44 25 L44 207 ZM92 47 Q93 40 93 32 Q51 19 12 5 L10 22 Q51 34 92 47 ZM125 172 L228 172 L228 158 L125 158 L125 172 ZM221 172 L236 172 Q232 70 231 24 Q230 -1 219.5 -10 Q209 -19 183 -19 Q164 -19 144 -18 Q142 -8 140 -1 Q163 -4 186 -4 Q203 -4 209 1 Q215 7 216 23 Q219 81 221 172 ZM133 209 L147 205 Q127 147 102 114 Q97 121 93 125 Q119 160 133 209 ZM138 129 Q157 114 176 97 L165 85 Q146 104 128 120 L138 129 ZM201 77 Q201 68 202 61 Q157 45 109 26 L105 42 Q155 58 201 77 Z" /><glyph glyph-name="" unicode="&#x578b;" d="M22 196 L144 196 L144 183 L22 183 L22 196 ZM12 139 L152 139 L152 127 L12 127 L12 139 ZM104 191 L118 191 L118 73 L104 73 L104 191 ZM49 188 L62 188 L62 148 Q62 99 28 68 Q26 70 18 80 Q33 92 41 110 Q49 127 49 152 L49 188 ZM166 190 L179 190 L179 110 L166 110 L166 190 ZM216 205 L229 205 L229 97 Q229 71 207 71 Q193 71 180 72 Q180 78 178 86 Q193 84 205 84 Q216 84 216 98 L216 205 ZM33 49 L223 49 L223 36 L33 36 L33 49 ZM11 0 L244 0 L244 -13 L11 -13 L11 0 ZM120 67 L136 67 L136 -7 L120 -7 L120 67 Z" /><glyph glyph-name="" unicode="&#x57fa;" d="M63 40 L192 40 L192 28 L63 28 L63 40 ZM25 0 L231 0 L231 -12 L25 -12 L25 0 ZM121 63 L135 63 L135 -6 L121 -6 L121 63 ZM18 184 L237 184 L237 172 L18 172 L18 184 ZM66 151 L190 151 L190 140 L66 140 L66 151 ZM66 119 L190 119 L190 108 L66 108 L66 119 ZM12 86 L243 86 L243 74 L12 74 L12 86 ZM60 210 L74 210 L74 79 L60 79 L60 210 ZM183 210 L197 210 L197 79 L183 79 L183 210 ZM80 76 L95 76 Q67 39 19 17 Q14 25 9 31 Q52 45 80 76 ZM164 85 Q192 45 246 31 Q241 22 239 17 Q181 37 155 80 L164 85 Z" /><glyph glyph-name="" unicode="&#x5904;" d="M155 195 L171 195 L171 19 L155 19 L155 195 ZM178 144 Q212 124 245 104 L236 88 Q203 112 170 132 L178 144 ZM43 163 L106 163 L106 150 L43 150 L43 163 ZM97 163 L111 163 L111 148 Q99 33 22 -25 Q16 -18 11 -13 Q89 45 97 154 L97 163 ZM45 138 Q64 19 138 3 Q175 -4 246 -2 Q243 -8 240 -17 Q173 -19 136 -13 Q57 4 35 116 L45 138 ZM52 210 L66 207 Q49 129 16 72 Q12 81 7 88 Q39 143 52 210 Z" /><glyph glyph-name="" unicode="&#x5907;" d="M65 188 L203 188 L203 175 L65 175 L65 188 ZM198 188 L212 188 L212 176 Q158 111 15 85 Q12 93 8 99 Q134 118 198 179 L198 188 ZM72 180 Q119 117 245 104 Q241 97 238 90 Q104 106 58 177 L72 180 ZM78 212 L91 206 Q62 163 21 128 Q20 130 13 140 Q51 170 78 212 ZM44 85 L57 85 L57 -23 L44 -23 L44 85 ZM51 85 L204 85 L204 75 L51 75 L51 85 ZM199 85 L213 85 L213 -23 L199 -23 L199 85 ZM50 -3 L204 -3 L204 -13 L50 -13 L50 -3 ZM54 41 L208 41 L208 31 L54 31 L54 41 ZM122 79 L134 79 L134 -7 L122 -7 L122 79 Z" /><glyph glyph-name="" unicode="&#x5916;" d="M162 208 L178 208 L178 -24 L162 -24 L162 208 ZM186 133 Q217 111 247 88 L234 75 Q205 101 174 122 L186 133 ZM51 167 L128 167 L128 154 L51 154 L51 167 ZM121 167 L133 167 L133 154 Q112 39 24 -23 Q20 -16 15 -11 Q100 45 121 158 L121 167 ZM61 209 L73 204 Q53 133 17 89 Q12 96 8 101 Q43 144 61 209 ZM53 104 Q74 86 97 65 L86 53 Q65 74 43 94 L53 104 Z" /><glyph glyph-name="" unicode="&#x591a;" d="M87 186 L208 186 L208 172 L87 172 L87 186 ZM205 186 L223 186 L223 172 Q144 108 24 73 Q20 81 15 87 Q132 119 205 175 L205 186 ZM124 93 L229 93 L229 79 L124 79 L124 93 ZM220 93 L235 93 L235 79 Q166 -3 30 -26 Q26 -18 22 -12 Q150 8 220 84 L220 93 ZM112 210 L132 210 Q89 164 32 132 Q27 138 21 144 Q78 175 112 210 ZM87 152 Q105 138 123 123 L112 112 Q94 129 77 143 L87 152 ZM147 112 L168 112 Q115 63 39 27 Q35 34 30 40 Q100 70 147 112 ZM110 53 Q127 38 145 22 L135 11 Q117 29 100 44 L110 53 Z" /><glyph glyph-name="" unicode="&#x5927;" d="M14 142 L242 142 L242 127 L14 127 L14 142 ZM135 141 Q151 31 243 -3 Q237 -11 232 -18 Q138 21 122 136 L135 141 ZM119 208 L136 208 Q136 174 135 139 Q135 138 133 135 Q131 132 131 131 Q131 33 22 -24 Q19 -18 12 -9 Q116 41 118 139 Q119 173 119 208 Z" /><glyph glyph-name="" unicode="&#x5929;" d="M13 116 L243 116 L243 101 L13 101 L13 116 ZM26 193 L230 193 L230 179 L26 179 L26 193 ZM135 121 Q151 23 243 -7 Q237 -14 232 -21 Q138 14 122 117 L135 121 ZM119 181 L136 181 Q136 151 135 121 Q135 119 133.5 116.5 Q132 114 132 113 Q131 26 22 -24 Q19 -18 12 -10 Q116 33 118 120 Q119 150 119 181 Z" /><glyph glyph-name="" unicode="&#x5956;" d="M15 50 L244 50 L244 39 L15 39 L15 50 ZM120 73 L136 73 Q134 43 127 29 Q108 -12 20 -26 Q17 -20 12 -13 Q95 -1 113 34 Q120 48 120 73 ZM131 52 Q153 -1 244 -11 Q238 -19 235 -25 Q158 -15 124 35 L131 52 ZM73 208 L87 208 L87 75 L73 75 L73 208 ZM140 185 L233 185 L233 172 L140 172 L140 185 ZM221 183 L233 183 L233 170 Q198 102 113 81 Q109 87 105 94 Q188 113 221 175 L221 183 ZM29 195 Q42 181 60 161 L49 152 Q32 172 20 187 L29 195 ZM76 133 Q77 123 78 120 Q52 112 16 99 L10 113 Q40 122 76 133 ZM145 210 L159 206 Q136 160 110 132 Q105 137 99 141 Q128 170 145 210 ZM148 154 Q162 141 181 122 L170 114 Q152 132 138 146 L148 154 Z" /><glyph glyph-name="" unicode="&#x5982;" d="M10 158 L106 158 L106 145 L10 145 L10 158 ZM99 158 L113 158 L113 144 Q104 75 84 40 Q59 3 19 -23 Q16 -17 11 -10 Q49 14 71 49 Q93 83 99 150 L99 158 ZM52 209 L67 206 Q55 133 37 78 Q78 46 124 9 L112 -4 Q64 40 22 73 Q41 135 52 209 ZM140 181 L154 181 L154 -16 L140 -16 L140 181 ZM144 181 L227 181 L227 167 L144 167 L144 181 ZM216 180 L231 180 L231 -14 L216 -14 L216 180 ZM144 18 L223 18 L223 5 L144 5 L144 18 Z" /><glyph glyph-name="" unicode="&#x5b57;" d="M11 67 L247 67 L247 53 L11 53 L11 67 ZM139 79 L139 3 Q139 -22 113 -23 Q100 -23 78 -22 Q77 -15 75 -8 Q98 -10 110 -10 Q125 -10 125 2 L125 86 Q150 101 176 120 L54 120 L54 132 L195 132 L195 117 Q170 100 139 79 ZM22 180 L36 180 L36 127 L22 127 L22 180 ZM28 180 L229 180 L229 166 L28 166 L28 180 ZM221 180 L235 180 L235 127 L221 127 L221 180 ZM128 210 Q136 193 142 176 L129 170 Q123 185 115 204 L128 210 Z" /><glyph glyph-name="" unicode="&#x5b58;" d="M78 72 L247 72 L247 59 L78 59 L78 72 ZM176 83 L176 4 Q176 -21 150 -23 Q137 -23 116 -22 Q115 -14 113 -8 Q135 -9 147 -9 Q161 -9 161 4 L161 90 Q186 107 211 126 L93 126 L93 139 L230 139 L230 123 Q205 105 176 83 ZM12 183 L244 183 L244 170 L12 170 L12 183 ZM48 112 L62 112 L62 -23 L48 -23 L48 112 ZM89 210 L104 206 Q72 108 16 53 Q14 58 9 66 Q63 121 89 210 Z" /><glyph glyph-name="" unicode="&#x5b83;" d="M56 132 L71 132 L71 95 L56 95 L56 132 ZM56 121 L71 121 L71 18 Q71 -2 93 -2 L185 -2 Q210 -1 214 16 Q217 27 220 49 Q226 46 235 43 Q232 27 228 11 Q221 -16 185 -16 L92 -16 Q56 -16 56 19 L56 121 ZM208 125 L217 112 Q140 72 64 51 L62 65 Q139 87 208 125 ZM20 184 L33 184 L33 136 L20 136 L20 184 ZM26 184 L231 184 L231 171 L26 171 L26 184 ZM223 184 L237 184 L237 135 L223 135 L223 184 ZM128 211 Q136 196 142 180 L128 174 Q123 188 114 205 L128 211 Z" /><glyph glyph-name="" unicode="&#x5b8c;" d="M35 130 L220 130 L220 116 L35 116 L35 130 ZM15 79 L243 79 L243 66 L15 66 L15 79 ZM84 76 L100 76 L100 63 Q100 -2 22 -24 Q18 -18 13 -11 Q84 8 84 63 L84 76 ZM147 71 L162 71 L162 10 Q162 -5 177 -5 L209 -5 Q225 -5 227 6 Q229 18 229 37 Q236 34 245 31 Q243 13 241 2 Q238 -18 212 -18 L176 -18 Q147 -19 147 11 L147 71 ZM19 185 L33 185 L33 138 L19 138 L19 185 ZM26 185 L232 185 L232 173 L26 173 L26 185 ZM224 185 L238 185 L238 138 L224 138 L224 185 ZM128 211 Q136 196 143 181 L129 175 Q123 189 114 205 L128 211 Z" /><glyph glyph-name="" unicode="&#x5b98;" d="M20 185 L34 185 L34 138 L20 138 L20 185 ZM26 185 L230 185 L230 172 L26 172 L26 185 ZM222 185 L236 185 L236 138 L222 138 L222 185 ZM127 211 Q135 196 142 181 L128 175 Q123 189 114 205 L127 211 ZM53 138 L67 138 L67 -24 L53 -24 L53 138 ZM59 138 L197 138 L197 126 L59 126 L59 138 ZM189 138 L203 138 L203 80 L189 80 L189 138 ZM57 91 L195 91 L195 79 L57 79 L57 91 ZM61 52 L206 52 L206 40 L61 40 L61 52 ZM198 52 L212 52 L212 -24 L198 -24 L198 52 ZM58 1 L203 1 L203 -11 L58 -11 L58 1 Z" /><glyph glyph-name="" unicode="&#x5b9a;" d="M15 124 L240 124 L240 111 L15 111 L15 124 ZM136 66 L225 66 L225 53 L136 53 L136 66 ZM126 117 L141 117 L141 -7 L126 -7 L126 117 ZM57 90 L70 90 Q65 8 16 -25 Q13 -22 7 -14 Q51 13 57 90 ZM58 49 Q85 -1 137 -1 Q190 -2 246 0 Q242 -10 240 -16 Q171 -16 134 -15 Q78 -14 51 37 L58 49 ZM24 185 L37 185 L37 138 L24 138 L24 185 ZM30 185 L227 185 L227 173 L30 173 L30 185 ZM220 185 L233 185 L233 138 L220 138 L220 185 ZM128 211 Q136 196 142 181 L129 175 Q123 189 115 205 L128 211 Z" /><glyph glyph-name="" unicode="&#x5b9e;" d="M14 59 L243 59 L243 46 L14 46 L14 59 ZM69 147 Q92 135 116 122 L108 109 Q84 124 61 136 L69 147 ZM49 111 Q72 98 95 85 L87 72 Q64 87 41 99 L49 111 ZM139 151 L154 151 Q154 77 144 52 Q122 -4 24 -27 Q21 -21 15 -13 Q106 5 129 54 Q140 74 139 151 ZM128 44 Q183 18 244 -12 L236 -25 Q178 6 121 33 L128 44 ZM20 185 L34 185 L34 138 L20 138 L20 185 ZM26 185 L231 185 L231 173 L26 173 L26 185 ZM224 185 L238 185 L238 137 L224 137 L224 185 ZM128 212 Q136 197 143 181 L129 175 Q123 189 115 206 L128 212 Z" /><glyph glyph-name="" unicode="&#x5ba2;" d="M23 186 L36 186 L36 140 L23 140 L23 186 ZM29 186 L229 186 L229 173 L29 173 L29 186 ZM221 186 L235 186 L235 140 L221 140 L221 186 ZM128 211 Q136 197 142 182 L129 176 Q123 190 115 206 L128 211 ZM51 48 L65 48 L65 -23 L51 -23 L51 48 ZM62 48 L196 48 L196 36 L62 36 L62 48 ZM191 48 L205 48 L205 -23 L191 -23 L191 48 ZM60 -1 L196 -1 L196 -13 L60 -13 L60 -1 ZM73 143 L198 143 L198 131 L73 131 L73 143 ZM190 143 L203 143 L203 131 Q151 72 16 54 Q12 63 9 68 Q135 80 190 135 L190 143 ZM86 161 L96 154 Q75 123 42 99 Q38 103 32 109 Q63 129 86 161 ZM67 131 L83 131 Q106 103 151 87 Q191 77 243 74 Q239 65 236 58 Q179 64 134 80 Q96 95 67 131 Z" /><glyph glyph-name="" unicode="&#x5ba4;" d="M20 185 L34 185 L34 138 L20 138 L20 185 ZM26 185 L231 185 L231 172 L26 172 L26 185 ZM224 185 L238 185 L238 138 L224 138 L224 185 ZM128 211 Q136 196 143 181 L129 175 Q123 189 115 205 L128 211 ZM45 136 L209 136 L209 123 L45 123 L45 136 ZM34 42 L223 42 L223 29 L34 29 L34 42 ZM11 -2 L245 -2 L245 -15 L11 -15 L11 -2 ZM121 77 L135 77 L135 -9 L121 -9 L121 77 ZM110 135 L123 126 Q94 102 65 82 Q134 84 193 86 L204 74 Q134 73 65 70 Q53 69 42 67 L35 82 Q45 85 55 91 Q84 111 110 135 ZM173 115 Q199 92 223 70 L213 57 Q189 82 163 103 L173 115 Z" /><glyph glyph-name="" unicode="&#x5bb9;" d="M140 127 L135 122 Q185 76 246 60 Q240 52 236 46 Q176 67 127 113 Q85 70 19 43 Q15 50 11 56 Q80 80 122 127 L140 127 ZM164 150 Q199 133 227 119 L217 107 Q188 123 155 139 L164 150 ZM91 149 L99 138 Q72 123 37 103 Q34 109 29 115 Q65 134 91 149 ZM20 181 L34 181 L34 144 L20 144 L20 181 ZM28 181 L230 181 L230 168 L28 168 L28 181 ZM221 181 L235 181 L235 144 L221 144 L221 181 ZM125 213 Q134 200 141 187 L128 182 Q121 194 113 207 L125 213 ZM52 57 L66 57 L66 -23 L52 -23 L52 57 ZM59 57 L197 57 L197 46 L59 46 L59 57 ZM190 57 L204 57 L204 -23 L190 -23 L190 57 ZM57 -1 L195 -1 L195 -13 L57 -13 L57 -1 Z" /><glyph glyph-name="" unicode="&#x5bcc;" d="M20 185 L34 185 L34 140 L20 140 L20 185 ZM26 185 L229 185 L229 173 L26 173 L26 185 ZM222 185 L236 185 L236 139 L222 139 L222 185 ZM127 210 Q135 196 142 181 L128 176 Q122 189 114 205 L127 210 ZM56 127 L69 127 L69 83 L56 83 L56 127 ZM62 127 L193 127 L193 116 L62 116 L62 127 ZM185 127 L199 127 L199 83 L185 83 L185 127 ZM62 94 L194 94 L194 83 L62 83 L62 94 ZM37 66 L50 66 L50 -22 L37 -22 L37 66 ZM41 66 L214 66 L214 55 L41 55 L41 66 ZM207 65 L220 65 L220 -22 L207 -22 L207 65 ZM45 -2 L214 -2 L214 -13 L45 -13 L45 -2 ZM43 32 L212 32 L212 21 L43 21 L43 32 ZM52 155 L204 155 L204 144 L52 144 L52 155 ZM122 62 L135 62 L135 -9 L122 -9 L122 62 Z" /><glyph glyph-name="" unicode="&#x5bf9;" d="M15 182 L104 182 L104 169 L15 169 L15 182 ZM95 182 L110 182 L110 168 Q96 54 19 -15 Q15 -8 10 -1 Q84 65 95 172 L95 182 ZM28 145 Q77 81 118 26 L104 17 Q61 80 17 138 L28 145 ZM121 158 L247 158 L247 145 L121 145 L121 158 ZM203 208 L216 208 L216 7 Q216 -19 193 -19 Q181 -19 168 -19 Q166 -11 165 -4 Q177 -5 190 -5 Q203 -5 203 10 L203 208 ZM145 113 Q157 87 167 61 L156 54 Q147 81 135 107 L145 113 Z" /><glyph glyph-name="" unicode="&#x5bfc;" d="M10 61 L247 61 L247 49 L10 49 L10 61 ZM181 77 L196 77 L196 9 Q196 -20 169 -20 Q154 -20 137 -20 Q136 -13 134 -5 Q153 -6 166 -6 Q181 -6 181 9 L181 77 ZM66 39 Q84 26 102 11 L91 1 Q74 17 57 30 L66 39 ZM45 197 L201 197 L201 184 L45 184 L45 197 ZM194 197 L208 197 L208 136 L194 136 L194 197 ZM43 149 L199 149 L199 136 L43 136 L43 149 ZM37 197 L51 197 L51 117 Q51 102 69 102 L202 102 Q221 104 224 116 Q226 125 229 141 Q235 137 243 134 Q240 121 237 111 Q231 90 202 90 L67 90 Q37 90 37 118 L37 197 Z" /><glyph glyph-name="" unicode="&#x5c06;" d="M83 78 L246 78 L246 66 L83 66 L83 78 ZM122 181 L230 181 L230 169 L122 169 L122 181 ZM222 181 L234 181 L234 168 Q198 119 91 91 Q89 96 85 103 Q176 124 222 172 L222 181 ZM150 209 L159 201 Q131 171 87 143 Q84 148 79 153 Q119 176 150 209 ZM131 153 Q149 141 166 127 L156 118 Q139 133 122 145 L131 153 ZM197 108 L211 108 L211 7 Q211 -20 187 -20 Q174 -20 157 -20 Q156 -12 154 -4 Q171 -6 184 -6 Q197 -6 197 8 L197 108 ZM120 56 Q133 42 151 23 L140 14 Q124 33 111 48 L120 56 ZM53 208 L66 208 L66 -25 L53 -25 L53 208 ZM20 167 Q33 142 43 118 L31 111 Q21 135 9 162 L20 167 ZM58 89 Q61 80 63 75 Q36 47 14 25 L6 38 Q32 63 58 89 Z" /><glyph glyph-name="" unicode="&#x5c0f;" d="M122 206 L138 206 L138 6 Q138 -20 109 -20 Q94 -20 77 -20 Q75 -12 73 -5 Q88 -6 105 -6 Q122 -6 122 9 L122 206 ZM64 153 L79 147 Q57 83 27 27 Q20 31 12 36 Q39 82 64 153 ZM188 152 Q217 98 245 38 L230 31 Q203 88 174 146 L188 152 Z" /><glyph glyph-name="" unicode="&#x5c11;" d="M120 208 L135 208 L135 60 L120 60 L120 208 ZM67 173 L81 169 Q60 116 33 70 Q27 74 20 77 Q44 115 67 173 ZM180 176 Q217 137 243 107 L232 94 Q208 124 172 166 L180 176 ZM197 93 L211 86 Q147 9 21 -24 Q17 -17 12 -11 Q138 20 197 93 Z" /><glyph glyph-name="" unicode="&#x5c31;" d="M130 140 L239 140 L239 127 L130 127 L130 140 ZM156 209 L169 209 Q169 178 168 156 Q167 97 161 65 Q152 16 116 -24 Q112 -18 107 -12 Q143 27 150 77 Q154 101 155 156 Q156 177 156 209 ZM183 132 L196 132 L196 7 Q196 -4 206 -4 L218 -4 Q228 -4 230 9.5 Q232 23 233 45 Q241 41 246 39 Q245 21 243 7 Q240 -17 217 -17 L205 -17 Q183 -17 183 5 L183 132 ZM196 196 Q213 183 230 170 L220 160 Q203 175 187 188 L196 196 ZM27 138 L40 138 L40 75 L27 75 L27 138 ZM29 138 L116 138 L116 127 L29 127 L29 138 ZM106 138 L119 138 L119 75 L106 75 L106 138 ZM30 87 L116 87 L116 76 L30 76 L30 87 ZM13 176 L132 176 L132 164 L13 164 L13 176 ZM66 80 L79 80 L79 1 Q79 -20 60 -20 Q52 -20 41 -19 Q41 -13 39 -6 Q48 -7 57 -7 Q66 -7 66 2 L66 80 ZM37 58 Q44 54 48 51 Q36 28 23 2 L12 9 Q26 31 37 58 ZM103 59 Q110 47 121 29 L109 23 Q101 37 93 53 L103 59 ZM73 210 Q78 197 84 183 L71 178 Q66 193 61 206 L73 210 Z" /><glyph glyph-name="" unicode="&#x5c40;" d="M42 115 L223 115 L223 102 L42 102 L42 115 ZM218 115 L233 115 Q231 49 230 29 Q228 2 220 -8 Q210 -20 182 -20 Q167 -20 148 -18 Q147 -7 145 -2 Q171 -6 187 -6 Q203 -6 209 2 Q214 8 216 28 Q217 54 218 115 ZM80 77 L94 77 L94 20 L80 20 L80 77 ZM88 77 L174 77 L174 65 L88 65 L88 77 ZM167 77 L181 77 L181 20 L167 20 L167 77 ZM88 31 L173 31 L173 20 L88 20 L88 31 ZM45 197 L224 197 L224 186 L45 186 L45 197 ZM216 197 L228 197 L228 147 L216 147 L216 197 ZM46 158 L224 158 L224 147 L46 147 L46 158 ZM36 197 L49 197 L49 97 Q49 19 22 -22 Q18 -16 12 -10 Q35 26 36 96 L36 197 Z" /><glyph glyph-name="" unicode="&#x5c42;" d="M182 35 Q210 10 239 -16 L230 -27 Q202 0 173 26 L182 35 ZM131 59 L146 52 Q119 19 96 -2 Q151 0 206 3 L211 -8 Q140 -11 100 -14 Q87 -15 79 -18 L72 -3 Q80 0 89 8 Q111 29 131 59 ZM50 198 L228 198 L228 185 L50 185 L50 198 ZM219 198 L233 198 L233 127 L219 127 L219 198 ZM49 140 L227 140 L227 127 L49 127 L49 140 ZM40 198 L55 198 L55 119 Q54 29 22 -22 Q17 -16 10 -9 Q39 33 40 119 L40 198 ZM81 104 L223 104 L223 91 L81 91 L81 104 ZM60 60 L246 60 L246 47 L60 47 L60 60 Z" /><glyph glyph-name="" unicode="&#x5c4f;" d="M65 101 L231 101 L231 89 L65 89 L65 101 ZM40 51 L245 51 L245 39 L40 39 L40 51 ZM177 97 L190 97 L190 -24 L177 -24 L177 97 ZM108 135 Q116 126 126 112 L115 104 Q106 118 98 128 L108 135 ZM105 96 L118 96 L118 55 Q118 6 84 -26 Q83 -24 74 -14 Q89 -2 97 17 Q105 34 105 59 L105 96 ZM186 135 L197 128 Q185 109 168 90 L158 97 Q174 117 186 135 ZM43 195 L226 195 L226 183 L43 183 L43 195 ZM219 195 L232 195 L232 136 L219 136 L219 195 ZM42 148 L226 148 L226 136 L42 136 L42 148 ZM37 195 L51 195 L51 96 Q51 20 22 -21 Q17 -15 11 -9 Q37 27 37 95 L37 195 Z" /><glyph glyph-name="" unicode="&#x5c5e;" d="M144 127 L156 127 L156 9 L144 9 L144 127 ZM229 135 L232 125 Q144 121 68 121 Q67 125 65 132 Q145 131 229 135 ZM199 15 Q198 10 198 6 Q147 4 95 2 L93 12 Q147 13 199 15 ZM193 28 Q199 18 207 3 L197 -2 Q192 10 185 23 L193 28 ZM79 104 L92 104 L92 66 L79 66 L79 104 ZM84 104 L217 104 L217 94 L84 94 L84 104 ZM208 104 L221 104 L221 66 L208 66 L208 104 ZM84 76 L217 76 L217 66 L84 66 L84 76 ZM68 47 L80 47 L80 -23 L68 -23 L68 47 ZM73 47 L237 47 L237 36 L73 36 L73 47 ZM225 44 L237 44 L237 -1 Q237 -22 218 -22 Q209 -23 197 -23 Q196 -17 194 -11 Q207 -11 215 -11 Q225 -11 225 -1 L225 44 ZM45 199 L228 199 L228 189 L45 189 L45 199 ZM220 200 L232 200 L232 149 L220 149 L220 200 ZM46 160 L228 160 L228 149 L46 149 L46 160 ZM36 199 L49 199 L49 100 Q49 23 22 -19 Q17 -12 12 -6 Q35 30 36 99 L36 199 Z" /><glyph glyph-name="" unicode="&#x5de5;" d="M27 188 L229 188 L229 173 L27 173 L27 188 ZM13 8 L242 8 L242 -7 L13 -7 L13 8 ZM120 178 L136 178 L136 0 L120 0 L120 178 Z" /><glyph glyph-name="" unicode="&#x5df1;" d="M33 194 L211 194 L211 180 L33 180 L33 194 ZM202 194 L218 194 L218 99 L202 99 L202 194 ZM45 113 L211 113 L211 99 L45 99 L45 113 ZM38 113 L54 113 L54 24 Q54 0 76 0 L198 0 Q220 0 224 14 Q226 26 230 51 Q238 47 246 45 Q242 21 239 9 Q232 -15 202 -15 L74 -15 Q38 -15 38 22 L38 113 Z" /><glyph glyph-name="" unicode="&#x5df2;" d="M27 194 L211 194 L211 179 L27 179 L27 194 ZM202 194 L218 194 L218 96 L202 96 L202 194 ZM44 110 L213 110 L213 96 L44 96 L44 110 ZM36 137 L51 137 L51 18 Q51 0 68 0 L199 0 Q218 0 222 14 Q225 28 227 44 Q235 41 242 39 Q239 20 236 7 Q230 -14 200 -14 L65 -14 Q36 -14 36 15 L36 137 Z" /><glyph glyph-name="" unicode="&#x5e02;" d="M14 172 L243 172 L243 159 L14 159 L14 172 ZM126 211 Q138 194 145 184 L132 175 Q129 181 115 203 L126 211 ZM121 166 L135 166 L135 -24 L121 -24 L121 166 ZM34 116 L49 116 L49 1 L34 1 L34 116 ZM41 116 L223 116 L223 104 L41 104 L41 116 ZM209 106 L223 106 L223 30 Q223 2 197 2 Q180 2 163 3 Q162 9 160 17 Q179 16 193 16 Q209 16 209 30 L209 106 Z" /><glyph glyph-name="" unicode="&#x5e38;" d="M121 89 L135 89 L135 -24 L121 -24 L121 89 ZM33 58 L47 58 L47 -6 L33 -6 L33 58 ZM39 58 L224 58 L224 46 L39 46 L39 58 ZM211 50 L224 50 L224 18 Q224 -5 203 -6 Q188 -6 167 -6 Q166 2 164 9 Q181 8 199 8 Q210 8 211 18 L211 50 ZM55 133 L69 133 L69 84 L55 84 L55 133 ZM61 133 L195 133 L195 122 L61 122 L61 133 ZM188 133 L202 133 L202 84 L188 84 L188 133 ZM59 96 L196 96 L196 84 L59 84 L59 96 ZM20 167 L35 167 L35 128 L20 128 L20 167 ZM30 167 L230 167 L230 155 L30 155 L30 167 ZM222 167 L237 167 L237 128 L222 128 L222 167 ZM121 209 L135 209 L135 163 L121 163 L121 209 ZM52 207 Q70 194 88 180 L77 170 Q60 186 43 199 L52 207 ZM207 206 L216 197 Q199 184 176 169 L169 179 Q191 194 207 206 Z" /><glyph glyph-name="" unicode="&#x5e55;" d="M13 193 L243 193 L243 185 L13 185 L13 193 ZM77 210 L91 210 L91 170 L77 170 L77 210 ZM164 210 L179 210 L179 172 L164 172 L164 210 ZM44 162 L57 162 L57 96 L44 96 L44 162 ZM51 162 L207 162 L207 152 L51 152 L51 162 ZM199 162 L212 162 L212 96 L199 96 L199 162 ZM51 107 L207 107 L207 96 L51 96 L51 107 ZM50 135 L206 135 L206 124 L50 124 L50 135 ZM16 77 L240 77 L240 66 L16 66 L16 77 ZM121 69 L134 69 L134 -25 L121 -25 L121 69 ZM55 41 L67 41 L67 -9 L55 -9 L55 41 ZM57 41 L202 41 L202 30 L57 30 L57 41 ZM190 33 L202 33 L202 14 Q202 -8 181 -8 Q174 -8 157 -7 Q157 -1 156 6 Q167 4 179 4 Q190 4 190 16 L190 33 ZM103 107 L116 102 Q85 51 19 19 Q15 24 9 30 Q76 58 103 107 ZM164 74 L179 74 Q205 46 246 33 Q242 27 238 20 Q193 38 164 74 Z" /><glyph glyph-name="" unicode="&#x5e72;" d="M29 192 L226 192 L226 177 L29 177 L29 192 ZM10 103 L246 103 L246 88 L10 88 L10 103 ZM119 184 L135 184 L135 -24 L119 -24 L119 184 Z" /><glyph glyph-name="" unicode="&#x5e74;" d="M50 122 L64 122 L64 48 L50 48 L50 122 ZM55 122 L231 122 L231 108 L55 108 L55 122 ZM11 52 L247 52 L247 38 L11 38 L11 52 ZM57 182 L236 182 L236 169 L57 169 L57 182 ZM135 175 L150 175 L150 -25 L135 -25 L135 175 ZM63 211 L78 206 Q54 151 25 117 Q19 122 13 128 Q44 163 63 211 Z" /><glyph glyph-name="" unicode="&#x5e76;" d="M184 209 L197 201 Q179 178 162 157 L149 163 Q167 185 184 209 ZM74 208 Q89 195 102 180 L89 169 Q77 185 62 199 L74 208 ZM21 165 L234 165 L234 151 L21 151 L21 165 ZM11 87 L245 87 L245 73 L11 73 L11 87 ZM167 155 L183 155 L183 -24 L167 -24 L167 155 ZM75 162 L90 162 L90 94 Q90 45 79 22 Q67 -2 33 -25 Q28 -19 23 -13 Q54 8 65 30 Q75 50 75 94 L75 162 Z" /><glyph glyph-name="" unicode="&#x5e7f;" d="M53 173 L242 173 L242 159 L53 159 L53 173 ZM44 173 L58 173 L58 96 Q58 17 24 -21 Q19 -15 12 -9 Q44 25 44 95 L44 173 ZM142 210 Q156 193 163 182 L149 173 Q145 180 130 202 L142 210 Z" /><glyph glyph-name="" unicode="&#x5e94;" d="M55 4 L243 4 L243 -10 L55 -10 L55 4 ZM82 127 Q97 81 110 32 L95 28 Q82 78 69 122 L82 127 ZM138 138 Q152 93 164 44 L150 40 Q138 90 125 134 L138 138 ZM206 134 L222 129 Q201 59 182 0 L166 0 Q189 67 206 134 ZM42 179 L241 179 L241 166 L42 166 L42 179 ZM34 179 L48 179 L48 87 Q48 15 20 -23 Q15 -17 9 -11 Q34 22 34 86 L34 179 ZM136 211 Q144 197 151 184 L136 177 Q129 191 122 205 L136 211 Z" /><glyph glyph-name="" unicode="&#x5ea6;" d="M94 160 L109 160 L109 88 L94 88 L94 160 ZM101 100 L189 100 L189 88 L101 88 L101 100 ZM181 161 L196 161 L196 88 L181 88 L181 161 ZM59 141 L240 141 L240 129 L59 129 L59 141 ZM64 66 L209 66 L209 54 L64 54 L64 66 ZM203 66 L216 66 L216 54 Q169 -4 56 -24 Q52 -17 49 -11 Q156 8 203 58 L203 66 ZM86 55 L100 55 Q121 26 161 10 Q197 -1 244 -4 Q240 -13 238 -20 Q187 -14 146 2 Q112 18 86 55 ZM42 179 L243 179 L243 166 L42 166 L42 179 ZM33 179 L48 179 L48 86 Q48 15 19 -23 Q14 -17 8 -11 Q33 22 33 86 L33 179 ZM137 211 Q145 196 152 184 L137 177 Q130 191 123 205 L137 211 Z" /><glyph glyph-name="" unicode="&#x5ea7;" d="M39 179 L239 179 L239 166 L39 166 L39 179 ZM30 179 L45 179 L45 87 Q45 16 16 -22 Q11 -16 5 -11 Q30 22 30 86 L30 179 ZM133 211 Q142 196 148 184 L133 177 Q126 191 119 204 L133 211 ZM64 51 L233 51 L233 38 L64 38 L64 51 ZM48 -2 L245 -2 L245 -15 L48 -15 L48 -2 ZM140 158 L155 158 L155 -6 L140 -6 L140 158 ZM87 148 L101 144 Q91 103 63 69 Q59 73 53 78 Q78 109 87 148 ZM87 122 Q108 105 130 85 L119 74 Q99 94 78 113 L87 122 ZM199 147 L213 144 Q203 102 175 67 Q170 72 164 77 Q190 108 199 147 ZM199 120 Q220 103 242 83 L231 72 Q211 92 190 111 L199 120 Z" /><glyph glyph-name="" unicode="&#x5f00;" d="M21 191 L234 191 L234 175 L21 175 L21 191 ZM11 103 L245 103 L245 87 L11 87 L11 103 ZM167 180 L183 180 L183 -24 L167 -24 L167 180 ZM75 188 L90 188 L90 110 Q90 54 79 28 Q67 1 33 -26 Q28 -18 23 -12 Q54 13 65 37 Q75 60 75 111 L75 188 Z" /><glyph glyph-name="" unicode="&#x5f02;" d="M11 49 L244 49 L244 36 L11 36 L11 49 ZM178 77 L193 77 L193 -24 L178 -24 L178 77 ZM71 77 L86 77 L86 50 Q86 1 33 -25 Q29 -19 24 -10 Q71 11 71 50 L71 77 ZM45 198 L201 198 L201 185 L45 185 L45 198 ZM194 198 L208 198 L208 136 L194 136 L194 198 ZM43 149 L199 149 L199 136 L43 136 L43 149 ZM37 198 L51 198 L51 117 Q51 101 69 101 L202 101 Q221 103 224 116 Q227 125 229 142 Q236 137 243 134 Q240 121 237 111 Q231 90 202 90 L67 90 Q37 90 37 118 L37 198 Z" /><glyph glyph-name="" unicode="&#x5f0f;" d="M20 103 L134 103 L134 90 L20 90 L20 103 ZM69 95 L86 95 L86 12 L69 12 L69 95 ZM139 35 Q140 27 141 19 Q76 6 16 -8 L13 9 Q76 21 139 35 ZM10 163 L243 163 L243 149 L10 149 L10 163 ZM147 209 L161 209 Q162 171 164 131 Q167 76 177 46 Q184 20 204 -1 Q212 -7 217.5 -7 Q223 -7 226 3 Q230 20 232 41 Q238 37 246 34 Q242 12 238 -3 Q233 -22 218 -22 Q207 -22 196 -13 Q175 6 164 39 Q153 75 150 129 Q148 162 147 209 ZM196 207 Q212 195 225 184 L214 173 Q200 186 186 198 L196 207 Z" /><glyph glyph-name="" unicode="&#x5f1f;" d="M72 211 Q86 198 98 185 L86 175 Q75 189 61 202 L72 211 ZM175 210 L188 203 Q177 188 165 175 L152 182 Q164 196 175 210 ZM121 169 L136 169 L136 -26 L121 -26 L121 169 ZM31 174 L217 174 L217 160 L31 160 L31 174 ZM211 174 L225 174 L225 112 L211 112 L211 174 ZM39 126 L219 126 L219 112 L39 112 L39 126 ZM36 126 L51 126 L38 76 L38 63 L24 63 L24 80 L36 126 ZM33 77 L230 77 L230 63 L33 63 L33 77 ZM223 77 L238 77 Q237 44 236 23 Q234 -4 208 -5 Q190 -5 172 -5 Q171 4 169 10 Q194 9 206 10 Q220 11 221 27 Q222 45 223 77 ZM112 72 L126 72 Q90 15 16 -21 Q12 -15 6 -9 Q71 19 112 72 Z" /><glyph glyph-name="" unicode="&#x5f52;" d="M26 189 L41 189 L41 36 L26 36 L26 189 ZM75 207 L91 207 L91 122 Q91 74 84 42 Q74 3 50 -25 Q44 -19 37 -13 Q60 13 69 47 Q75 77 75 123 L75 207 ZM111 189 L223 189 L223 176 L111 176 L111 189 ZM217 189 L231 189 L231 -15 L217 -15 L217 189 ZM101 11 L222 11 L222 -2 L101 -2 L101 11 ZM117 102 L224 102 L224 90 L117 90 L117 102 Z" /><glyph glyph-name="" unicode="&#x5f53;" d="M27 119 L217 119 L217 105 L27 105 L27 119 ZM212 119 L227 119 L227 -25 L212 -25 L212 119 ZM34 61 L222 61 L222 48 L34 48 L34 61 ZM19 3 L219 3 L219 -11 L19 -11 L19 3 ZM121 209 L136 209 L136 110 L121 110 L121 209 ZM42 194 Q58 176 80 150 L67 138 Q46 164 30 184 L42 194 ZM221 194 L231 181 Q206 159 184 138 L174 153 Q199 173 221 194 Z" /><glyph glyph-name="" unicode="&#x5f55;" d="M43 155 L200 155 L200 142 L43 142 L43 155 ZM13 113 L245 113 L245 100 L13 100 L13 113 ZM38 196 L202 196 L202 183 L38 183 L38 196 ZM194 196 L209 196 L207 106 L192 106 L194 196 ZM121 111 L136 111 L136 8 Q136 -19 111 -19 Q98 -19 81 -19 Q80 -12 77 -3 Q95 -5 108 -5 Q121 -5 121 9 L121 111 ZM37 87 Q65 73 86 60 L78 47 Q56 62 29 77 L37 87 ZM111 47 Q111 38 112 32 Q64 18 14 0 L9 15 Q62 30 111 47 ZM217 85 L226 72 Q196 56 161 39 L153 49 Q187 66 217 85 ZM134 106 Q154 32 245 10 Q240 3 233 -5 Q141 22 122 104 L134 106 Z" /><glyph glyph-name="" unicode="&#x5fae;" d="M37 99 L48 99 L48 -24 L37 -24 L37 99 ZM11 74 Q36 104 54 143 L66 138 Q43 91 16 59 Q14 67 11 74 ZM10 148 Q36 173 53 206 L65 201 Q46 164 17 136 Q14 142 10 148 ZM76 186 L88 186 L88 132 L76 132 L76 186 ZM84 144 L153 144 L153 132 L84 132 L84 144 ZM147 187 L159 187 L159 132 L147 132 L147 187 ZM184 163 L246 163 L246 151 L184 151 L184 163 ZM82 106 L154 106 L154 94 L82 94 L82 106 ZM111 205 L124 205 L124 136 L111 136 L111 205 ZM83 68 L144 68 L144 56 L83 56 L83 68 ZM83 62 L96 62 L96 35 Q96 7 75 -17 Q71 -12 65 -7 Q83 11 83 35 L83 62 ZM132 65 L145 65 L145 24 Q155 33 170 46 Q172 37 173 31 Q160 21 145 8 Q140 3 137 -1 L127 10 Q132 16 132 27 L132 65 ZM196 209 L207 204 Q190 147 168 96 Q163 100 157 104 Q177 146 196 209 ZM223 155 L236 155 Q233 110 225 80 Q210 19 158 -24 Q155 -18 150 -12 Q199 26 213 82 Q221 111 223 155 ZM191 154 Q195 29 251 -11 Q246 -17 240 -24 Q183 24 178 153 L191 154 Z" /><glyph glyph-name="" unicode="&#x5fc3;" d="M76 162 L93 162 L93 19 Q93 1 114 1 L159 1 Q179 1 182.5 17 Q186 33 187 53 Q196 49 204 47 Q201 29 198 13 Q192 -14 160 -14 L110 -14 Q76 -14 76 17 L76 162 ZM206 144 Q227 100 244 56 L229 49 Q213 95 192 138 L206 144 ZM121 211 Q143 175 159 141 L145 134 Q128 170 108 204 L121 211 ZM38 135 L53 131 Q40 80 25 41 Q16 45 11 47 Q30 94 38 135 Z" /><glyph glyph-name="" unicode="&#x5feb;" d="M99 167 L214 167 L214 154 L99 154 L99 167 ZM206 167 L220 167 L220 86 L206 86 L206 167 ZM86 90 L241 90 L241 77 L86 77 L86 90 ZM149 208 L164 208 Q163 113 160 83 Q151 18 84 -24 Q79 -17 73 -11 Q136 27 145 81 Q149 105 149 208 ZM154 86 L166 86 Q187 20 244 -6 Q239 -14 234 -23 Q174 15 154 86 ZM44 208 L58 208 L58 -24 L44 -24 L44 208 ZM19 150 L31 146 Q27 122 20 93 L8 98 Q15 124 19 150 ZM69 164 Q83 145 92 130 L81 122 Q70 139 57 157 L69 164 Z" /><glyph glyph-name="" unicode="&#x5ff5;" d="M54 114 L186 114 L186 101 L54 101 L54 114 ZM177 115 L193 115 L193 101 Q180 78 166 55 Q159 59 153 62 Q164 78 177 103 L177 115 ZM142 210 L137 205 Q183 157 245 132 Q240 126 236 119 Q175 147 128 195 Q86 147 20 117 Q16 123 11 130 Q82 162 122 210 L142 210 ZM116 160 Q131 147 144 136 L133 126 Q121 139 107 151 L116 160 ZM70 52 L86 52 L86 12 Q86 -1 101 -1 L155 -1 Q172 -1 175 11 Q177 19 178 30 Q185 27 192 25 Q190 12 188 4 Q182 -15 156 -15 L98 -15 Q70 -15 70 11 L70 52 ZM118 70 Q132 56 152 37 L140 28 Q121 47 107 62 L118 70 ZM210 57 Q229 35 247 13 L234 4 Q217 27 198 49 L210 57 ZM30 52 L44 47 Q34 18 21 -4 Q15 0 8 4 Q24 30 30 52 Z" /><glyph glyph-name="" unicode="&#x606f;" d="M71 40 L86 40 L86 5 Q86 -7 102 -7 L156 -7 Q173 -7 176 4 Q178 11 179 21 Q186 18 193 16 Q191 5 189 -2 Q183 -19 158 -19 L99 -19 Q71 -19 71 4 L71 40 ZM119 55 Q133 43 153 26 L141 18 Q122 36 108 48 L119 55 ZM211 44 Q231 25 249 5 L235 -3 Q218 18 199 37 L211 44 ZM31 40 L44 36 Q34 10 21 -9 Q15 -5 9 -2 Q25 20 31 40 ZM41 185 L55 185 L55 63 L41 63 L41 185 ZM49 185 L204 185 L204 172 L49 172 L49 185 ZM199 185 L212 185 L212 63 L199 63 L199 185 ZM51 77 L203 77 L203 63 L51 63 L51 77 ZM51 149 L202 149 L202 136 L51 136 L51 149 ZM51 113 L203 113 L203 100 L51 100 L51 113 ZM107 210 L120 206 Q116 194 112 181 L98 181 Q103 195 107 210 Z" /><glyph glyph-name="" unicode="&#x6084;" d="M44 207 L57 207 L57 -23 L44 -23 L44 207 ZM19 149 L31 146 Q27 122 20 94 L8 99 Q15 124 19 149 ZM68 164 Q82 145 91 130 L80 122 Q69 139 57 156 L68 164 ZM105 93 L229 93 L229 80 L105 80 L105 93 ZM107 46 L228 46 L228 33 L107 33 L107 46 ZM161 210 L175 210 L175 133 L161 133 L161 210 ZM100 141 L114 141 L114 -23 L100 -23 L100 141 ZM108 141 L227 141 L227 128 L108 128 L108 141 ZM221 141 L235 141 L235 6 Q235 -21 208 -21 Q191 -21 177 -21 Q176 -12 174 -6 Q192 -7 209 -7 Q221 -7 221 9 L221 141 ZM106 200 Q125 182 139 166 L127 157 Q113 174 96 192 L106 200 ZM229 201 L240 192 Q222 172 203 155 L193 165 Q211 181 229 201 Z" /><glyph glyph-name="" unicode="&#x60c5;" d="M41 208 L54 208 L54 -24 L41 -24 L41 208 ZM19 150 L30 147 Q26 122 20 94 L9 99 Q15 125 19 150 ZM64 164 Q76 146 85 131 L74 122 Q65 139 53 157 L64 164 ZM87 190 L241 190 L241 178 L87 178 L87 190 ZM94 158 L234 158 L234 146 L94 146 L94 158 ZM81 126 L247 126 L247 114 L81 114 L81 126 ZM105 63 L220 63 L220 52 L105 52 L105 63 ZM106 31 L221 31 L221 19 L106 19 L106 31 ZM157 210 L171 210 L171 120 L157 120 L157 210 ZM98 96 L112 96 L112 -22 L98 -22 L98 96 ZM105 96 L228 96 L228 84 L105 84 L105 96 ZM214 87 L228 87 L228 4 Q228 -22 199 -22 Q188 -22 167 -21 Q166 -15 163 -7 Q183 -8 198 -8 Q214 -8 214 7 L214 87 Z" /><glyph glyph-name="" unicode="&#x610f;" d="M212 36 Q226 23 246 3 L234 -6 Q216 14 202 28 L212 36 ZM125 42 Q139 31 150 19 L139 10 Q128 22 114 34 L125 42 ZM33 35 L46 31 Q36 7 24 -12 Q18 -8 11 -5 Q27 16 33 35 ZM73 33 L88 33 L88 2 Q88 -9 103 -9 L156 -9 Q172 -9 175 1 Q176 7 177 16 Q184 13 191 11 Q189 1 187 -5 Q181 -20 157 -20 L101 -20 Q73 -20 73 1 L73 33 ZM43 120 L57 120 L57 45 L43 45 L43 120 ZM49 119 L205 119 L205 108 L49 108 L49 119 ZM197 120 L211 120 L211 45 L197 45 L197 120 ZM50 56 L205 56 L205 45 L50 45 L50 56 ZM50 87 L205 87 L205 77 L50 77 L50 87 ZM21 189 L235 189 L235 178 L21 178 L21 189 ZM12 147 L244 147 L244 136 L12 136 L12 147 ZM130 212 Q136 199 141 185 L128 180 Q123 195 117 208 L130 212 ZM74 175 Q86 163 97 151 L86 141 Q76 154 64 167 L74 175 ZM176 175 L190 169 Q178 153 166 138 L151 138 Q165 156 176 175 Z" /><glyph glyph-name="" unicode="&#x611f;" d="M62 147 L145 147 L145 135 L62 135 L62 147 ZM160 208 L175 208 Q175 195 176 176 Q179 103 200 74 Q207 64 215 63 Q220 64 222 72 Q225 81 227 98 Q231 97 241 93 Q238 75 235 65 Q230 49 215 50 Q199 50 187 67 Q164 103 161 176 Q161 176 160 208 ZM218 147 L229 140 Q198 86 150 45 Q145 51 141 55 Q189 96 218 147 ZM199 211 Q209 203 221 193 L211 184 Q201 194 190 203 L199 211 ZM69 116 L81 116 L81 66 L69 66 L69 116 ZM75 116 L134 116 L134 105 L75 105 L75 116 ZM128 116 L140 116 L140 66 L128 66 L128 116 ZM75 76 L134 76 L134 66 L75 66 L75 76 ZM42 180 L241 180 L241 169 L42 169 L42 180 ZM35 181 L49 181 L49 130 Q49 75 22 44 Q17 49 11 53 Q35 78 35 131 L35 181 ZM212 45 Q226 29 245 7 L233 -4 Q216 19 202 36 L212 45 ZM126 52 Q140 38 151 25 L140 14 Q129 29 116 43 L126 52 ZM36 44 L49 39 Q40 11 27 -10 Q21 -6 15 -3 Q30 22 36 44 ZM76 41 L91 41 L91 5 Q91 -7 105 -7 L157 -7 Q173 -7 175 4 Q177 11 178 21 Q185 18 192 16 Q190 5 188 -3 Q182 -20 158 -20 L103 -20 Q76 -20 76 4 L76 41 Z" /><glyph glyph-name="" unicode="&#x6210;" d="M43 112 L113 112 L113 98 L43 98 L43 112 ZM105 112 L120 112 Q119 67 116 37 Q114 5 86 5 Q77 5 61 6 Q60 15 58 22 Q73 20 86.5 20 Q100 20 101 38 Q103 66 105 112 ZM43 167 L243 167 L243 153 L43 153 L43 167 ZM35 167 L50 167 L50 90 Q50 15 18 -23 Q13 -18 7 -11 Q35 22 35 90 L35 167 ZM144 208 L159 208 Q160 171 162 131 Q165 76 176 46 Q184 19 205 -1 Q213 -7 219 -7 Q225 -7 228 3 Q233 20 235 41 Q241 37 249 34 Q245 12 241 -2 Q235 -22 220 -22 Q208 -22 196 -12 Q174 5 162 39 Q150 74 147 128 Q145 162 144 208 ZM211 123 L227 119 Q197 29 127 -23 Q120 -18 114 -13 Q185 38 211 123 ZM188 210 Q208 199 228 186 L221 174 Q200 188 181 199 L188 210 Z" /><glyph glyph-name="" unicode="&#x6211;" d="M9 137 L247 137 L247 121 L9 121 L9 137 ZM116 198 L120 182 Q67 175 19 170 Q18 178 15 187 Q67 191 116 198 ZM64 182 L78 182 L78 15 Q78 -20 51 -20 Q37 -20 21 -20 Q19 -9 17 0 Q36 -2 51 -2 Q64 -2 64 16 L64 182 ZM128 92 Q127 83 127 73 Q64 59 11 46 L7 64 Q69 76 128 92 ZM142 205 L156 205 Q157 152 161 108 Q173 20 206 -2 Q220 -9 222 8 Q225 27 228 53 Q235 49 243 47 Q239 19 236 2 Q230 -23 214 -23 Q204 -23 195 -15 Q159 11 147 108 Q144 143 142 205 ZM227 104 L236 90 Q177 30 101 -4 Q98 6 94 14 Q176 47 227 104 ZM192 202 Q212 183 228 165 L217 152 Q201 172 182 192 L192 202 Z" /><glyph glyph-name="" unicode="&#x6216;" d="M30 125 L44 125 L44 53 L30 53 L30 125 ZM37 125 L107 125 L107 112 L37 112 L37 125 ZM100 125 L114 125 L114 53 L100 53 L100 125 ZM39 66 L109 66 L109 53 L39 53 L39 66 ZM14 166 L244 166 L244 152 L14 152 L14 166 ZM143 208 L158 208 Q158 171 160 131 Q164 76 174 46 Q182 19 203 -1 Q211 -7 217 -7 Q223 -7 227 3 Q231 20 233 41 Q239 37 247 34 Q243 12 239 -2 Q233 -22 218 -22 Q206 -22 194 -12 Q172 5 160 39 Q149 74 145 128 Q143 162 143 208 ZM208 122 L224 118 Q194 27 125 -25 Q118 -20 112 -15 Q183 36 208 122 ZM187 209 Q206 198 227 185 L220 173 Q199 187 179 199 L187 209 ZM127 26 Q126 18 126 11 Q55 -1 14 -8 L11 8 Q55 14 127 26 Z" /><glyph glyph-name="" unicode="&#x622a;" d="M27 185 L138 185 L138 174 L27 174 L27 185 ZM13 146 L244 146 L244 134 L13 134 L13 146 ZM77 207 L91 207 L91 139 L77 139 L77 207 ZM157 209 L170 209 Q170 171 172 131 Q175 76 184 46 Q191 20 210 -1 Q217 -7 222.5 -7 Q228 -7 231 3 Q235 20 236 41 Q242 37 249 34 Q246 12 242 -2 Q237 -22 223 -22 Q213 -22 202 -12 Q183 6 173 39 Q162 75 159 129 Q157 162 157 209 ZM223 103 L235 95 Q202 38 154 3 Q151 9 146 16 Q193 50 223 103 ZM197 202 Q216 186 231 171 L219 161 Q205 176 186 193 L197 202 ZM42 102 L146 102 L146 90 L42 90 L42 102 ZM43 68 L142 68 L142 56 L43 56 L43 68 ZM43 34 L141 34 L141 22 L43 22 L43 34 ZM41 0 L149 0 L149 -12 L41 -12 L41 0 ZM90 95 L102 95 L102 -5 L90 -5 L90 95 ZM35 92 L47 92 L47 -22 L35 -22 L35 92 ZM50 129 L62 124 Q42 81 18 47 Q14 53 11 59 Q34 90 50 129 ZM92 130 Q102 117 108 108 L97 101 Q94 106 82 124 L92 130 Z" /><glyph glyph-name="" unicode="&#x6237;" d="M46 94 L218 94 L218 80 L46 80 L46 94 ZM49 175 L218 175 L218 161 L49 161 L49 175 ZM211 175 L227 175 L227 70 L211 70 L211 175 ZM39 175 L55 175 L55 92 Q55 22 20 -25 Q15 -18 9 -13 Q39 31 39 93 L39 175 ZM125 211 Q138 195 148 182 L134 174 Q125 187 113 203 L125 211 Z" /><glyph glyph-name="" unicode="&#x6240;" d="M39 137 L103 137 L103 124 L39 124 L39 137 ZM97 137 L111 137 L111 60 L97 60 L97 137 ZM39 73 L101 73 L101 60 L39 60 L39 73 ZM114 200 L119 186 Q83 180 33 177 L33 191 Q80 193 114 200 ZM33 189 L47 189 L47 100 Q47 25 16 -26 Q11 -20 4 -14 Q33 30 33 106 L33 189 ZM144 122 L247 122 L247 109 L144 109 L144 122 ZM197 113 L212 113 L212 -24 L197 -24 L197 113 ZM236 200 L241 187 Q190 182 134 179 L134 192 Q189 195 236 200 ZM134 189 L150 189 L150 95 Q150 18 119 -22 Q112 -17 106 -14 Q134 23 134 96 L134 189 Z" /><glyph glyph-name="" unicode="&#x624b;" d="M28 131 L224 131 L224 117 L28 117 L28 131 ZM11 68 L245 68 L245 54 L11 54 L11 68 ZM220 199 L222 184 Q135 179 27 177 Q26 186 24 191 Q147 194 220 199 ZM120 190 L136 190 L136 8 Q136 -20 106 -20 Q91 -20 72 -19 Q70 -12 68 -4 Q88 -5 102 -5 Q120 -5 120 9 L120 190 Z" /><glyph glyph-name="" unicode="&#x6253;" d="M111 188 L247 188 L247 174 L111 174 L111 188 ZM177 176 L192 176 L192 12 Q192 -20 161 -20 Q147 -20 123 -19 Q122 -11 120 -3 Q138 -4 159 -4 Q177 -4 177 14 L177 176 ZM13 160 L104 160 L104 146 L13 146 L13 160 ZM53 208 L68 208 L68 1 Q68 -17 50 -20 Q43 -22 23 -21 Q22 -15 20 -7 Q35 -8 42 -8 Q53 -8 53 3 L53 208 ZM105 104 L108 89 Q85 81 17 56 L9 71 Q49 83 105 104 Z" /><glyph glyph-name="" unicode="&#x6267;" d="M11 162 L85 162 L85 150 L11 150 L11 162 ZM43 208 L58 208 L58 1 Q58 -17 40 -20 Q33 -22 13 -21 Q12 -15 9 -7 Q24 -8 32 -8 Q43 -8 43 3 L43 208 ZM85 105 Q85 98 85 91 Q47 79 11 67 L10 82 Q47 93 85 105 ZM94 161 L203 161 L203 148 L94 148 L94 161 ZM192 162 L208 162 Q208 124 208 96 Q207 31 213 8 Q215 0 221 0 Q226 0 229 8 Q232 23 235 43 Q242 40 249 38 Q246 17 242 1 Q236 -18 222 -18 Q205 -18 198 3 Q192 22 192 77 Q192 110 192 162 ZM131 209 L147 209 Q147 91 136 56 Q124 11 83 -23 Q78 -18 70 -11 Q108 18 121 60 Q131 94 131 209 ZM99 102 Q138 83 175 63 L165 49 Q128 71 90 90 L99 102 Z" /><glyph glyph-name="" unicode="&#x626b;" d="M12 161 L95 161 L95 149 L12 149 L12 161 ZM48 207 L64 207 L64 1 Q64 -16 44 -19 Q36 -21 14 -20 Q13 -14 10 -6 Q27 -7 35 -7 Q48 -7 48 4 L48 207 ZM94 104 Q94 98 94 91 Q52 79 12 67 L10 82 Q52 92 94 104 ZM104 189 L223 189 L223 176 L104 176 L104 189 ZM216 189 L232 189 L232 -24 L216 -24 L216 189 ZM94 3 L223 3 L223 -10 L94 -10 L94 3 ZM110 99 L224 99 L224 86 L110 86 L110 99 Z" /><glyph glyph-name="" unicode="&#x6270;" d="M11 161 L88 161 L88 148 L11 148 L11 161 ZM45 206 L60 206 L60 0 Q60 -17 41 -20 Q34 -22 13 -22 Q12 -15 10 -7 Q25 -8 33 -8 Q45 -8 45 3 L45 206 ZM87 104 Q87 97 88 90 Q49 79 12 67 L10 81 Q48 92 87 104 ZM84 145 L245 145 L245 132 L84 132 L84 145 ZM132 208 L147 208 Q147 90 137 55 Q125 10 89 -24 Q84 -18 77 -12 Q112 17 123 59 Q132 93 132 208 ZM168 142 L182 142 L182 7 Q182 -6 197 -6 L216 -6 Q229 -6 232 6 Q234 16 236 34 Q243 32 250 30 Q247 16 245 4 Q240 -18 215 -18 L195 -18 Q167 -18 168 7 L168 142 ZM190 201 Q208 186 222 173 L211 164 Q197 178 180 192 L190 201 Z" /><glyph glyph-name="" unicode="&#x627e;" d="M133 208 L149 208 Q149 170 151 130 Q155 75 166 45 Q174 18 197 -3 Q205 -9 211.5 -9 Q218 -9 222 1 Q226 18 228 39 Q235 35 244 33 Q240 10 235 -4 Q229 -24 213 -24 Q200 -24 188 -14 Q164 4 152 38 Q139 73 136 128 Q133 161 133 208 ZM239 150 L241 137 L93 120 L91 133 L239 150 ZM180 201 Q198 188 217 173 L206 163 Q187 179 170 193 L180 201 ZM220 112 L234 105 Q186 30 95 -6 Q90 1 85 7 Q175 39 220 112 ZM11 158 L102 158 L102 144 L11 144 L11 158 ZM50 205 L65 205 L65 1 Q65 -16 48 -19 Q41 -21 21 -20 Q20 -14 17 -6 Q32 -7 40 -7 Q50 -7 50 4 L50 205 ZM103 103 L106 88 Q82 80 14 56 L6 71 Q46 83 103 103 Z" /><glyph glyph-name="" unicode="&#x6280;" d="M12 161 L88 161 L88 149 L12 149 L12 161 ZM45 208 L60 208 L60 0 Q60 -17 42 -21 Q35 -22 14 -22 Q13 -15 10 -7 Q25 -8 34 -8 Q45 -8 45 3 L45 208 ZM87 104 Q88 98 88 91 Q49 79 12 67 L10 82 Q49 92 87 104 ZM95 173 L236 173 L236 160 L95 160 L95 173 ZM157 208 L172 208 L172 107 L157 107 L157 208 ZM97 111 L226 111 L226 99 L97 99 L97 111 ZM212 109 L227 109 L227 97 Q196 9 92 -27 Q88 -21 83 -14 Q186 20 212 101 L212 109 ZM106 105 L120 105 Q141 20 244 -11 Q238 -18 233 -26 Q126 13 106 105 Z" /><glyph glyph-name="" unicode="&#x628a;" d="M11 162 L85 162 L85 150 L11 150 L11 162 ZM43 208 L58 208 L58 2 Q58 -15 40 -19 Q33 -20 13 -20 Q12 -13 10 -5 Q24 -6 32 -6 Q43 -6 43 4 L43 208 ZM84 105 Q84 99 85 92 Q47 80 12 68 L10 83 Q47 93 84 105 ZM157 193 L172 193 L172 97 L157 97 L157 193 ZM100 196 L223 196 L223 184 L100 184 L100 196 ZM214 196 L230 196 L230 92 L214 92 L214 196 ZM107 105 L227 105 L227 92 L107 92 L107 105 ZM100 194 L115 194 L115 18 Q115 -4 138 -4 L200 -4 Q222 -4 226 14 Q229 24 231 41 Q239 38 247 35 Q245 22 241 9 Q233 -17 200 -17 L134 -17 Q100 -17 100 18 L100 194 Z" /><glyph glyph-name="" unicode="&#x62c9;" d="M93 165 L237 165 L237 151 L93 151 L93 165 ZM90 2 L246 2 L246 -11 L90 -11 L90 2 ZM160 210 Q169 194 178 176 L163 171 Q157 185 146 205 L160 210 ZM117 132 Q135 82 152 28 L136 23 Q122 71 104 129 L117 132 ZM208 133 L224 128 Q202 54 182 -8 L165 -8 Q189 63 208 133 ZM11 161 L85 161 L85 149 L11 149 L11 161 ZM43 207 L58 207 L58 0 Q58 -17 40 -21 Q33 -22 13 -22 Q12 -15 10 -7 Q24 -8 32 -8 Q43 -8 43 3 L43 207 ZM84 104 Q84 98 85 90 Q47 79 12 67 L10 81 Q47 92 84 104 Z" /><glyph glyph-name="" unicode="&#x62e5;" d="M10 161 L82 161 L82 148 L10 148 L10 161 ZM41 206 L56 206 L56 1 Q56 -16 38 -20 Q32 -21 12 -21 Q11 -14 9 -6 Q23 -7 31 -7 Q41 -7 41 3 L41 206 ZM81 104 Q81 98 82 90 Q45 79 11 67 L9 82 Q45 92 81 104 ZM100 133 L224 133 L224 119 L100 119 L100 133 ZM100 68 L223 68 L223 55 L100 55 L100 68 ZM154 190 L169 190 L169 -12 L154 -12 L154 190 ZM101 197 L224 197 L224 183 L101 183 L101 197 ZM217 197 L232 197 L232 4 Q232 -21 209 -21 Q196 -21 181 -21 Q181 -15 178 -7 Q193 -8 204 -8 Q217 -8 217 7 L217 197 ZM92 197 L107 197 L107 100 Q107 55 101 27.5 Q95 0 81 -23 Q76 -16 70 -9 Q82 10 87 36 Q92 63 92 99 L92 197 Z" /><glyph glyph-name="" unicode="&#x62ec;" d="M11 162 L85 162 L85 149 L11 149 L11 162 ZM43 208 L58 208 L58 1 Q58 -16 40 -20 Q33 -21 13 -21 Q12 -14 10 -6 Q24 -7 32 -7 Q43 -7 43 3 L43 208 ZM84 105 Q85 98 85 91 Q47 80 12 67 L10 82 Q47 93 84 105 ZM101 77 L114 77 L114 -24 L101 -24 L101 77 ZM109 77 L220 77 L220 64 L109 64 L109 77 ZM213 77 L226 77 L226 -24 L213 -24 L213 77 ZM110 6 L220 6 L220 -7 L110 -7 L110 6 ZM86 135 L245 135 L245 121 L86 121 L86 135 ZM157 187 L170 187 L170 70 L157 70 L157 187 ZM232 202 L235 188 Q164 180 99 175 Q97 181 95 189 Q165 193 232 202 Z" /><glyph glyph-name="" unicode="&#x62fc;" d="M95 160 L240 160 L240 146 L95 146 L95 160 ZM85 79 L248 79 L248 65 L85 65 L85 79 ZM192 152 L207 152 L207 -25 L192 -25 L192 152 ZM128 154 L142 154 L142 88 Q142 40 131 18 Q121 -5 90 -27 Q85 -21 80 -16 Q109 5 118 26 Q128 45 128 88 L128 154 ZM123 207 Q138 193 150 181 L140 170 Q127 184 114 197 L123 207 ZM208 208 L221 199 Q204 175 188 152 L176 158 Q193 182 208 208 ZM12 161 L87 161 L87 149 L12 149 L12 161 ZM44 208 L60 208 L60 0 Q60 -17 41 -21 Q34 -22 14 -22 Q13 -15 10 -7 Q25 -8 33 -8 Q44 -8 44 3 L44 208 ZM86 104 Q86 98 87 91 Q49 79 13 67 L11 82 Q48 92 86 104 Z" /><glyph glyph-name="" unicode="&#x6301;" d="M11 161 L90 161 L90 149 L11 149 L11 161 ZM45 208 L61 208 L61 -1 Q61 -19 42 -23 Q35 -24 13 -24 Q12 -17 9 -9 Q25 -10 34 -10 Q45 -10 45 1 L45 208 ZM89 103 Q89 97 90 90 Q49 78 12 66 L10 81 Q49 91 89 103 ZM99 175 L236 175 L236 163 L99 163 L99 175 ZM88 123 L247 123 L247 111 L88 111 L88 123 ZM90 74 L248 74 L248 62 L90 62 L90 74 ZM160 209 L177 209 L177 115 L160 115 L160 209 ZM191 100 L208 100 L208 9 Q208 -22 170 -22 Q157 -22 141 -22 Q139 -15 137 -6 Q152 -8 171 -8 Q191 -8 191 9 L191 100 ZM121 50 Q136 37 150 22 L137 15 Q123 30 109 43 L121 50 Z" /><glyph glyph-name="" unicode="&#x6307;" d="M11 162 L89 162 L89 150 L11 150 L11 162 ZM45 208 L61 208 L61 2 Q61 -15 42 -19 Q34 -20 13 -20 Q12 -13 10 -5 Q25 -6 33 -6 Q45 -6 45 4 L45 208 ZM88 105 Q88 99 89 92 Q49 80 12 68 L10 83 Q49 93 88 105 ZM105 93 L120 93 L120 -24 L105 -24 L105 93 ZM110 93 L224 93 L224 81 L110 81 L110 93 ZM214 93 L229 93 L229 -24 L214 -24 L214 93 ZM111 3 L224 3 L224 -9 L111 -9 L111 3 ZM110 48 L224 48 L224 36 L110 36 L110 48 ZM232 201 L238 188 Q168 169 112 160 L110 173 Q182 185 232 201 ZM103 210 L119 210 L119 144 Q119 131 133 131 L200 131 Q219 131 223 143 Q226 153 228 167 Q234 164 243 161 Q241 150 238 140 Q231 118 203 118 L134 118 Q103 118 103 146 L103 210 Z" /><glyph glyph-name="" unicode="&#x6309;" d="M11 162 L83 162 L83 150 L11 150 L11 162 ZM42 208 L57 208 L57 2 Q57 -15 39 -19 Q33 -20 13 -20 Q12 -13 10 -5 Q24 -6 32 -6 Q42 -6 42 4 L42 208 ZM82 105 Q82 99 83 92 Q46 80 12 68 L10 83 Q46 93 82 105 ZM102 173 L116 173 L116 137 L102 137 L102 173 ZM108 173 L235 173 L235 160 L108 160 L108 173 ZM227 173 L241 173 L241 137 L227 137 L227 173 ZM100 104 L242 104 L242 91 L100 91 L100 104 ZM166 211 Q175 196 181 183 L168 177 Q162 191 153 204 L166 211 ZM152 145 L166 140 Q149 97 129 57 Q190 26 245 -7 L237 -21 Q185 13 111 51 Q133 94 152 145 ZM207 99 L220 99 Q211 52 182 23 Q153 -6 89 -24 Q85 -16 81 -10 Q149 9 171 32 Q199 60 207 99 Z" /><glyph glyph-name="" unicode="&#x6362;" d="M10 162 L81 162 L81 149 L10 149 L10 162 ZM41 208 L55 208 L55 0 Q55 -17 38 -21 Q31 -22 11 -22 Q11 -15 8 -7 Q23 -8 30 -8 Q41 -8 41 2 L41 208 ZM80 104 Q81 98 81 91 Q45 79 10 67 L8 82 Q44 92 80 104 ZM99 135 L113 135 L113 54 L99 54 L99 135 ZM104 135 L221 135 L221 122 L104 122 L104 135 ZM213 135 L227 135 L227 54 L213 54 L213 135 ZM78 62 L246 62 L246 49 L78 49 L78 62 ZM123 184 L206 184 L206 172 L123 172 L123 184 ZM203 184 L211 184 L211 172 L174 123 L160 127 L203 184 ZM133 210 L148 205 Q125 160 97 130 Q94 135 87 143 Q117 175 133 210 ZM155 131 L169 131 L169 75 Q169 -1 86 -26 Q82 -21 77 -16 Q155 8 155 72 L155 131 ZM166 66 Q174 34 193 17 Q213 -2 244 -10 Q239 -17 236 -24 Q204 -11 185 6 Q166 24 156 56 L166 66 Z" /><glyph glyph-name="" unicode="&#x636e;" d="M11 163 L83 163 L83 150 L11 150 L11 163 ZM42 208 L57 208 L57 2 Q57 -15 39 -18 Q33 -20 13 -20 Q12 -13 10 -5 Q24 -6 32 -6 Q42 -6 42 5 L42 208 ZM82 106 Q82 99 83 92 Q46 81 12 69 L10 83 Q46 94 82 106 ZM122 55 L135 55 L135 -22 L122 -22 L122 55 ZM126 55 L230 55 L230 43 L126 43 L126 55 ZM222 55 L236 55 L236 -22 L222 -22 L222 55 ZM125 3 L230 3 L230 -9 L125 -9 L125 3 ZM101 102 L245 102 L245 90 L101 90 L101 102 ZM171 127 L185 127 L185 49 L171 49 L171 127 ZM101 195 L229 195 L229 183 L101 183 L101 195 ZM223 195 L237 195 L237 136 L223 136 L223 195 ZM101 148 L229 148 L229 136 L101 136 L101 148 ZM97 195 L111 195 L111 98 Q111 20 79 -23 Q73 -17 68 -12 Q97 29 97 96 L97 195 Z" /><glyph glyph-name="" unicode="&#x6377;" d="M11 162 L84 162 L84 149 L11 149 L11 162 ZM43 208 L57 208 L57 1 Q57 -16 40 -20 Q33 -21 13 -21 Q12 -14 10 -6 Q24 -7 32 -7 Q43 -7 43 3 L43 208 ZM83 104 Q83 98 84 91 Q47 79 12 67 L10 82 Q46 92 83 104 ZM98 151 L216 151 L216 139 L98 139 L98 151 ZM212 151 L225 151 L225 68 L212 68 L212 151 ZM97 79 L217 79 L217 68 L97 68 L97 79 ZM88 186 L237 186 L237 174 L88 174 L88 186 ZM88 116 L244 116 L244 104 L88 104 L88 116 ZM156 40 L225 40 L225 28 L156 28 L156 40 ZM153 209 L167 209 L167 -12 L153 -12 L153 209 ZM102 55 L116 54 Q110 3 76 -28 Q72 -23 67 -18 Q98 9 102 55 ZM106 38 Q124 -5 174 -6 Q207 -7 244 -5 Q241 -14 240 -18 Q201 -18 172 -18 Q123 -18 100 24 L106 38 Z" /><glyph glyph-name="" unicode="&#x63a5;" d="M11 162 L84 162 L84 149 L11 149 L11 162 ZM43 208 L57 208 L57 1 Q57 -16 40 -20 Q33 -21 13 -21 Q12 -14 10 -6 Q24 -7 32 -7 Q43 -7 43 3 L43 208 ZM83 104 Q83 98 84 91 Q47 79 12 67 L10 82 Q46 92 83 104 ZM97 181 L239 181 L239 169 L97 169 L97 181 ZM89 122 L244 122 L244 110 L89 110 L89 122 ZM89 76 L243 76 L243 64 L89 64 L89 76 ZM165 211 Q173 198 180 186 L167 181 Q161 193 153 205 L165 211 ZM125 162 Q138 148 148 134 L137 127 Q127 140 115 155 L125 162 ZM209 162 L219 155 Q205 139 191 124 L181 132 Q195 146 209 162 ZM144 100 L156 94 Q138 64 124 41 Q181 17 242 -9 L235 -23 Q172 7 104 36 Q126 67 144 100 ZM200 69 L214 69 Q195 -3 84 -23 Q81 -17 77 -10 Q181 5 200 69 Z" /><glyph glyph-name="" unicode="&#x63cf;" d="M95 121 L108 121 L108 -24 L95 -24 L95 121 ZM103 121 L228 121 L228 109 L103 109 L103 121 ZM223 121 L236 121 L236 -24 L223 -24 L223 121 ZM103 2 L229 2 L229 -10 L103 -10 L103 2 ZM102 62 L229 62 L229 50 L102 50 L102 62 ZM86 177 L246 177 L246 164 L86 164 L86 177 ZM126 206 L139 206 L139 135 L126 135 L126 206 ZM192 206 L204 206 L204 135 L192 135 L192 206 ZM159 117 L172 117 L172 -4 L159 -4 L159 117 ZM11 162 L82 162 L82 150 L11 150 L11 162 ZM42 208 L56 208 L56 2 Q56 -15 39 -19 Q32 -20 13 -20 Q12 -13 10 -5 Q24 -6 31 -6 Q42 -6 42 4 L42 208 ZM81 105 Q81 99 82 92 Q46 80 12 68 L10 83 Q45 93 81 105 Z" /><glyph glyph-name="" unicode="&#x63d0;" d="M10 162 L83 162 L83 150 L10 150 L10 162 ZM42 208 L57 208 L57 2 Q57 -15 39 -19 Q32 -20 12 -20 Q11 -13 9 -5 Q23 -6 31 -6 Q42 -6 42 4 L42 208 ZM82 105 Q83 99 83 92 Q46 80 11 68 L9 83 Q46 93 82 105 ZM104 199 L118 199 L118 113 L104 113 L104 199 ZM111 199 L220 199 L220 188 L111 188 L111 199 ZM215 199 L229 199 L229 113 L215 113 L215 199 ZM113 125 L220 125 L220 113 L113 113 L113 125 ZM114 162 L219 162 L219 151 L114 151 L114 162 ZM89 90 L243 90 L243 78 L89 78 L89 90 ZM167 45 L236 45 L236 34 L167 34 L167 45 ZM160 84 L174 84 L174 -8 L160 -8 L160 84 ZM105 63 L118 63 Q117 1 85 -25 Q81 -18 75 -13 Q104 8 105 63 ZM109 42 Q127 -3 177 -3 Q209 -4 246 -2 Q243 -11 241 -16 Q203 -16 175 -16 Q126 -16 104 27 L109 42 Z" /><glyph glyph-name="" unicode="&#x641c;" d="M11 162 L81 162 L81 150 L11 150 L11 162 ZM41 208 L55 208 L55 2 Q55 -15 38 -19 Q32 -20 12 -20 Q12 -13 9 -5 Q23 -6 31 -6 Q41 -6 41 4 L41 208 ZM80 105 Q80 99 81 92 Q45 80 11 68 L10 83 Q45 93 80 105 ZM101 150 L145 150 L145 138 L101 138 L101 150 ZM187 150 L227 150 L227 138 L187 138 L187 150 ZM159 210 L172 210 L172 62 L159 62 L159 210 ZM96 183 L109 183 L109 93 L96 93 L96 183 ZM184 194 L229 194 L229 181 L184 181 L184 194 ZM221 193 L234 193 L234 93 L221 93 L221 193 ZM101 105 L229 105 L229 92 L101 92 L101 105 ZM139 201 L146 189 Q128 183 96 178 L96 190 Q119 193 139 201 ZM96 67 L219 67 L219 55 L96 55 L96 67 ZM212 67 L226 67 L226 53 Q182 -10 82 -26 Q78 -17 75 -13 Q123 -6 158 12 Q189 29 212 57 L212 67 ZM121 62 Q153 1 246 -6 Q241 -15 238 -23 Q145 -10 111 55 L121 62 Z" /><glyph glyph-name="" unicode="&#x642d;" d="M10 163 L82 163 L82 150 L10 150 L10 163 ZM41 208 L56 208 L56 2 Q56 -15 38 -18 Q31 -20 12 -20 Q11 -13 9 -5 Q23 -6 30 -6 Q41 -6 41 5 L41 208 ZM81 106 Q81 99 81 92 Q45 81 10 69 L9 83 Q45 94 81 106 ZM97 57 L111 57 L111 -25 L97 -25 L97 57 ZM98 57 L215 57 L215 45 L98 45 L98 57 ZM204 57 L219 57 L219 -25 L204 -25 L204 57 ZM98 1 L214 1 L214 -11 L98 -11 L98 1 ZM78 183 L240 183 L240 171 L78 171 L78 183 ZM111 94 L200 94 L200 83 L111 83 L111 94 ZM114 208 L127 208 L127 148 L114 148 L114 208 ZM189 208 L203 208 L203 148 L189 148 L189 208 ZM169 162 L165 156 Q197 118 246 94 Q241 90 236 83 Q191 108 158 145 Q135 109 84 82 Q81 86 75 91 Q131 120 153 162 L169 162 Z" /><glyph glyph-name="" unicode="&#x6458;" d="M11 162 L82 162 L82 150 L11 150 L11 162 ZM42 208 L56 208 L56 2 Q56 -15 39 -19 Q32 -20 13 -20 Q12 -13 10 -5 Q24 -6 31 -6 Q42 -6 42 4 L42 208 ZM81 105 Q81 99 82 92 Q46 80 12 68 L10 83 Q45 93 81 105 ZM131 60 L143 60 L143 10 L131 10 L131 60 ZM136 60 L192 60 L192 47 L136 47 L136 60 ZM186 60 L197 60 L197 10 L186 10 L186 60 ZM135 22 L192 22 L192 10 L135 10 L135 22 ZM87 183 L243 183 L243 170 L87 170 L87 183 ZM120 95 L208 95 L208 82 L120 82 L120 95 ZM158 111 L170 111 L170 57 L158 57 L158 111 ZM94 133 L106 133 L106 -24 L94 -24 L94 133 ZM100 133 L232 133 L232 120 L100 120 L100 133 ZM222 133 L235 133 L235 2 Q235 -23 209 -23 Q196 -23 179 -22 Q177 -15 175 -9 Q198 -11 209 -11 Q222 -11 222 2 L222 133 ZM164 209 Q171 196 176 182 L165 177 Q160 189 153 204 L164 209 ZM131 165 Q138 152 143 140 L133 135 Q127 147 120 159 L131 165 ZM197 164 L209 158 Q199 141 188 124 L176 126 Q188 145 197 164 Z" /><glyph glyph-name="" unicode="&#x64a4;" d="M10 158 L66 158 L66 145 L10 145 L10 158 ZM34 208 L47 208 L47 1 Q47 -20 26 -20 Q19 -20 10 -20 Q10 -13 8 -7 Q17 -8 23 -8 Q34 -8 34 3 L34 208 ZM65 99 Q65 93 66 86 Q37 76 11 64 L10 78 Q37 88 65 99 ZM75 182 L163 182 L163 170 L75 170 L75 182 ZM184 164 L246 164 L246 151 L184 151 L184 164 ZM87 69 L148 69 L148 58 L87 58 L87 69 ZM87 35 L149 35 L149 23 L87 23 L87 35 ZM80 104 L93 104 L93 -23 L80 -23 L80 104 ZM87 104 L146 104 L146 92 L87 92 L87 104 ZM140 104 L153 104 L153 -2 Q153 -23 134 -23 Q125 -23 116 -23 Q115 -18 113 -10 Q123 -11 129 -11 Q140 -11 140 -1 L140 104 ZM114 210 Q125 197 130 189 L119 182 Q116 187 103 204 L114 210 ZM105 175 L119 172 Q105 152 89 134 Q119 135 153 137 L153 126 Q91 122 75 120 L70 133 Q85 142 105 175 ZM139 158 Q151 141 164 123 L152 115 Q140 135 128 150 L139 158 ZM190 208 L204 205 Q190 145 167 93 Q162 101 158 106 Q180 158 190 208 ZM221 157 L234 157 L234 144 Q229 71 212 36 Q195 2 163 -24 Q159 -18 153 -12 Q187 13 202 45 Q216 78 221 150 L221 157 ZM185 150 Q188 81 208 39 Q223 9 246 -10 Q242 -16 237 -23 Q214 -2 200 28 Q180 69 176 128 L185 150 Z" /><glyph glyph-name="" unicode="&#x64ad;" d="M11 163 L79 163 L79 150 L11 150 L11 163 ZM40 208 L55 208 L55 2 Q55 -15 38 -18 Q31 -20 12 -20 Q12 -13 9 -5 Q23 -6 30 -6 Q40 -6 40 5 L40 208 ZM79 106 Q79 99 79 92 Q44 81 11 69 L10 83 Q44 94 79 106 ZM97 76 L109 76 L109 -24 L97 -24 L97 76 ZM104 77 L224 77 L224 65 L104 65 L104 77 ZM216 76 L228 76 L228 -24 L216 -24 L216 76 ZM105 -1 L220 -1 L220 -12 L105 -12 L105 -1 ZM106 38 L220 38 L220 27 L106 27 L106 38 ZM81 140 L245 140 L245 128 L81 128 L81 140 ZM156 187 L168 187 L168 86 L156 86 L156 187 ZM156 72 L168 72 L168 -7 L156 -7 L156 72 ZM232 201 L237 189 Q162 184 93 180 Q91 186 88 192 Q162 196 232 201 ZM107 175 Q120 164 131 154 L122 145 Q110 156 98 167 L107 175 ZM217 176 L227 167 Q214 155 200 145 L192 155 Q205 165 217 176 ZM144 138 L157 138 L157 125 Q128 93 83 72 Q83 72 75 83 Q114 99 144 128 L144 138 ZM172 138 Q202 100 246 89 Q241 82 237 76 Q190 93 163 133 L172 138 Z" /><glyph glyph-name="" unicode="&#x64cd;" d="M10 162 L79 162 L79 150 L10 150 L10 162 ZM40 208 L54 208 L54 1 Q54 -16 37 -20 Q31 -21 12 -21 Q11 -14 9 -6 Q23 -7 30 -7 Q40 -7 40 3 L40 208 ZM78 105 Q78 98 79 91 Q44 80 11 68 L9 82 Q44 93 78 105 ZM103 199 L116 199 L116 147 L103 147 L103 199 ZM111 199 L210 199 L210 188 L111 188 L111 199 ZM201 199 L214 199 L214 147 L201 147 L201 199 ZM111 158 L210 158 L210 147 L111 147 L111 158 ZM86 129 L97 129 L97 76 L86 76 L86 129 ZM93 129 L142 129 L142 119 L93 119 L93 129 ZM134 129 L146 129 L146 76 L134 76 L134 129 ZM93 87 L143 87 L143 76 L93 76 L93 87 ZM171 129 L182 129 L182 76 L171 76 L171 129 ZM177 129 L226 129 L226 119 L177 119 L177 129 ZM220 129 L232 129 L232 76 L220 76 L220 129 ZM178 87 L227 87 L227 76 L178 76 L178 87 ZM78 57 L240 57 L240 45 L78 45 L78 57 ZM152 71 L165 71 L165 -24 L152 -24 L152 71 ZM153 54 L165 53 Q136 13 75 -13 Q73 -8 69 -2 Q123 19 153 54 ZM168 49 Q196 14 247 1 Q243 -5 240 -12 Q186 7 158 46 L168 49 Z" /><glyph glyph-name="" unicode="&#x652f;" d="M13 174 L243 174 L243 161 L13 161 L13 174 ZM120 209 L134 209 L134 115 L120 115 L120 209 ZM36 122 L199 122 L199 108 L36 108 L36 122 ZM192 122 L207 122 L207 107 Q185 60 146 27 Q103 -4 21 -25 Q18 -17 13 -10 Q91 6 132 37 Q171 65 192 111 L192 122 ZM70 119 Q91 69 132.5 36 Q174 3 246 -9 Q241 -17 236 -25 Q163 -9 122 24 Q80 57 56 113 L70 119 Z" /><glyph glyph-name="" unicode="&#x6536;" d="M70 208 L85 208 L85 -23 L70 -23 L70 208 ZM22 169 L36 169 L36 50 Q57 62 79 75 Q80 65 82 59 Q63 48 41 35 Q31 28 26 23 L15 37 Q22 42 22 54 L22 169 ZM132 171 L243 171 L243 156 L132 156 L132 171 ZM142 209 L156 205 Q134 135 103 91 Q99 98 95 103 Q123 147 142 209 ZM205 159 L220 159 Q216 72 176 28 Q151 0 103 -25 Q97 -17 92 -11 Q142 13 165 39 Q202 81 205 159 ZM136 160 Q139 83 174 41 Q198 13 247 -5 Q241 -13 236 -21 Q189 2 165 29 Q131 67 124 146 L136 160 Z" /><glyph glyph-name="" unicode="&#x6539;" d="M132 171 L245 171 L245 156 L132 156 L132 171 ZM142 209 L156 205 Q134 135 102 91 Q98 98 94 103 Q123 147 142 209 ZM206 159 L222 159 Q218 72 177 28 Q152 0 103 -25 Q97 -17 91 -11 Q142 13 166 39 Q203 81 206 159 ZM136 160 Q140 83 174 41 Q199 13 249 -5 Q243 -13 238 -21 Q190 2 165 29 Q131 67 123 146 L136 160 ZM19 190 L94 190 L94 177 L19 177 L19 190 ZM84 189 L98 189 L98 99 L84 99 L84 189 ZM28 112 L93 112 L93 99 L28 99 L28 112 ZM23 112 L38 112 L38 15 Q68 25 96 36 Q95 28 95 20 Q69 11 38 -1 Q32 -4 26 -7 L17 8 Q23 13 23 21 L23 112 Z" /><glyph glyph-name="" unicode="&#x653e;" d="M140 166 L245 166 L245 153 L140 153 L140 166 ZM155 211 L169 206 Q147 152 123 119 Q118 124 112 130 Q139 164 155 211 ZM208 157 L222 157 Q219 71 183 27 Q161 0 119 -25 Q114 -17 109 -12 Q153 12 173 38 Q206 79 208 157 ZM149 163 Q153 86 182 44 Q208 10 245 -9 Q239 -16 234 -22 Q198 0 173 31 Q144 73 136 143 L149 163 ZM14 170 L124 170 L124 158 L14 158 L14 170 ZM47 114 L110 114 L110 102 L47 102 L47 114 ZM102 114 L117 114 Q115 52 113 14 Q111 -21 81 -21 Q69 -21 58 -20 Q56 -13 54 -6 Q65 -7 79 -7 Q97 -7 98 17 Q100 48 102 114 ZM38 159 L53 159 L53 91 Q53 25 21 -22 Q16 -17 10 -11 Q38 26 38 91 L38 159 ZM68 208 Q80 193 86 183 L74 175 Q70 181 57 201 L68 208 Z" /><glyph glyph-name="" unicode="&#x6548;" d="M147 166 L251 166 L251 153 L147 153 L147 166 ZM163 211 L176 206 Q155 152 131 119 Q126 124 121 129 Q147 164 163 211 ZM215 157 L228 157 Q225 70 190 26 Q169 -1 128 -26 Q122 -18 117 -12 Q160 12 180 37 Q212 79 215 157 ZM156 163 Q161 86 189 43 Q214 9 251 -9 Q245 -16 240 -23 Q204 -1 180 31 Q151 72 144 143 L156 163 ZM11 171 L126 171 L126 158 L11 158 L11 171 ZM62 210 Q74 197 84 184 L74 174 Q65 188 53 201 L62 210 ZM44 143 L54 136 Q36 107 16 84 Q12 88 6 93 Q29 117 44 143 ZM89 143 Q114 119 131 100 L122 89 Q105 110 82 133 L89 143 ZM94 97 L107 94 Q82 26 21 -27 Q18 -22 13 -17 Q73 34 94 97 ZM38 88 Q76 45 113 -2 L102 -12 Q61 44 29 79 L38 88 Z" /><glyph glyph-name="" unicode="&#x6570;" d="M14 154 L130 154 L130 142 L14 142 L14 154 ZM70 207 L83 207 L83 93 L70 93 L70 207 ZM12 72 L115 72 L115 60 L12 60 L12 72 ZM109 72 L122 72 L122 59 Q100 -7 14 -23 Q12 -18 8 -10 Q92 4 109 65 L109 72 ZM29 199 Q42 186 54 176 L44 166 Q32 178 20 190 L29 199 ZM121 200 L131 193 Q119 178 105 164 L96 172 Q109 185 121 200 ZM70 147 L82 147 Q58 113 14 85 Q13 93 10 101 Q46 119 70 147 ZM93 134 Q109 121 129 104 L119 94 Q104 108 85 124 L93 134 ZM57 90 L69 85 Q54 59 43 43 Q77 28 122 5 L116 -8 Q69 18 25 37 Q37 53 57 90 ZM163 168 L241 168 L241 155 L163 155 L163 168 ZM171 210 L184 206 Q164 141 135 100 Q131 106 127 111 Q154 152 171 210 ZM213 159 L227 159 Q223 113 215 82 Q197 19 138 -26 Q134 -20 128 -13 Q185 26 201 84 Q209 114 213 159 ZM162 163 Q166 85 192 43 Q215 9 249 -10 Q243 -16 238 -23 Q206 -1 183 31 Q157 72 150 142 L162 163 Z" /><glyph glyph-name="" unicode="&#x6574;" d="M26 164 L38 164 L38 122 L26 122 L26 164 ZM31 164 L121 164 L121 153 L31 153 L31 164 ZM114 164 L126 164 L126 122 L114 122 L114 164 ZM31 133 L120 133 L120 122 L31 122 L31 133 ZM16 194 L134 194 L134 182 L16 182 L16 194 ZM70 209 L82 209 L82 75 L70 75 L70 209 ZM68 126 L81 126 Q56 93 15 73 Q11 80 6 86 Q43 99 68 126 ZM78 118 Q103 107 133 91 L126 80 Q97 96 73 109 L78 118 ZM160 184 L245 184 L245 172 L160 172 L160 184 ZM168 210 L180 206 Q162 159 139 132 Q134 138 131 142 Q154 170 168 210 ZM213 181 L227 181 Q220 132 195 107 Q177 90 147 74 Q142 79 137 84 Q167 97 187 118 Q208 141 213 181 ZM165 177 Q185 109 245 90 Q243 84 238 76 Q175 102 155 171 L165 177 ZM28 66 L227 66 L227 54 L28 54 L28 66 ZM130 31 L216 31 L216 20 L130 20 L130 31 ZM12 -5 L244 -5 L244 -16 L12 -16 L12 -5 ZM123 59 L137 59 L137 -9 L123 -9 L123 59 ZM55 38 L68 38 L68 -12 L55 -12 L55 38 Z" /><glyph glyph-name="" unicode="&#x6587;" d="M183 160 L199 158 Q183 76 133 34 Q106 8 23 -22 Q18 -13 12 -6 Q89 18 122 45 Q169 84 183 160 ZM71 165 Q98 82 143 42 Q182 9 244 -7 Q239 -14 234 -22 Q170 -2 132 32 Q84 76 57 160 L71 165 ZM14 168 L242 168 L242 153 L14 153 L14 168 ZM126 209 Q138 191 145 180 L132 171 Q128 177 115 201 L126 209 Z" /><glyph glyph-name="" unicode="&#x6599;" d="M194 209 L208 209 L208 -24 L194 -24 L194 209 ZM137 185 Q159 171 181 156 L173 146 Q152 162 129 175 L137 185 ZM132 125 Q154 111 176 96 L168 85 Q147 101 124 115 L132 125 ZM246 74 L248 61 L119 44 L118 57 L246 74 ZM12 122 L111 122 L111 110 L12 110 L12 122 ZM55 210 L68 210 L68 -23 L55 -23 L55 210 ZM26 189 Q35 162 41 142 L29 138 Q27 145 14 185 L26 189 ZM94 190 L107 187 Q103 165 96 139 L83 143 Q90 167 94 190 ZM53 119 L62 117 Q50 62 20 13 Q15 18 10 22 Q41 67 53 119 ZM76 87 Q96 67 111 51 L100 42 Q82 63 66 80 L76 87 Z" /><glyph glyph-name="" unicode="&#x65ad;" d="M21 200 L34 200 L34 -6 L21 -6 L21 200 ZM28 6 L120 6 L120 -6 L28 -6 L28 6 ZM85 205 L97 205 L97 16 L85 16 L85 205 ZM43 125 L134 125 L134 113 L43 113 L43 125 ZM52 188 Q63 168 73 148 L62 142 Q54 163 42 183 L52 188 ZM129 190 L139 183 Q128 163 114 142 L106 151 Q119 171 129 190 ZM87 129 L95 127 Q82 74 43 32 Q40 37 36 41 Q73 79 87 129 ZM102 91 Q118 79 136 63 L127 53 Q113 66 95 82 L102 91 ZM158 120 L247 120 L247 108 L158 108 L158 120 ZM203 112 L217 112 L217 -23 L203 -23 L203 112 ZM237 198 L242 184 Q198 180 149 177 L149 189 Q197 192 237 198 ZM150 187 L163 187 L163 94 Q163 18 137 -21 Q130 -16 125 -13 Q150 23 150 95 L150 187 Z" /><glyph glyph-name="" unicode="&#x65b0;" d="M17 182 L126 182 L126 170 L17 170 L17 182 ZM10 126 L132 126 L132 114 L10 114 L10 126 ZM16 80 L127 80 L127 68 L16 68 L16 80 ZM69 209 Q77 197 82 185 L71 180 Q66 192 58 204 L69 209 ZM38 164 Q49 148 58 136 L48 129 Q39 143 28 158 L38 164 ZM105 163 L116 156 Q102 135 87 117 L76 122 Q91 141 105 163 ZM65 102 L78 102 L78 8 Q78 -20 58 -20 Q47 -20 34 -20 Q33 -13 32 -5 Q44 -5 55 -5 Q65 -5 65 8 L65 102 ZM32 52 L45 48 Q36 21 23 1 Q16 5 10 8 Q26 32 32 52 ZM100 52 Q112 37 125 20 L113 12 Q102 31 90 45 L100 52 ZM151 121 L245 121 L245 108 L151 108 L151 121 ZM199 112 L213 112 L213 -22 L199 -22 L199 112 ZM234 198 L239 184 Q193 180 143 177 L143 189 Q192 192 234 198 ZM143 187 L157 187 L157 95 Q157 19 129 -20 Q123 -15 117 -12 Q143 24 143 95 L143 187 Z" /><glyph glyph-name="" unicode="&#x65b9;" d="M86 112 L201 112 L201 98 L86 98 L86 112 ZM193 111 L208 111 Q206 48 205 28 Q203 3 195 -7 Q185 -18 157 -18 Q142 -18 123 -17 Q122 -6 120 -1 Q146 -5 162 -5 Q178 -5 184 3 Q189 9 191 27 Q192 53 193 111 ZM81 160 L95 160 L95 146 Q89 29 22 -25 Q17 -18 11 -11 Q75 38 81 150 L81 160 ZM14 171 L244 171 L244 157 L14 157 L14 171 ZM127 209 Q139 192 145 182 L133 173 Q129 179 115 201 L127 209 Z" /><glyph glyph-name="" unicode="&#x65e0;" d="M13 113 L242 113 L242 99 L13 99 L13 113 ZM32 190 L224 190 L224 177 L32 177 L32 190 ZM115 180 L131 180 L131 165 Q117 35 24 -24 Q20 -16 14 -9 Q104 47 115 171 L115 180 ZM136 106 L151 106 L151 14 Q151 -2 170 -2 L203 -2 Q225 -2 228 15 Q229 21 231 40 Q241 36 246 35 Q244 18 242 10 Q237 -15 207 -15 L168 -15 Q136 -15 136 13 L136 106 Z" /><glyph glyph-name="" unicode="&#x65f6;" d="M112 159 L247 159 L247 146 L112 146 L112 159 ZM200 208 L213 208 L213 9 Q213 -18 189 -18 Q176 -18 161 -17 Q160 -9 158 -2 Q171 -3 185.5 -3 Q200 -3 200 12 L200 208 ZM137 114 Q150 88 161 62 L149 56 Q139 82 126 108 L137 114 ZM23 187 L37 187 L37 -4 L23 -4 L23 187 ZM29 187 L86 187 L86 175 L29 175 L29 187 ZM76 187 L90 187 L90 1 L76 1 L76 187 ZM31 26 L83 26 L83 13 L31 13 L31 26 ZM31 107 L84 107 L84 94 L31 94 L31 107 Z" /><glyph glyph-name="" unicode="&#x662f;" d="M14 87 L243 87 L243 75 L14 75 L14 87 ZM133 46 L226 46 L226 34 L133 34 L133 46 ZM125 79 L140 79 L140 -7 L125 -7 L125 79 ZM62 62 L74 58 Q53 7 18 -25 Q13 -20 8 -16 Q44 15 62 62 ZM62 47 Q77 -3 130 -3 Q193 -3 247 -2 Q245 -9 242 -17 Q179 -17 131 -17 Q72 -17 55 34 L62 47 ZM48 200 L61 200 L61 110 L48 110 L48 200 ZM57 200 L199 200 L199 189 L57 189 L57 200 ZM196 200 L208 200 L208 110 L196 110 L196 200 ZM57 122 L199 122 L199 110 L57 110 L57 122 ZM58 161 L200 161 L200 150 L58 150 L58 161 Z" /><glyph glyph-name="" unicode="&#x666f;" d="M123 42 L136 42 L136 3 Q136 -21 112 -21 Q97 -21 89 -21 Q89 -18 86 -7 Q100 -8 111.5 -8 Q123 -8 123 3 L123 42 ZM87 22 L94 12 Q64 -5 27 -19 Q25 -14 21 -7 Q57 6 87 22 ZM169 22 Q206 8 237 -6 L231 -18 Q200 -3 162 12 L169 22 ZM41 200 L56 200 L56 132 L41 132 L41 200 ZM48 200 L209 200 L209 190 L48 190 L48 200 ZM201 200 L216 200 L216 132 L201 132 L201 200 ZM48 142 L209 142 L209 132 L48 132 L48 142 ZM48 171 L209 171 L209 161 L48 161 L48 171 ZM19 109 L237 109 L237 98 L19 98 L19 109 ZM120 129 Q127 120 137 108 L126 101 Q117 114 109 122 L120 129 ZM45 80 L59 80 L59 35 L45 35 L45 80 ZM52 80 L206 80 L206 70 L52 70 L52 80 ZM198 80 L212 80 L212 35 L198 35 L198 80 ZM52 45 L205 45 L205 35 L52 35 L52 45 Z" /><glyph glyph-name="" unicode="&#x6670;" d="M21 188 L33 188 L33 0 L21 0 L21 188 ZM27 187 L73 187 L73 175 L27 175 L27 187 ZM65 188 L77 188 L77 5 L65 5 L65 188 ZM28 29 L71 29 L71 17 L28 17 L28 29 ZM28 109 L72 109 L72 97 L28 97 L28 109 ZM88 160 L153 160 L153 148 L88 148 L88 160 ZM170 125 L244 125 L244 113 L170 113 L170 125 ZM114 208 L128 208 L128 -24 L114 -24 L114 208 ZM210 119 L223 119 L223 -25 L210 -25 L210 119 ZM239 198 L243 185 Q205 181 164 178 L164 190 Q205 193 239 198 ZM164 183 L178 183 L178 80 Q178 15 152 -25 Q147 -18 142 -13 Q164 21 164 83 L164 183 ZM116 156 L123 151 Q109 87 83 41 Q82 50 79 61 Q104 105 116 156 ZM132 117 Q143 105 159 87 L150 78 Q135 96 123 110 L132 117 Z" /><glyph glyph-name="" unicode="&#x66f4;" d="M19 197 L237 197 L237 185 L19 185 L19 197 ZM124 191 L137 191 Q137 140 136 112 Q136 39 107 11 Q80 -11 20 -25 Q16 -18 12 -12 Q69 -2 97 20 Q123 42 123 112 Q124 142 124 191 ZM55 56 Q75 30 101 16 Q150 -5 244 -5 Q241 -12 238 -19 Q136 -16 93 6 Q66 21 45 49 L55 56 ZM38 157 L53 157 L53 61 L38 61 L38 157 ZM49 158 L208 158 L208 145 L49 145 L49 158 ZM204 157 L219 157 L219 61 L204 61 L204 157 ZM49 73 L208 73 L208 61 L49 61 L49 73 ZM49 116 L210 116 L210 103 L49 103 L49 116 Z" /><glyph glyph-name="" unicode="&#x6700;" d="M10 112 L245 112 L245 101 L10 101 L10 112 ZM42 78 L111 78 L111 67 L42 67 L42 78 ZM43 44 L113 44 L113 34 L43 34 L43 44 ZM36 105 L48 105 L48 0 L36 0 L36 105 ZM106 106 L118 106 L118 -25 L106 -25 L106 106 ZM142 19 Q142 14 142 7 Q82 0 19 -10 L13 2 Q80 10 142 19 ZM135 79 L227 79 L227 68 L135 68 L135 79 ZM221 79 L232 79 L232 68 Q222 33 195 10 Q171 -10 136 -22 Q132 -15 129 -11 Q163 -2 186 18 Q211 39 221 72 L221 79 ZM143 72 L155 72 Q166 37 191 15 Q212 -2 243 -10 Q240 -15 236 -21 Q203 -10 182 8 Q153 33 143 72 ZM46 199 L60 199 L60 131 L46 131 L46 199 ZM52 199 L203 199 L203 189 L52 189 L52 199 ZM196 199 L209 199 L209 131 L196 131 L196 199 ZM53 141 L203 141 L203 131 L53 131 L53 141 ZM52 170 L203 170 L203 160 L52 160 L52 170 Z" /><glyph glyph-name="" unicode="&#x6708;" d="M62 134 L200 134 L200 121 L62 121 L62 134 ZM59 70 L201 70 L201 57 L59 57 L59 70 ZM59 199 L203 199 L203 186 L59 186 L59 199 ZM195 199 L210 199 L210 12 Q210 -20 177 -20 Q163 -20 144 -20 Q143 -13 141 -5 Q159 -6 176 -6 Q195 -6 195 13 L195 199 ZM53 199 L67 199 L67 116 Q67 71 61 40 Q51 2 29 -25 Q23 -19 17 -14 Q38 11 47 45 Q53 73 53 118 L53 199 Z" /><glyph glyph-name="" unicode="&#x6709;" d="M68 88 L208 88 L208 76 L68 76 L68 88 ZM70 43 L209 43 L209 31 L70 31 L70 43 ZM62 135 L74 135 L74 -22 L62 -22 L62 135 ZM68 134 L215 134 L215 122 L68 122 L68 134 ZM202 131 L215 131 L215 4 Q215 -20 191 -20 Q179 -20 161 -19 Q160 -13 159 -6 Q169 -7 187 -7 Q202 -7 202 7 L202 131 ZM16 177 L244 177 L244 164 L16 164 L16 177 ZM102 210 L118 205 Q89 130 19 71 Q15 76 10 83 Q78 139 102 210 Z" /><glyph glyph-name="" unicode="&#x670d;" d="M121 110 L226 110 L226 97 L121 97 L121 110 ZM220 110 L232 110 L232 98 Q217 21 139 -24 Q134 -17 130 -12 Q205 25 220 102 L220 110 ZM115 195 L129 195 L129 -24 L115 -24 L115 195 ZM119 195 L225 195 L225 182 L119 182 L119 195 ZM218 195 L231 195 Q231 174 230 160 Q228 132 200 133 Q186 133 163 133 Q162 140 161 148 Q181 146 199 146 Q215 146 216 162 Q217 177 218 195 ZM155 108 Q168 18 247 -10 Q241 -16 237 -22 Q157 10 144 104 L155 108 ZM35 135 L84 135 L84 123 L35 123 L35 135 ZM35 74 L85 74 L85 62 L35 62 L35 74 ZM35 196 L84 196 L84 184 L35 184 L35 196 ZM79 196 L92 196 L92 4 Q92 -21 72 -21 Q62 -21 50 -20 Q49 -15 47 -6 Q59 -8 69 -8 Q79 -8 79 7 L79 196 ZM27 196 L40 196 L40 99 Q40 53 35 25.5 Q30 -2 18 -24 Q14 -18 9 -11 Q19 9 23 34 Q27 61 27 98 L27 196 Z" /><glyph glyph-name="" unicode="&#x672c;" d="M15 166 L240 166 L240 153 L15 153 L15 166 ZM63 37 L190 37 L190 25 L63 25 L63 37 ZM121 210 L135 210 L135 -24 L121 -24 L121 210 ZM118 159 L127 155 Q87 71 22 18 Q16 25 10 31 Q73 76 118 159 ZM138 161 Q172 84 243 36 Q238 31 230 23 Q159 78 130 158 L138 161 Z" /><glyph glyph-name="" unicode="&#x673a;" d="M122 193 L197 193 L197 179 L122 179 L122 193 ZM187 193 L202 193 L202 10 Q202 1 210 1 L218 1 Q226 1 228 13 Q230 29 231 53 Q239 50 245 47 Q244 29 241 8 Q237 -14 219 -14 L207 -14 Q187 -14 187 10 L187 193 ZM117 193 L132 193 L132 99 Q132 14 87 -23 Q82 -18 76 -12 Q117 20 117 98 L117 193 ZM13 160 L98 160 L98 148 L13 148 L13 160 ZM48 208 L61 208 L61 -22 L48 -22 L48 208 ZM47 153 L55 149 Q40 85 13 40 Q11 49 8 59 Q34 103 47 153 ZM68 120 Q86 100 101 83 L91 74 Q73 96 58 112 L68 120 Z" /><glyph glyph-name="" unicode="&#x6765;" d="M27 175 L230 175 L230 163 L27 163 L27 175 ZM13 94 L243 94 L243 82 L13 82 L13 94 ZM121 210 L135 210 L135 -24 L121 -24 L121 210 ZM57 150 Q70 135 89 115 L78 106 Q61 126 48 141 L57 150 ZM195 150 L208 143 Q194 125 176 107 L165 114 Q182 133 195 150 ZM111 83 L124 83 Q91 25 22 -11 Q18 -5 13 1 Q73 29 111 83 ZM131 98 Q173 39 244 10 Q239 4 233 -3 Q166 29 129 86 L131 98 Z" /><glyph glyph-name="" unicode="&#x6781;" d="M14 158 L92 158 L92 146 L14 146 L14 158 ZM46 206 L58 206 L58 -23 L46 -23 L46 206 ZM45 152 L52 147 Q39 83 14 38 Q12 48 9 58 Q34 102 45 152 ZM64 118 Q81 98 95 81 L85 73 Q69 94 55 111 L64 118 ZM101 194 L210 194 L210 182 L101 182 L101 194 ZM204 194 L217 194 L217 179 L188 123 L188 115 L176 115 L176 129 L204 187 L204 194 ZM180 127 L228 127 L228 115 L180 115 L180 127 ZM221 127 L235 127 L235 113 Q207 22 128 -23 Q123 -17 117 -12 Q197 32 221 115 L221 127 ZM120 192 L134 192 Q134 163 134 143 Q133 89 127 60 Q116 15 78 -22 Q74 -16 68 -11 Q106 25 114 71 Q118 92 120 143 Q120 162 120 192 ZM127 160 Q148 77 183 39 Q210 10 244 -7 Q238 -13 233 -20 Q200 0 174 28 Q140 66 124 141 L127 160 Z" /><glyph glyph-name="" unicode="&#x6784;" d="M14 158 L92 158 L92 146 L14 146 L14 158 ZM46 206 L58 206 L58 -23 L46 -23 L46 206 ZM45 152 L52 147 Q39 83 14 38 Q12 48 9 58 Q34 102 45 152 ZM64 118 Q81 98 95 81 L85 73 Q69 94 55 111 L64 118 ZM117 172 L229 172 L229 159 L117 159 L117 172 ZM221 172 L237 172 Q235 79 232 24 Q230 -19 188 -19 Q163 -19 139 -18 Q138 -9 136 -3 Q163 -6 186 -6 Q215 -6 216 26 Q219 77 221 172 ZM130 210 L145 206 Q122 151 94 119 Q88 126 84 131 Q113 164 130 210 ZM149 136 L163 131 Q142 94 111 54 Q142 56 182 57 L182 45 Q136 43 110 41 Q101 40 93 38 L87 51 Q94 55 101 63 Q129 98 149 136 ZM169 90 Q186 63 201 38 L187 31 Q172 59 156 84 L169 90 Z" /><glyph glyph-name="" unicode="&#x6790;" d="M15 160 L95 160 L95 147 L15 147 L15 160 ZM48 208 L60 208 L60 -24 L48 -24 L48 208 ZM47 153 L54 148 Q41 84 15 39 Q13 48 10 58 Q35 102 47 153 ZM66 119 Q84 99 98 82 L88 73 Q71 95 57 112 L66 119 ZM125 114 L246 114 L246 101 L125 101 L125 114 ZM188 109 L204 109 L204 -23 L188 -23 L188 109 ZM229 200 L236 186 Q185 180 113 177 L113 191 Q180 193 229 200 ZM114 182 L130 182 L130 97 Q130 26 95 -22 Q89 -17 80 -11 Q114 31 114 103 L114 182 Z" /><glyph glyph-name="" unicode="&#x679c;" d="M14 69 L241 69 L241 56 L14 56 L14 69 ZM121 191 L135 191 L135 -24 L121 -24 L121 191 ZM109 59 L124 57 Q90 12 19 -18 Q16 -11 12 -5 Q73 19 109 59 ZM126 79 Q169 24 243 -3 Q238 -8 232 -16 Q161 14 123 68 L126 79 ZM40 197 L54 197 L54 101 L40 101 L40 197 ZM50 198 L206 198 L206 185 L50 185 L50 198 ZM202 197 L216 197 L216 101 L202 101 L202 197 ZM50 114 L206 114 L206 101 L50 101 L50 114 ZM50 156 L207 156 L207 143 L50 143 L50 156 Z" /><glyph glyph-name="" unicode="&#x67b6;" d="M14 70 L241 70 L241 55 L14 55 L14 70 ZM121 89 L135 89 L135 -25 L121 -25 L121 89 ZM112 67 L127 65 Q91 14 17 -20 Q14 -13 9 -6 Q74 22 112 67 ZM143 66 Q177 19 244 2 Q238 -8 236 -14 Q164 9 132 60 L143 66 ZM145 187 L159 187 L159 100 L145 100 L145 187 ZM150 187 L223 187 L223 174 L150 174 L150 187 ZM216 187 L230 187 L230 100 L216 100 L216 187 ZM151 113 L225 113 L225 100 L151 100 L151 113 ZM17 180 L109 180 L109 167 L17 167 L17 180 ZM109 180 L122 180 Q120 135 118 119 Q116 98 90 98 Q81 98 69 98 Q68 105 65 112 Q81 111 91 111 Q104 111 105 123 Q106 139 109 180 ZM51 209 L65 209 Q65 191 64 183 Q61 126 26 92 Q22 95 15 101 Q48 131 51 183 Q51 190 51 209 Z" /><glyph glyph-name="" unicode="&#x67d0;" d="M58 210 L71 210 L71 91 L58 91 L58 210 ZM65 103 L191 103 L191 91 L65 91 L65 103 ZM184 210 L198 210 L198 91 L184 91 L184 210 ZM12 184 L245 184 L245 172 L12 172 L12 184 ZM65 143 L191 143 L191 132 L65 132 L65 143 ZM14 64 L241 64 L241 50 L14 50 L14 64 ZM121 81 L135 81 L135 -25 L121 -25 L121 81 ZM112 60 L127 59 Q91 12 17 -20 Q14 -14 9 -7 Q74 18 112 60 ZM143 60 Q177 16 244 0 Q238 -9 236 -15 Q164 7 132 54 L143 60 Z" /><glyph glyph-name="" unicode="&#x67e5;" d="M24 182 L233 182 L233 171 L24 171 L24 182 ZM122 210 L135 210 L135 118 L122 118 L122 210 ZM114 177 L129 176 Q93 136 19 109 Q15 114 11 120 Q76 142 114 177 ZM144 176 Q178 140 244 127 Q238 120 236 115 Q164 133 133 171 L144 176 ZM47 116 L60 116 L60 26 L47 26 L47 116 ZM53 116 L204 116 L204 104 L53 104 L53 116 ZM196 116 L209 116 L209 26 L196 26 L196 116 ZM53 38 L202 38 L202 26 L53 26 L53 38 ZM53 77 L202 77 L202 65 L53 65 L53 77 ZM12 -2 L244 -2 L244 -14 L12 -14 L12 -2 Z" /><glyph glyph-name="" unicode="&#x6807;" d="M15 157 L93 157 L93 145 L15 145 L15 157 ZM49 207 L63 207 L63 -23 L49 -23 L49 207 ZM52 154 L61 149 Q45 86 16 42 Q14 51 10 61 Q39 104 52 154 ZM70 115 Q81 104 97 88 L87 81 Q72 96 61 108 L70 115 ZM102 194 L234 194 L234 180 L102 180 L102 194 ZM89 131 L248 131 L248 118 L89 118 L89 131 ZM161 127 L175 127 L175 7 Q175 -21 147 -21 Q132 -21 118 -21 Q117 -13 115 -6 Q128 -7 145 -7 Q161 -7 161 8 L161 127 ZM123 86 L136 81 Q120 39 100 -1 L87 5 Q106 43 123 86 ZM214 86 Q233 47 249 8 L235 3 Q220 43 201 81 L214 86 Z" /><glyph glyph-name="" unicode="&#x6837;" d="M15 158 L93 158 L93 145 L15 145 L15 158 ZM49 208 L63 208 L63 -26 L49 -26 L49 208 ZM52 154 L61 149 Q45 85 16 40 Q14 49 10 59 Q39 104 52 154 ZM70 114 Q81 103 97 87 L87 79 Q72 95 61 108 L70 114 ZM100 164 L242 164 L242 151 L100 151 L100 164 ZM108 109 L234 109 L234 95 L108 95 L108 109 ZM95 51 L245 51 L245 38 L95 38 L95 51 ZM161 158 L177 158 L177 -25 L161 -25 L161 158 ZM130 208 Q139 197 151 182 L138 172 Q127 189 117 200 L130 208 ZM208 209 L223 199 Q209 180 194 160 L176 160 Q194 185 208 209 Z" /><glyph glyph-name="" unicode="&#x6838;" d="M13 158 L89 158 L89 146 L13 146 L13 158 ZM46 208 L60 208 L60 -24 L46 -24 L46 208 ZM49 154 L57 150 Q42 86 13 41 Q11 50 8 60 Q36 104 49 154 ZM66 115 Q77 104 93 88 L84 80 Q69 96 58 108 L66 115 ZM99 175 L247 175 L247 163 L99 163 L99 175 ZM171 210 Q179 196 186 183 L173 177 Q167 190 159 204 L171 210 ZM152 171 L168 170 Q145 136 121 106 Q156 108 184 110 L184 99 Q155 97 125 93 Q117 92 109 89 L101 106 Q109 111 118 122 Q135 144 152 171 ZM203 143 L217 137 Q175 62 98 24 Q94 31 89 37 Q167 73 203 143 ZM226 97 L239 90 Q195 13 109 -24 Q105 -16 99 -10 Q184 22 226 97 ZM193 39 Q222 14 247 -9 L234 -19 Q209 7 181 31 L193 39 Z" /><glyph glyph-name="" unicode="&#x683c;" d="M13 159 L92 159 L92 146 L13 146 L13 159 ZM47 209 L62 209 L62 -25 L47 -25 L47 209 ZM51 155 L59 150 Q44 86 14 41 Q12 50 8 60 Q37 105 51 155 ZM68 115 Q80 104 96 88 L86 80 Q71 97 60 109 L68 115 ZM110 65 L125 65 L125 -24 L110 -24 L110 65 ZM122 65 L216 65 L216 52 L122 52 L122 65 ZM213 64 L227 64 L227 -24 L213 -24 L213 64 ZM120 1 L215 1 L215 -12 L120 -12 L120 1 ZM128 183 L223 183 L223 170 L128 170 L128 183 ZM216 183 L228 183 L228 168 Q191 103 102 68 Q99 75 94 83 Q178 111 216 173 L216 183 ZM137 209 L151 204 Q128 157 101 126 Q98 131 92 139 Q121 172 137 209 ZM130 172 Q164 106 246 89 Q242 84 240 73 Q159 93 122 161 L130 172 Z" /><glyph glyph-name="" unicode="&#x6a21;" d="M11 158 L90 158 L90 146 L11 146 L11 158 ZM44 207 L56 207 L56 -26 L44 -26 L44 207 ZM43 152 L50 147 Q37 82 11 37 Q10 46 7 56 Q31 101 43 152 ZM62 118 Q80 97 93 80 L84 72 Q67 93 53 110 L62 118 ZM99 147 L113 147 L113 65 L99 65 L99 147 ZM104 147 L225 147 L225 135 L104 135 L104 147 ZM216 147 L230 147 L230 65 L216 65 L216 147 ZM104 76 L225 76 L225 65 L104 65 L104 76 ZM104 111 L226 111 L226 100 L104 100 L104 111 ZM86 42 L245 42 L245 30 L86 30 L86 42 ZM86 186 L243 186 L243 174 L86 174 L86 186 ZM128 209 L142 209 L142 156 L128 156 L128 209 ZM187 209 L201 209 L201 156 L187 156 L187 209 ZM157 74 L171 74 Q171 50 167 34 Q154 -8 86 -24 Q83 -19 78 -12 Q143 1 153 36 Q157 49 157 74 ZM169 35 Q195 0 244 -8 Q238 -16 234 -22 Q183 -7 158 30 L169 35 Z" /><glyph glyph-name="" unicode="&#x6b21;" d="M24 192 Q45 171 65 148 L52 137 Q33 161 12 182 L24 192 ZM51 95 Q57 90 65 85 Q46 39 25 -10 L10 -1 Q31 42 51 95 ZM113 172 L235 172 L235 158 L113 158 L113 172 ZM233 172 L241 172 L241 156 Q227 132 213 112 Q207 116 198 120 Q215 142 233 172 ZM116 208 L134 204 Q120 154 94 111 Q88 116 80 121 Q105 161 116 208 ZM151 136 L166 136 Q166 102 160 76 Q147 9 70 -25 Q64 -17 58 -11 Q129 14 144 76 Q151 101 151 136 ZM150 104 L164 104 Q182 33 247 -10 Q240 -16 234 -25 Q169 23 150 104 Z" /><glyph glyph-name="" unicode="&#x6b3e;" d="M24 109 L116 109 L116 97 L24 97 L24 109 ZM12 73 L130 73 L130 61 L12 61 L12 73 ZM65 67 L79 67 L79 9 Q79 -17 57 -18 Q46 -18 33 -18 Q32 -11 30 -3 Q45 -4 53 -4 Q65 -4 65 10 L65 67 ZM34 49 L45 41 Q33 21 18 0 L8 8 Q23 29 34 49 ZM106 48 Q114 36 125 16 L112 9 Q104 25 95 42 L106 48 ZM10 188 L130 188 L130 174 L10 174 L10 188 ZM20 147 L121 147 L121 133 L20 133 L20 147 ZM64 210 L77 210 L77 141 L64 141 L64 210 ZM148 177 L238 177 L238 164 L148 164 L148 177 ZM233 177 L242 177 L242 161 Q235 136 226 112 Q220 114 213 117 Q223 140 233 177 ZM151 210 L166 208 Q151 148 135 109 Q128 112 121 115 Q142 162 151 210 ZM171 136 L185 136 Q185 97 180 73 Q168 19 125 -23 Q121 -17 114 -10 Q158 29 168 83 Q171 100 171 136 ZM172 107 L183 107 Q196 35 247 -9 Q241 -15 237 -24 Q187 24 172 107 Z" /><glyph glyph-name="" unicode="&#x6b65;" d="M133 173 L224 173 L224 160 L133 160 L133 173 ZM14 118 L243 118 L243 105 L14 105 L14 118 ZM126 210 L141 210 L141 113 L126 113 L126 210 ZM54 187 L69 187 L69 114 L54 114 L54 187 ZM124 95 L139 95 L139 28 L124 28 L124 95 ZM74 85 L86 78 Q62 47 26 22 Q22 26 15 32 Q49 52 74 85 ZM213 74 L225 63 Q190 26 140 5 Q80 -19 20 -26 Q19 -22 14 -11 Q77 -4 131 17 Q181 39 213 74 Z" /><glyph glyph-name="" unicode="&#x6b66;" d="M98 77 L147 77 L147 65 L98 65 L98 77 ZM88 114 L102 114 L102 8 L88 8 L88 114 ZM37 98 L51 98 L51 2 L37 2 L37 98 ZM163 19 Q163 10 163 5 Q80 -3 16 -10 L13 5 Q75 10 163 19 ZM33 187 L136 187 L136 175 L33 175 L33 187 ZM12 136 L245 136 L245 123 L12 123 L12 136 ZM155 206 L168 206 Q168 169 170 130 Q173 77 182 47 Q189 21 208 1 Q215 -5 220.5 -5 Q226 -5 228 5 Q232 21 234 42 Q239 38 247 36 Q243 14 240 0 Q235 -20 221 -20 Q211 -20 200 -10 Q181 7 171 40 Q160 75 157 128 Q155 160 155 206 ZM197 197 Q214 183 232 168 L221 157 Q204 174 187 189 L197 197 Z" /><glyph glyph-name="" unicode="&#x6bb5;" d="M36 144 L103 144 L103 132 L36 132 L36 144 ZM35 91 L102 91 L102 79 L35 79 L35 91 ZM28 184 L41 184 L41 -23 L28 -23 L28 184 ZM108 201 L113 188 Q80 184 28 180 L28 194 Q75 197 108 201 ZM112 48 Q111 44 111 36 Q64 28 13 17 L9 31 Q62 39 112 48 ZM146 197 L210 197 L210 185 L146 185 L146 197 ZM139 197 L154 197 L154 163 Q154 127 121 105 Q116 112 111 117 Q139 134 139 164 L139 197 ZM198 197 L212 197 L212 141 Q212 127 229 127 Q238 127 249 127 Q247 119 246 115 Q233 115 224 115 Q198 115 198 140 L198 197 ZM120 97 L221 97 L221 84 L120 84 L120 97 ZM214 97 L227 97 L227 85 Q200 8 107 -25 Q103 -19 98 -13 Q191 17 214 90 L214 97 ZM141 89 Q160 15 243 -8 Q236 -16 233 -21 Q147 9 130 86 L141 89 Z" /><glyph glyph-name="" unicode="&#x6bcf;" d="M58 189 L240 189 L240 176 L58 176 L58 189 ZM11 88 L246 88 L246 75 L11 75 L11 88 ZM40 27 L237 27 L237 14 L40 14 L40 27 ZM58 149 L73 149 L50 27 L50 14 L36 14 L36 30 L58 149 ZM58 149 L207 149 L207 136 L58 136 L58 149 ZM198 149 L213 149 L208 20 Q206 -21 170 -21 Q150 -21 134 -20 Q132 -12 131 -5 Q146 -7 168 -7 Q191 -7 193 21 L198 149 ZM117 130 Q132 117 145 107 L134 96 Q121 109 107 121 L117 130 ZM116 69 Q131 56 143 45 L133 35 Q120 48 106 60 L116 69 ZM65 213 L81 209 Q55 164 22 132 Q17 141 14 145 Q42 171 65 213 Z" /><glyph glyph-name="" unicode="&#x6bd4;" d="M40 130 L111 130 L111 115 L40 115 L40 130 ZM28 203 L43 203 L43 9 Q75 23 108 38 Q109 29 109 21 Q79 9 50 -4 Q40 -9 32 -16 L20 0 Q28 7 28 18 L28 203 ZM132 209 L147 209 L147 16 Q147 -1 164 -1 L206 -1 Q223 -1 225 14 Q227 29 229 50 Q234 48 245 44 Q243 24 240 8 Q236 -15 208 -15 L159 -15 Q132 -15 132 15 L132 209 ZM228 174 L239 162 Q202 127 137 96 Q136 103 135 111 Q193 140 228 174 Z" /><glyph glyph-name="" unicode="&#x6beb;" d="M112 70 L125 70 L125 39 L112 39 L112 70 ZM112 43 L125 43 L125 0 Q125 -8 135 -8 L201 -8 Q216 -8 218 0 Q219 6 220 16 Q227 14 234 12 Q232 2 230 -4 Q226 -18 205 -18 L132 -18 Q112 -18 112 0 L112 43 ZM213 84 L217 74 Q124 67 37 63 Q36 68 33 74 Q124 78 213 84 ZM213 56 L214 45 L32 34 L31 45 L213 56 ZM238 31 L239 20 L19 8 L16 18 L238 31 ZM48 161 L62 161 L62 122 L48 122 L48 161 ZM57 161 L200 161 L200 151 L57 151 L57 161 ZM192 161 L206 161 L206 122 L192 122 L192 161 ZM57 132 L200 132 L200 122 L57 122 L57 132 ZM17 105 L31 105 L31 73 L17 73 L17 105 ZM25 105 L234 105 L234 95 L25 95 L25 105 ZM223 105 L238 105 L238 73 L223 73 L223 105 ZM13 188 L242 188 L242 177 L13 177 L13 188 ZM128 210 Q136 197 142 184 L128 179 Q123 191 114 205 L128 210 Z" /><glyph glyph-name="" unicode="&#x6c14;" d="M62 143 L216 143 L216 131 L62 131 L62 143 ZM58 183 L233 183 L233 170 L58 170 L58 183 ZM35 103 L190 103 L190 90 L35 90 L35 103 ZM188 104 L202 104 L202 81 Q202 21 216 -2 Q224 -14 228 2 Q230 17 232 40 Q241 37 247 36 Q243 8 240 -7 Q235 -24 222 -24 Q211 -24 203 -9 Q188 18 188 80 L188 104 ZM57 209 L72 205 Q49 140 17 100 Q13 106 8 111 Q38 152 57 209 Z" /><glyph glyph-name="" unicode="&#x6c42;" d="M15 166 L243 166 L243 152 L15 152 L15 166 ZM121 210 L136 210 L136 7 Q136 -21 109 -21 Q94 -21 78 -20 Q76 -12 74 -5 Q89 -6 105 -6 Q121 -6 121 9 L121 210 ZM177 210 Q192 196 206 184 L194 173 Q181 187 166 200 L177 210 ZM49 133 Q63 117 84 94 L72 84 Q53 107 38 124 L49 133 ZM216 132 L227 122 Q200 92 169 67 Q164 73 160 79 Q195 105 216 132 ZM107 75 Q109 66 110 58 Q65 35 20 10 L12 26 Q62 49 107 75 ZM135 138 Q173 54 245 17 Q239 10 233 3 Q171 38 135 107 L135 138 Z" /><glyph glyph-name="" unicode="&#x6c5f;" d="M34 204 Q57 186 75 172 L63 160 Q44 177 24 193 L34 204 ZM25 140 Q44 127 67 110 L56 98 Q35 115 15 129 L25 140 ZM20 -16 Q35 21 48 72 Q58 67 65 65 Q47 12 37 -23 L20 -16 ZM94 184 L236 184 L236 171 L94 171 L94 184 ZM87 6 L245 6 L245 -7 L87 -7 L87 6 ZM156 177 L173 177 L173 0 L156 0 L156 177 Z" /><glyph glyph-name="" unicode="&#x6c88;" d="M28 206 Q50 188 67 173 L56 162 Q38 179 18 195 L28 206 ZM20 142 Q38 129 59 111 L48 99 Q29 117 10 131 L20 142 ZM15 -14 Q29 23 42 73 Q51 69 57 67 Q41 14 31 -21 L15 -14 ZM80 169 L95 169 L95 119 L80 119 L80 169 ZM87 169 L228 169 L228 156 L87 156 L87 169 ZM220 169 L234 169 L234 120 L220 120 L220 169 ZM142 208 L157 208 Q156 168 155 144 Q152 96 138 62 Q118 14 70 -23 Q66 -17 60 -10 Q105 23 126 72 Q138 102 141 144 Q142 161 142 208 ZM161 117 L174 117 L174 10 Q174 -5 187 -5 L213 -5 Q227 -5 229 9 Q230 20 231 37 Q237 33 244 31 Q242 16 240 4 Q237 -17 214 -17 L187 -17 Q161 -17 161 11 L161 117 Z" /><glyph glyph-name="" unicode="&#x6c9f;" d="M99 176 L225 176 L225 162 L99 162 L99 176 ZM217 176 L231 176 Q229 80 227 24 Q225 -21 186 -21 Q163 -21 141 -20 Q140 -10 138 -4 Q163 -7 185 -7 Q211 -7 212 25 Q215 78 217 176 ZM110 210 L124 206 Q103 151 77 118 Q72 125 67 130 Q95 163 110 210 ZM132 143 L145 138 Q122 93 92 48 Q143 51 190 55 L190 42 Q127 38 93 35 Q87 34 74 30 L67 47 Q79 53 87 66 Q116 109 132 143 ZM160 103 Q182 70 202 34 L190 27 Q171 62 148 97 L160 103 ZM28 206 Q50 188 67 173 L56 162 Q38 179 18 195 L28 206 ZM20 142 Q38 129 59 111 L48 99 Q29 117 10 131 L20 142 ZM15 -14 Q29 23 42 73 Q51 69 57 67 Q41 14 31 -21 L15 -14 Z" /><glyph glyph-name="" unicode="&#x6cdb;" d="M28 206 Q50 188 67 173 L56 162 Q38 179 18 195 L28 206 ZM20 142 Q38 129 59 111 L48 99 Q29 117 10 131 L20 142 ZM15 -14 Q29 23 42 73 Q51 69 57 67 Q41 14 31 -21 L15 -14 ZM85 121 L213 121 L213 107 L85 107 L85 121 ZM208 121 L223 121 L223 106 Q184 58 116 17 L102 25 Q168 64 208 109 L208 121 ZM230 196 L233 184 Q159 176 90 171 Q89 177 87 184 Q160 188 230 196 ZM155 166 Q163 151 169 135 L156 129 Q151 143 142 160 L155 166 ZM102 26 L111 26 Q129 0 179 0 Q216 -1 247 1 Q242 -7 239 -15 Q207 -15 175 -14 Q126 -14 105 11 Q91 0 73 -16 L63 -1 Q83 13 102 26 Z" /><glyph glyph-name="" unicode="&#x6ce8;" d="M28 206 Q50 188 67 173 L56 162 Q38 179 18 195 L28 206 ZM20 142 Q38 129 59 111 L48 99 Q29 117 10 131 L20 142 ZM15 -14 Q29 23 42 73 Q51 69 57 67 Q41 14 31 -21 L15 -14 ZM81 168 L240 168 L240 154 L81 154 L81 168 ZM90 90 L229 90 L229 77 L90 77 L90 90 ZM70 3 L246 3 L246 -10 L70 -10 L70 3 ZM151 158 L166 158 L166 -7 L151 -7 L151 158 ZM151 209 Q160 197 171 181 L158 172 Q148 189 139 201 L151 209 Z" /><glyph glyph-name="" unicode="&#x6d41;" d="M77 179 L238 179 L238 166 L77 166 L77 179 ZM142 84 L156 84 L156 -19 L142 -19 L142 84 ZM149 213 Q161 198 167 188 L155 180 Q151 186 137 206 L149 213 ZM138 167 L152 161 Q126 136 101 115 Q158 117 215 120 L222 108 Q152 105 106 102 Q92 101 83 99 L76 115 Q85 119 95 127 Q117 144 138 167 ZM189 151 Q216 124 239 99 L227 89 Q207 113 179 142 L189 151 ZM96 84 L110 84 Q110 48 103 25 Q94 -4 60 -26 Q57 -21 51 -13 Q79 4 88 26 Q96 49 96 84 ZM189 85 L202 85 L202 0 Q202 -9 211 -9 L220 -9 Q228 -9 230 0 Q231 11 232 29 Q240 27 246 25 Q244 8 243 -2 Q240 -21 222 -21 L210 -21 Q187 -21 189 1 L189 85 ZM38 72 Q46 68 51 66 Q44 35 30 -21 L16 -16 Q30 30 38 72 ZM19 142 Q40 126 54 115 L44 104 Q29 118 11 133 L19 142 ZM30 203 Q49 188 66 173 L55 162 Q38 180 21 194 L30 203 Z" /><glyph glyph-name="" unicode="&#x6d4f;" d="M66 168 L165 168 L165 155 L66 155 L66 168 ZM177 183 L190 183 L190 33 L177 33 L177 183 ZM113 210 Q121 196 127 180 L114 175 Q109 188 100 205 L113 210 ZM145 166 L158 163 Q134 47 54 -21 Q51 -14 47 -7 Q124 56 145 166 ZM82 133 Q124 66 160 7 L148 -2 Q110 64 73 126 L82 133 ZM222 209 L235 209 L235 8 Q235 -20 210 -20 Q197 -20 184 -19 Q184 -16 181 -5 Q196 -6 209 -6 Q222 -6 222 10 L222 209 ZM37 72 Q46 68 51 66 Q44 35 31 -21 L15 -16 Q29 27 37 72 ZM27 205 Q45 189 57 179 L47 168 Q34 182 18 195 L27 205 ZM18 141 Q39 125 52 112 L42 100 Q27 116 9 131 L18 141 Z" /><glyph glyph-name="" unicode="&#x6d51;" d="M28 206 Q50 188 67 173 L56 162 Q38 179 18 195 L28 206 ZM20 142 Q38 129 59 111 L48 99 Q29 117 10 131 L20 142 ZM15 -14 Q29 23 42 73 Q51 69 57 67 Q41 14 31 -21 L15 -14 ZM81 196 L97 196 L97 158 L81 158 L81 196 ZM89 196 L229 196 L229 183 L89 183 L89 196 ZM222 196 L237 196 L237 158 L222 158 L222 196 ZM78 142 L241 142 L241 129 L78 129 L78 142 ZM68 36 L245 36 L245 23 L68 23 L68 36 ZM156 113 L172 113 L172 -23 L156 -23 L156 113 ZM134 175 L151 172 Q126 117 102 82 L102 70 L85 70 L85 82 Q113 123 134 175 ZM95 83 L232 83 L232 70 L95 70 L95 83 Z" /><glyph glyph-name="" unicode="&#x6d77;" d="M38 72 Q46 68 51 66 Q44 35 30 -21 L16 -16 Q30 30 38 72 ZM19 142 Q40 126 54 115 L44 104 Q29 118 11 133 L19 142 ZM30 203 Q49 188 66 173 L55 162 Q38 180 21 194 L30 203 ZM99 188 L242 188 L242 175 L99 175 L99 188 ZM58 89 L248 89 L248 76 L58 76 L58 89 ZM86 27 L241 27 L241 15 L86 15 L86 27 ZM95 151 L110 151 L93 15 L78 15 L95 151 ZM99 151 L215 151 L215 138 L99 138 L99 151 ZM206 151 L221 151 Q219 64 217 18 Q215 -22 180 -22 Q164 -22 143 -21 Q142 -13 140 -5 Q164 -8 178 -8 Q200 -8 201 15 Q204 63 206 151 ZM110 214 L125 209 Q101 167 72 140 Q69 144 62 151 Q93 181 110 214 ZM145 130 Q160 118 173 108 L162 98 Q149 110 135 122 L145 130 ZM141 68 Q156 56 168 45 L157 36 Q145 48 131 59 L141 68 Z" /><glyph glyph-name="" unicode="&#x6d88;" d="M28 206 Q50 188 67 173 L56 162 Q38 179 18 195 L28 206 ZM20 142 Q38 129 59 111 L48 99 Q29 117 10 131 L20 142 ZM15 -14 Q29 23 42 73 Q51 69 57 67 Q41 14 31 -21 L15 -14 ZM92 93 L226 93 L226 80 L92 80 L92 93 ZM94 46 L226 46 L226 33 L94 33 L94 46 ZM152 210 L167 210 L167 133 L152 133 L152 210 ZM87 141 L102 141 L102 -23 L87 -23 L87 141 ZM96 141 L223 141 L223 128 L96 128 L96 141 ZM217 141 L232 141 L232 6 Q232 -21 204 -21 Q186 -21 170 -21 Q169 -12 167 -6 Q187 -7 205 -7 Q217 -7 217 9 L217 141 ZM94 200 Q114 182 129 166 L116 157 Q101 174 82 192 L94 200 ZM226 201 L238 192 Q218 172 198 155 L187 165 Q207 181 226 201 Z" /><glyph glyph-name="" unicode="&#x6dc0;" d="M28 206 Q50 188 67 173 L56 162 Q38 179 18 195 L28 206 ZM20 142 Q38 129 59 111 L48 99 Q29 117 10 131 L20 142 ZM15 -14 Q29 23 42 73 Q51 69 57 67 Q41 14 31 -21 L15 -14 ZM88 179 L102 179 L102 139 L88 139 L88 179 ZM95 180 L232 180 L232 167 L95 167 L95 180 ZM225 180 L239 180 L239 139 L225 139 L225 180 ZM87 121 L242 121 L242 108 L87 108 L87 121 ZM166 67 L236 67 L236 54 L166 54 L166 67 ZM159 119 L173 119 L173 -10 L159 -10 L159 119 ZM165 211 Q173 198 178 185 L164 180 Q158 194 152 207 L165 211 ZM102 85 L116 83 Q110 17 75 -24 Q70 -18 65 -12 Q98 24 102 85 ZM108 42 Q131 -1 177 -3 Q209 -4 246 -3 Q242 -10 240 -16 Q206 -17 175 -16 Q123 -13 99 31 L108 42 Z" /><glyph glyph-name="" unicode="&#x6e05;" d="M28 206 Q50 188 67 173 L56 162 Q38 179 18 195 L28 206 ZM20 142 Q38 129 59 111 L48 99 Q29 117 10 131 L20 142 ZM15 -14 Q29 23 42 73 Q51 69 57 67 Q41 14 31 -21 L15 -14 ZM80 190 L241 190 L241 178 L80 178 L80 190 ZM86 158 L234 158 L234 146 L86 146 L86 158 ZM73 126 L247 126 L247 114 L73 114 L73 126 ZM98 63 L219 63 L219 52 L98 52 L98 63 ZM99 31 L220 31 L220 19 L99 19 L99 31 ZM153 210 L168 210 L168 120 L153 120 L153 210 ZM91 96 L106 96 L106 -22 L91 -22 L91 96 ZM98 96 L227 96 L227 84 L98 84 L98 96 ZM212 87 L227 87 L227 4 Q227 -22 197 -22 Q186 -22 163 -21 Q162 -15 160 -7 Q180 -8 195 -8 Q212 -8 212 7 L212 87 Z" /><glyph glyph-name="" unicode="&#x6e90;" d="M38 72 Q46 68 51 66 Q44 35 30 -21 L16 -16 Q30 30 38 72 ZM19 142 Q40 126 54 115 L44 104 Q29 118 11 133 L19 142 ZM30 203 Q49 188 66 173 L55 162 Q38 180 21 194 L30 203 ZM119 149 L133 149 L133 58 L119 58 L119 149 ZM130 149 L219 149 L219 136 L130 136 L130 149 ZM215 149 L229 149 L229 58 L215 58 L215 149 ZM130 71 L219 71 L219 58 L130 58 L130 71 ZM129 109 L218 109 L218 97 L129 97 L129 109 ZM93 194 L246 194 L246 181 L93 181 L93 194 ZM82 194 L96 194 L96 103 Q96 17 63 -23 Q59 -17 52 -11 Q82 26 82 102 L82 194 ZM162 188 L177 182 Q170 162 163 143 L151 148 Q158 168 162 188 ZM166 67 L180 67 L180 -4 Q180 -24 160 -24 Q152 -24 136 -23 Q136 -18 134 -11 Q148 -12 156 -12 Q166 -12 166 -2 L166 67 ZM133 38 L143 29 Q127 9 108 -12 L100 -2 Q118 18 133 38 ZM210 40 Q224 24 242 2 L231 -8 Q214 14 200 31 L210 40 Z" /><glyph glyph-name="" unicode="&#x6ee1;" d="M68 182 L245 182 L245 170 L68 170 L68 182 ZM68 140 L244 140 L244 127 L68 127 L68 140 ZM114 209 L128 209 L128 149 L114 149 L114 209 ZM184 209 L198 209 L198 150 L184 150 L184 209 ZM74 99 L88 99 L88 -23 L74 -23 L74 99 ZM80 99 L237 99 L237 86 L80 86 L80 99 ZM224 95 L238 95 L238 0 Q238 -22 211 -22 Q196 -22 176 -22 Q175 -15 174 -8 Q195 -10 208 -10 Q224 -10 224 5 L224 95 ZM121 136 L134 136 L134 93 Q134 40 101 7 Q95 12 89 15 Q121 46 121 95 L121 136 ZM127 68 Q140 56 156 40 L148 30 Q136 43 120 59 L127 68 ZM178 134 L191 134 L191 91 Q191 37 158 4 Q153 8 147 12 Q178 43 178 92 L178 134 ZM182 66 Q205 43 221 25 L212 15 Q197 35 176 57 L182 66 ZM37 72 Q46 68 51 66 Q44 35 31 -21 L15 -16 Q29 27 37 72 ZM27 205 Q45 189 57 179 L47 168 Q34 182 18 195 L27 205 ZM18 141 Q39 125 52 112 L42 100 Q27 116 9 131 L18 141 Z" /><glyph glyph-name="" unicode="&#x70b9;" d="M128 181 L241 181 L241 168 L128 168 L128 181 ZM117 210 L132 210 L132 122 L117 122 L117 210 ZM95 34 Q105 11 114 -14 L100 -19 Q92 7 82 30 L95 34 ZM153 35 Q164 12 173 -12 L159 -16 Q150 10 140 31 L153 35 ZM211 36 Q226 12 241 -14 L227 -20 Q213 8 198 31 L211 36 ZM57 30 Q41 2 24 -21 L11 -14 Q30 9 44 35 L57 30 ZM41 128 L54 128 L54 52 L41 52 L41 128 ZM48 128 L212 128 L212 114 L48 114 L48 128 ZM205 128 L219 128 L219 52 L205 52 L205 128 ZM48 66 L212 66 L212 52 L48 52 L48 66 Z" /><glyph glyph-name="" unicode="&#x711a;" d="M212 66 L224 59 Q203 39 182 23 Q178 28 172 33 Q193 47 212 66 ZM123 89 L138 89 Q136 60 129 43 Q107 -9 21 -24 Q17 -18 13 -12 Q95 1 115 47 Q122 63 123 89 ZM42 68 Q64 49 81 34 L69 26 Q48 46 31 61 L42 68 ZM135 71 Q156 6 244 -14 Q237 -22 233 -26 Q141 0 123 69 L135 71 ZM18 178 L118 178 L118 165 L18 165 L18 178 ZM133 178 L237 178 L237 165 L133 165 L133 178 ZM64 209 L77 209 L77 87 L64 87 L64 209 ZM175 210 L188 210 L188 87 L175 87 L175 210 ZM62 167 L73 167 Q57 127 21 96 Q17 101 11 107 Q44 133 62 167 ZM82 147 Q101 136 122 124 L115 113 Q94 126 75 137 L82 147 ZM172 167 L183 167 Q167 128 131 97 Q127 102 121 108 Q154 134 172 167 ZM194 142 Q221 128 241 115 L233 103 Q212 118 186 132 L194 142 Z" /><glyph glyph-name="" unicode="&#x7126;" d="M51 175 L233 175 L233 162 L51 162 L51 175 ZM50 133 L224 133 L224 121 L50 121 L50 133 ZM50 92 L224 92 L224 80 L50 80 L50 92 ZM50 51 L237 51 L237 39 L50 39 L50 51 ZM137 170 L150 170 L150 43 L137 43 L137 170 ZM45 167 L59 167 L59 34 L45 34 L45 167 ZM60 206 L74 201 Q51 155 22 121 Q18 130 15 135 Q40 162 60 206 ZM133 211 Q142 200 153 186 L141 178 Q131 193 122 203 L133 211 ZM95 22 Q104 5 113 -12 L100 -19 Q93 -1 83 17 L95 22 ZM152 27 Q165 8 173 -9 L161 -16 Q152 2 141 21 L152 27 ZM50 17 Q40 -4 29 -24 Q24 -20 17 -17 Q29 3 38 23 L50 17 ZM211 27 Q228 7 243 -13 L232 -23 Q217 0 201 19 L211 27 Z" /><glyph glyph-name="" unicode="&#x7247;" d="M59 77 L182 77 L182 64 L59 64 L59 77 ZM175 77 L189 77 L189 -23 L175 -23 L175 77 ZM60 138 L244 138 L244 124 L60 124 L60 138 ZM164 208 L178 208 L178 129 L164 129 L164 208 ZM55 204 L70 204 L70 94 Q70 23 35 -22 Q29 -16 22 -10 Q55 31 55 94 L55 204 Z" /><glyph glyph-name="" unicode="&#x7248;" d="M30 80 L78 80 L78 69 L30 69 L30 80 ZM74 80 L87 80 L87 -19 L74 -19 L74 80 ZM32 130 L102 130 L102 119 L32 119 L32 130 ZM71 207 L83 207 L83 123 L71 123 L71 207 ZM27 200 L40 200 L40 84 Q40 18 23 -22 Q18 -16 12 -11 Q27 24 27 83 L27 200 ZM127 134 L229 134 L229 122 L127 122 L127 134 ZM223 134 L235 134 L235 121 Q224 59 192 21 Q171 -3 134 -24 Q129 -15 126 -11 Q161 8 183 31 Q212 65 223 125 L223 134 ZM241 200 L245 186 Q188 179 120 176 L120 189 Q185 191 241 200 ZM120 183 L133 183 L133 107 Q133 65 127 36 Q119 2 101 -23 Q96 -18 90 -13 Q108 10 116 41 Q120 67 120 108 L120 183 ZM160 128 Q172 27 246 -3 Q241 -10 237 -17 Q162 19 149 123 L160 128 Z" /><glyph glyph-name="" unicode="&#x7279;" d="M29 154 L96 154 L96 142 L29 142 L29 154 ZM57 208 L71 208 L71 -25 L57 -25 L57 208 ZM29 186 L42 181 Q33 137 18 102 Q12 107 7 111 Q23 146 29 186 ZM97 91 Q97 84 98 76 Q55 63 15 50 L13 66 Q55 78 97 91 ZM105 175 L235 175 L235 163 L105 163 L105 175 ZM95 123 L246 123 L246 111 L95 111 L95 123 ZM96 74 L247 74 L247 62 L96 62 L96 74 ZM163 209 L179 209 L179 115 L163 115 L163 209 ZM193 99 L209 99 L209 8 Q209 -23 173 -23 Q160 -23 145 -22 Q144 -15 141 -6 Q156 -8 173 -8 Q193 -8 193 9 L193 99 ZM126 50 Q140 37 154 22 L141 15 Q128 30 114 43 L126 50 Z" /><glyph glyph-name="" unicode="&#x7384;" d="M14 175 L244 175 L244 162 L14 162 L14 175 ZM126 212 Q139 196 145 186 L132 178 Q129 184 115 204 L126 212 ZM117 174 L133 167 Q97 129 62 99 Q120 100 161 101 L161 89 Q55 88 37 82 L32 98 Q42 101 50 107 Q89 140 117 174 ZM198 137 L211 128 Q139 62 59 5 Q134 12 221 13 L221 1 Q62 -4 36 -12 L29 6 Q38 9 47 14 Q130 74 198 137 ZM179 74 Q214 28 242 -12 L229 -22 Q202 20 167 66 L179 74 Z" /><glyph glyph-name="" unicode="&#x7387;" d="M12 41 L245 41 L245 28 L12 28 L12 41 ZM122 62 L137 62 L137 -30 L122 -30 L122 62 ZM28 156 Q45 143 64 128 L55 118 Q40 131 20 146 L28 156 ZM194 106 Q219 91 243 75 L233 63 Q210 81 185 95 L194 106 ZM224 154 L233 145 Q216 131 193 116 L185 126 Q208 142 224 154 ZM68 105 L76 93 Q49 79 20 65 Q17 71 12 77 Q41 89 68 105 ZM15 185 L240 185 L240 171 L15 171 L15 185 ZM125 212 Q132 196 137 178 L124 173 Q119 190 113 207 L125 212 ZM159 109 Q173 90 187 70 L177 62 Q164 83 150 102 L159 109 ZM159 150 L170 141 Q141 111 104 82 Q125 82 164 85 L171 73 Q118 71 86 69 L82 81 Q109 98 159 150 ZM121 172 L134 166 Q115 140 100 124 Q117 125 143 126 Q140 121 138 116 Q98 113 84 111 L79 124 Q93 129 121 172 Z" /><glyph glyph-name="" unicode="&#x73b0;" d="M13 189 L95 189 L95 176 L13 176 L13 189 ZM14 117 L92 117 L92 104 L14 104 L14 117 ZM47 184 L61 184 L61 25 L47 25 L47 184 ZM95 43 Q95 36 96 29 Q52 17 12 4 L10 19 Q52 30 95 43 ZM111 198 L125 198 L125 53 L111 53 L111 198 ZM119 198 L216 198 L216 184 L119 184 L119 198 ZM208 198 L222 198 L222 57 L208 57 L208 198 ZM159 162 L173 162 Q173 115 170 93 Q159 18 89 -24 Q85 -18 79 -12 Q146 26 157 94 Q159 108 159 162 ZM167 64 L180 64 L180 11 Q180 -3 193 -3 L211 -3 Q224 -3 226 9 Q229 22 230 37 Q238 34 244 32 Q242 18 239 5 Q235 -16 213 -16 L191 -16 Q167 -16 167 10 L167 64 Z" /><glyph glyph-name="" unicode="&#x73e0;" d="M14 184 L86 184 L86 172 L14 172 L14 184 ZM14 116 L84 116 L84 104 L14 104 L14 116 ZM44 179 L56 179 L56 29 L44 29 L44 179 ZM86 46 Q86 40 87 33 Q48 21 12 10 L10 24 Q48 34 86 46 ZM112 161 L226 161 L226 148 L112 148 L112 161 ZM94 101 L235 101 L235 89 L94 89 L94 101 ZM158 209 L172 209 L172 -25 L158 -25 L158 209 ZM154 94 L165 94 Q141 32 89 -9 Q85 -3 80 2 Q124 35 154 94 ZM171 99 Q204 32 247 7 Q241 1 235 -6 Q189 29 163 97 L171 99 ZM117 194 L131 192 Q119 147 103 116 Q98 120 91 125 Q106 153 117 194 Z" /><glyph glyph-name="" unicode="&#x7406;" d="M13 189 L90 189 L90 175 L13 175 L13 189 ZM13 114 L88 114 L88 100 L13 100 L13 114 ZM45 183 L58 183 L58 18 L45 18 L45 183 ZM90 36 Q90 29 91 21 Q50 9 11 -4 L9 12 Q49 23 90 36 ZM101 197 L115 197 L115 83 L101 83 L101 197 ZM108 197 L226 197 L226 185 L108 185 L108 197 ZM219 197 L232 197 L232 83 L219 83 L219 197 ZM109 95 L227 95 L227 83 L109 83 L109 95 ZM107 146 L226 146 L226 134 L107 134 L107 146 ZM98 48 L236 48 L236 36 L98 36 L98 48 ZM85 -2 L247 -2 L247 -14 L85 -14 L85 -2 ZM160 193 L174 193 L174 -9 L160 -9 L160 193 Z" /><glyph glyph-name="" unicode="&#x7528;" d="M44 132 L223 132 L223 119 L44 119 L44 132 ZM46 69 L225 69 L225 56 L46 56 L46 69 ZM127 187 L142 187 L142 -20 L127 -20 L127 187 ZM47 195 L223 195 L223 181 L47 181 L47 195 ZM217 195 L232 195 L232 5 Q232 -21 208 -21 Q192 -21 171 -21 Q170 -14 168 -5 Q189 -6 201 -6 Q217 -6 217 7 L217 195 ZM38 195 L53 195 L53 97 Q53 13 23 -25 Q18 -18 12 -11 Q38 23 38 95 L38 195 Z" /><glyph glyph-name="" unicode="&#x7545;" d="M19 173 L31 173 L31 47 L19 47 L19 173 ZM21 173 L99 173 L99 161 L21 161 L21 173 ZM91 173 L103 173 L103 47 L91 47 L91 173 ZM23 59 L101 59 L101 47 L23 47 L23 59 ZM22 116 L101 116 L101 104 L22 104 L22 116 ZM55 209 L67 209 L67 -23 L55 -23 L55 209 ZM118 194 L225 194 L225 182 L118 182 L118 194 ZM215 194 L229 194 L229 180 L129 110 L129 103 L116 103 L116 117 L215 187 L215 194 ZM124 115 L233 115 L233 103 L124 103 L124 115 ZM225 115 L238 115 Q236 51 233 13 Q231 -21 204 -21 Q190 -21 178 -20 Q177 -16 175 -4 Q188 -6 202 -6 Q218 -6 220 15 Q223 55 225 115 ZM152 114 L163 113 Q154 61 109 29 Q106 35 101 40 Q142 67 152 114 ZM186 107 L199 107 Q193 47 170 16 Q154 -4 127 -24 Q122 -18 118 -12 Q145 4 163 30 Q182 58 186 107 Z" /><glyph glyph-name="" unicode="&#x767b;" d="M87 136 L165 136 L165 124 L87 124 L87 136 ZM11 -4 L245 -4 L245 -17 L11 -17 L11 -4 ZM76 32 Q90 19 103 8 L92 -2 Q80 10 66 22 L76 32 ZM175 31 L186 22 Q174 10 161 -2 L150 7 Q164 19 175 31 ZM49 99 L63 99 L63 36 L49 36 L49 99 ZM56 99 L198 99 L198 88 L56 88 L56 99 ZM192 99 L205 99 L205 36 L192 36 L192 99 ZM56 48 L199 48 L199 36 L56 36 L56 48 ZM18 195 L110 195 L110 182 L18 182 L18 195 ZM105 195 L117 195 L117 181 Q91 131 15 91 Q12 98 7 104 Q73 134 105 186 L105 195 ZM32 167 Q51 154 70 138 L59 128 Q40 145 22 159 L32 167 ZM204 207 L213 194 Q187 178 159 162 Q155 169 151 173 Q179 189 204 207 ZM230 174 L239 162 Q213 146 185 130 Q181 137 178 141 Q205 157 230 174 ZM145 207 Q173 131 247 113 Q242 106 237 98 Q162 122 133 201 L145 207 Z" /><glyph glyph-name="" unicode="&#x767e;" d="M37 144 L52 144 L52 -23 L37 -23 L37 144 ZM43 144 L213 144 L213 132 L43 132 L43 144 ZM204 144 L219 144 L219 -23 L204 -23 L204 144 ZM44 8 L212 8 L212 -4 L44 -4 L44 8 ZM44 77 L213 77 L213 64 L44 64 L44 77 ZM12 195 L244 195 L244 182 L12 182 L12 195 ZM115 185 L130 185 L126 141 L111 141 L115 185 Z" /><glyph glyph-name="" unicode="&#x7684;" d="M141 171 L232 171 L232 158 L141 158 L141 171 ZM221 171 L236 171 Q235 52 233 18 Q233 -20 195 -20 Q183 -20 166 -19 Q165 -11 163 -4 Q182 -6 194 -6 Q218 -6 219 18 Q221 55 221 171 ZM151 211 L164 204 Q149 153 130 109 Q124 114 117 119 Q137 161 151 211 ZM159 111 Q178 87 196 62 L183 52 Q166 78 147 103 L159 111 ZM20 169 L35 169 L35 -21 L20 -21 L20 169 ZM26 169 L102 169 L102 155 L26 155 L26 169 ZM92 169 L107 169 L107 -20 L92 -20 L92 169 ZM25 14 L103 14 L103 -1 L25 -1 L25 14 ZM26 92 L102 92 L102 78 L26 78 L26 92 ZM58 207 L74 204 Q66 184 59 167 L43 167 Q52 187 58 207 Z" /><glyph glyph-name="" unicode="&#x76ee;" d="M44 197 L61 197 L61 -22 L44 -22 L44 197 ZM47 197 L206 197 L206 185 L47 185 L47 197 ZM197 197 L214 197 L214 -22 L197 -22 L197 197 ZM56 6 L203 6 L203 -7 L56 -7 L56 6 ZM55 133 L204 133 L204 121 L55 121 L55 133 ZM54 69 L204 69 L204 57 L54 57 L54 69 Z" /><glyph glyph-name="" unicode="&#x76f4;" d="M43 149 L58 149 L58 -8 L43 -8 L43 149 ZM49 149 L204 149 L204 137 L49 137 L49 149 ZM197 150 L211 150 L211 -8 L197 -8 L197 150 ZM11 -2 L246 -2 L246 -14 L11 -14 L11 -2 ZM50 111 L205 111 L205 99 L50 99 L50 111 ZM50 74 L206 74 L206 62 L50 62 L50 74 ZM51 36 L206 36 L206 24 L51 24 L51 36 ZM16 188 L241 188 L241 176 L16 176 L16 188 ZM120 210 L134 210 L134 145 L120 145 L120 210 Z" /><glyph glyph-name="" unicode="&#x770b;" d="M29 162 L227 162 L227 150 L29 150 L29 162 ZM13 127 L244 127 L244 115 L13 115 L13 127 ZM224 204 L226 191 Q127 187 28 185 Q27 191 25 197 Q143 199 224 204 ZM116 197 L130 194 Q103 92 15 32 Q12 38 7 45 Q92 100 116 197 ZM63 93 L75 93 L75 -24 L63 -24 L63 93 ZM70 93 L208 93 L208 80 L70 80 L70 93 ZM203 93 L215 93 L215 -24 L203 -24 L203 93 ZM71 -2 L209 -2 L209 -14 L71 -14 L71 -2 ZM71 61 L209 61 L209 49 L71 49 L71 61 ZM70 30 L208 30 L208 18 L70 18 L70 30 Z" /><glyph glyph-name="" unicode="&#x7740;" d="M22 182 L233 182 L233 172 L22 172 L22 182 ZM28 151 L224 151 L224 141 L28 141 L28 151 ZM11 121 L243 121 L243 111 L11 111 L11 121 ZM72 214 Q86 202 96 191 L86 182 Q75 194 62 206 L72 214 ZM179 214 L192 208 Q178 191 160 173 L149 180 Q167 198 179 214 ZM101 174 L115 174 Q108 132 90 100 Q68 62 21 32 Q16 40 12 45 Q60 74 79 110 Q95 139 101 174 ZM66 90 L81 90 L81 -23 L66 -23 L66 90 ZM75 90 L207 90 L207 80 L75 80 L75 90 ZM202 90 L216 90 L216 -23 L202 -23 L202 90 ZM75 -1 L207 -1 L207 -11 L75 -11 L75 -1 ZM74 60 L206 60 L206 50 L74 50 L74 60 ZM74 29 L206 29 L206 20 L74 20 L74 29 Z" /><glyph glyph-name="" unicode="&#x7801;" d="M40 114 L92 114 L92 101 L40 101 L40 114 ZM85 114 L99 114 L99 -14 L85 -14 L85 114 ZM40 15 L92 15 L92 2 L40 2 L40 15 ZM15 187 L105 187 L105 174 L15 174 L15 187 ZM33 109 L47 109 L47 -16 L33 -16 L33 109 ZM47 182 L61 179 Q50 111 15 62 Q10 69 5 74 Q39 119 47 182 ZM108 48 L206 48 L206 35 L108 35 L108 48 ZM113 197 L211 197 L211 184 L113 184 L113 197 ZM205 197 L218 197 L209 94 L196 94 L205 197 ZM125 164 L139 164 L132 85 L118 85 L125 164 ZM127 98 L228 98 L228 85 L127 85 L127 98 ZM223 98 L236 98 Q235 49 233 16 Q231 -19 201 -19 Q181 -19 168 -19 Q167 -12 166 -5 Q183 -6 198 -6 Q218 -6 219 18 Q221 44 223 98 Z" /><glyph glyph-name="" unicode="&#x7814;" d="M110 195 L237 195 L237 181 L110 181 L110 195 ZM101 101 L246 101 L246 88 L101 88 L101 101 ZM198 192 L213 192 L213 -24 L198 -24 L198 192 ZM135 190 L149 190 L149 110 Q149 50 141 26 Q133 -1 107 -26 Q102 -19 96 -12 Q119 8 127 33 Q135 57 135 109 L135 190 ZM37 126 L51 126 L51 -8 L37 -8 L37 126 ZM44 126 L84 126 L84 113 L44 113 L44 126 ZM77 126 L90 126 L90 -5 L77 -5 L77 126 ZM44 23 L85 23 L85 9 L44 9 L44 23 ZM20 193 L99 193 L99 180 L20 180 L20 193 ZM48 185 L61 182 Q51 114 19 66 Q13 72 9 77 Q41 122 48 185 Z" /><glyph glyph-name="" unicode="&#x7840;" d="M33 123 L47 123 L47 -11 L33 -11 L33 123 ZM40 123 L81 123 L81 110 L40 110 L40 123 ZM74 123 L88 123 L88 -7 L74 -7 L74 123 ZM41 20 L82 20 L82 7 L41 7 L41 20 ZM15 189 L97 189 L97 176 L15 176 L15 189 ZM45 181 L58 178 Q47 111 14 62 Q9 69 4 73 Q37 118 45 181 ZM114 181 L127 181 L127 104 L114 104 L114 181 ZM121 117 L225 117 L225 104 L121 104 L121 117 ZM221 181 L234 181 L234 104 L221 104 L221 181 ZM111 72 L124 72 L124 -11 L111 -11 L111 72 ZM116 2 L228 2 L228 -11 L116 -11 L116 2 ZM225 72 L238 72 L238 -22 L225 -22 L225 72 ZM167 207 L181 207 L181 -5 L167 -5 L167 207 Z" /><glyph glyph-name="" unicode="&#x788d;" d="M33 123 L47 123 L47 -8 L33 -8 L33 123 ZM40 123 L80 123 L80 111 L40 111 L40 123 ZM72 123 L86 123 L86 -5 L72 -5 L72 123 ZM40 22 L80 22 L80 9 L40 9 L40 22 ZM16 188 L95 188 L95 176 L16 176 L16 188 ZM44 181 L57 178 Q46 111 15 64 Q9 71 5 75 Q36 119 44 181 ZM114 198 L128 198 L128 115 L114 115 L114 198 ZM118 198 L225 198 L225 186 L118 186 L118 198 ZM216 198 L230 198 L230 115 L216 115 L216 198 ZM117 127 L223 127 L223 115 L117 115 L117 127 ZM119 163 L226 163 L226 151 L119 151 L119 163 ZM107 91 L240 91 L240 78 L107 78 L107 91 ZM97 55 L246 55 L246 42 L97 42 L97 55 ZM197 85 L211 85 L211 7 Q212 -20 186 -20 Q167 -20 155 -20 Q155 -11 153 -5 Q170 -6 184 -6 Q197 -6 197 9 L197 85 ZM122 36 Q137 24 150 13 L139 2 Q126 15 112 27 L122 36 Z" /><glyph glyph-name="" unicode="&#x788e;" d="M35 118 L49 118 L49 -18 L35 -18 L35 118 ZM42 118 L84 118 L84 105 L42 105 L42 118 ZM77 118 L91 118 L91 -15 L77 -15 L77 118 ZM43 13 L85 13 L85 0 L43 0 L43 13 ZM17 185 L100 185 L100 172 L17 172 L17 185 ZM47 177 L60 174 Q49 105 16 57 Q10 63 6 68 Q39 113 47 177 ZM118 179 L242 179 L242 167 L118 167 L118 179 ZM110 50 L243 50 L243 38 L110 38 L110 50 ZM171 71 L184 71 L184 -24 L171 -24 L171 71 ZM176 211 Q183 198 188 185 L176 180 Q172 192 164 206 L176 211 ZM141 154 L153 151 Q140 112 121 83 Q116 87 110 91 Q129 118 141 154 ZM142 134 Q160 113 173 96 L164 88 Q147 109 134 126 L142 134 ZM207 152 L219 149 Q205 110 186 81 Q181 85 175 89 Q194 116 207 152 ZM210 132 Q228 111 242 93 L232 84 Q215 107 201 124 L210 132 Z" /><glyph glyph-name="" unicode="&#x79bb;" d="M37 161 L52 161 L52 94 L37 94 L37 161 ZM44 106 L211 106 L211 94 L44 94 L44 106 ZM203 161 L218 161 L218 94 L203 94 L203 161 ZM28 69 L42 69 L42 -24 L28 -24 L28 69 ZM35 69 L227 69 L227 57 L35 57 L35 69 ZM213 58 L227 58 L227 3 Q227 -22 205 -23 Q194 -23 180 -23 Q179 -16 177 -8 Q192 -9 201 -9 Q213 -9 213 4 L213 58 ZM14 187 L242 187 L242 175 L14 175 L14 187 ZM126 212 Q132 197 137 181 L124 176 Q119 192 113 207 L126 212 ZM155 45 Q173 26 187 9 L175 -1 Q161 17 144 36 L155 45 ZM132 106 L146 100 Q125 62 93 21 Q124 23 166 24 L166 12 Q119 9 93 8 Q84 7 76 5 L69 18 Q77 22 83 30 Q112 67 132 106 ZM77 165 Q131 147 187 126 L179 114 Q120 137 68 155 L77 165 ZM173 171 L182 162 Q140 131 66 115 Q64 122 62 127 Q130 140 173 171 Z" /><glyph glyph-name="" unicode="&#x79c0;" d="M49 85 L180 85 L180 72 L49 72 L49 85 ZM169 85 L183 85 L183 70 L166 46 L166 35 L151 35 L151 50 L169 74 L169 85 ZM159 48 L211 48 L211 35 L159 35 L159 48 ZM204 48 L220 48 Q218 26 216 9 Q214 -19 181 -18 Q173 -19 147 -18 Q145 -7 143 -2 Q166 -3 183 -3 Q200 -2 202 14 Q202 22 204 48 ZM84 79 L99 79 Q97 40 84 17 Q67 -11 28 -25 Q24 -18 18 -12 Q55 1 70 25 Q83 46 84 79 ZM17 154 L240 154 L240 142 L17 142 L17 154 ZM121 193 L136 193 L136 91 L121 91 L121 193 ZM114 153 L127 152 Q94 106 22 78 Q17 83 11 89 Q77 112 114 153 ZM145 152 Q183 112 244 95 Q241 91 235 82 Q165 105 136 145 L145 152 ZM215 202 L216 190 Q136 185 35 183 Q34 191 33 195 Q147 198 215 202 Z" /><glyph glyph-name="" unicode="&#x79c1;" d="M175 204 L190 202 Q159 83 130 11 Q174 15 227 20 L232 7 Q174 1 135 -3 Q124 -4 117 -8 L109 10 Q118 17 124 34 Q152 112 175 204 ZM196 114 Q221 55 247 -10 L233 -19 Q210 44 183 107 L196 114 ZM10 138 L115 138 L115 125 L10 125 L10 138 ZM54 186 L68 186 L68 -23 L54 -23 L54 186 ZM55 136 L64 134 Q50 69 18 26 Q13 31 7 35 Q41 79 55 136 ZM76 95 Q95 79 112 63 L100 52 Q84 69 65 86 L76 95 ZM108 198 L112 185 Q62 179 17 175 Q16 181 13 188 Q62 192 108 198 Z" /><glyph glyph-name="" unicode="&#x79d1;" d="M187 208 L204 208 L204 -24 L187 -24 L187 208 ZM126 183 Q150 169 174 155 L165 145 Q142 160 117 174 L126 183 ZM120 124 Q145 110 169 95 L159 84 Q137 101 112 114 L120 124 ZM245 74 L246 60 L107 44 L105 57 L245 74 ZM16 137 L104 137 L104 125 L16 125 L16 137 ZM56 187 L71 187 L71 -24 L56 -24 L56 187 ZM58 136 L68 134 Q52 72 18 30 Q12 35 6 39 Q42 81 58 136 ZM79 105 Q94 91 105 79 L93 72 Q82 84 68 98 L79 105 ZM100 198 L103 187 Q61 181 21 178 Q20 183 18 190 Q60 193 100 198 Z" /><glyph glyph-name="" unicode="&#x79fb;" d="M18 136 L99 136 L99 124 L18 124 L18 136 ZM55 186 L69 186 L69 -24 L55 -24 L55 186 ZM57 135 L66 134 Q51 71 20 30 Q14 35 9 38 Q42 80 57 135 ZM76 104 Q90 91 100 79 L89 71 Q79 84 66 98 L76 104 ZM96 197 L99 185 Q59 180 23 177 Q22 182 20 188 Q59 191 96 197 ZM144 190 L234 190 L234 177 L144 177 L144 190 ZM221 186 L234 186 L234 173 Q195 106 102 85 Q98 91 94 98 Q185 116 221 178 L221 186 ZM157 86 L243 86 L243 73 L157 73 L157 86 ZM229 82 L243 82 L243 68 Q202 -4 105 -26 Q101 -19 96 -12 Q191 7 229 74 L229 82 ZM157 212 L169 206 Q143 164 102 132 Q99 137 94 144 Q134 173 157 212 ZM147 155 Q164 140 177 127 L167 117 Q154 131 138 147 L147 155 ZM165 104 L177 97 Q150 54 107 22 Q104 27 99 34 Q140 63 165 104 ZM155 46 Q172 31 185 17 L175 7 Q162 22 145 38 L155 46 Z" /><glyph glyph-name="" unicode="&#x7a0b;" d="M14 137 L98 137 L98 125 L14 125 L14 137 ZM52 188 L67 188 L67 -24 L52 -24 L52 188 ZM55 136 L64 135 Q49 72 16 30 Q10 35 4 39 Q39 81 55 136 ZM74 105 Q89 92 100 79 L88 72 Q77 84 64 98 L74 105 ZM95 199 L98 187 Q57 182 19 178 Q18 184 16 190 Q56 193 95 199 ZM111 198 L125 198 L125 128 L111 128 L111 198 ZM122 198 L220 198 L220 185 L122 185 L122 198 ZM216 198 L230 198 L230 128 L216 128 L216 198 ZM120 141 L219 141 L219 128 L120 128 L120 141 ZM101 102 L240 102 L240 89 L101 89 L101 102 ZM108 53 L233 53 L233 40 L108 40 L108 53 ZM93 2 L247 2 L247 -11 L93 -11 L93 2 ZM163 96 L177 96 L177 -7 L163 -7 L163 96 Z" /><glyph glyph-name="" unicode="&#x7a7a;" d="M40 84 L220 84 L220 72 L40 72 L40 84 ZM19 1 L237 1 L237 -11 L19 -11 L19 1 ZM119 78 L137 78 L137 -3 L119 -3 L119 78 ZM20 179 L35 179 L35 137 L20 137 L20 179 ZM27 179 L229 179 L229 165 L27 165 L27 179 ZM221 179 L236 179 L236 137 L221 137 L221 179 ZM96 147 L107 137 Q65 104 22 80 Q18 85 12 92 Q53 114 96 147 ZM161 146 Q209 116 242 95 L232 82 Q197 107 152 135 L161 146 ZM124 210 Q136 195 142 185 L130 177 Q126 183 113 202 L124 210 Z" /><glyph glyph-name="" unicode="&#x7aef;" d="M12 161 L90 161 L90 149 L12 149 L12 161 ZM43 209 Q57 191 67 177 L55 169 Q45 185 32 202 L43 209 ZM27 125 Q36 87 45 47 L33 43 Q25 84 16 122 L27 125 ZM72 129 L85 126 Q72 59 58 16 Q53 19 46 22 Q64 75 72 129 ZM89 30 Q89 25 89 17 Q50 11 12 5 L10 17 Q32 21 89 30 ZM103 194 L115 194 L115 145 L103 145 L103 194 ZM109 157 L228 157 L228 145 L109 145 L109 157 ZM221 194 L233 194 L233 145 L221 145 L221 194 ZM95 120 L245 120 L245 107 L95 107 L95 120 ZM162 210 L174 210 L174 151 L162 151 L162 210 ZM141 75 L153 75 L153 -8 L141 -8 L141 75 ZM184 76 L195 76 L195 -5 L184 -5 L184 76 ZM99 81 L111 81 L111 -22 L99 -22 L99 81 ZM106 81 L231 81 L231 69 L106 69 L106 81 ZM226 81 L238 81 L238 3 Q238 -20 219 -20 Q210 -20 198 -20 Q197 -14 196 -7 Q207 -8 217 -8 Q226 -8 226 3 L226 81 ZM154 115 L166 115 L160 77 L149 77 L154 115 Z" /><glyph glyph-name="" unicode="&#x7b2c;" d="M48 190 L127 190 L127 177 L48 177 L48 190 ZM154 190 L243 190 L243 177 L154 177 L154 190 ZM57 210 L72 210 Q54 169 16 143 Q12 149 7 155 Q42 176 57 210 ZM70 176 Q82 165 92 155 L82 147 Q73 158 61 168 L70 176 ZM160 210 L175 210 Q160 175 131 148 Q125 153 120 157 Q147 181 160 210 ZM188 176 Q200 165 210 154 L200 146 Q190 158 179 168 L188 176 ZM120 136 L134 136 L134 -25 L120 -25 L120 136 ZM35 140 L211 140 L211 129 L35 129 L35 140 ZM206 141 L219 141 L219 89 L206 89 L206 141 ZM42 101 L213 101 L213 89 L42 89 L42 101 ZM40 101 L54 101 L42 59 L42 48 L28 48 L28 63 L40 101 ZM37 60 L224 60 L224 48 L37 48 L37 60 ZM218 60 L232 60 Q231 33 229 15 Q228 -7 203 -8 Q186 -8 169 -8 Q168 -1 166 4 Q190 4 201 4 Q214 6 216 18 Q217 34 218 60 ZM112 56 L125 56 Q91 9 20 -22 Q16 -17 11 -12 Q73 12 112 56 Z" /><glyph glyph-name="" unicode="&#x7b49;" d="M27 132 L228 132 L228 120 L27 120 L27 132 ZM12 92 L245 92 L245 80 L12 80 L12 92 ZM19 52 L237 52 L237 40 L19 40 L19 52 ZM119 152 L133 152 L133 84 L119 84 L119 152 ZM171 82 L185 82 L185 9 Q185 -22 158 -22 Q144 -22 127 -22 Q126 -15 124 -6 Q143 -8 156 -8 Q171 -8 171 9 L171 82 ZM72 34 Q90 20 107 5 L97 -6 Q79 11 63 25 L72 34 ZM49 189 L127 189 L127 176 L49 176 L49 189 ZM154 189 L243 189 L243 176 L154 176 L154 189 ZM58 210 L73 210 Q55 167 17 140 Q13 146 8 153 Q43 175 58 210 ZM71 174 Q83 164 92 152 L83 144 Q73 156 62 167 L71 174 ZM160 210 L175 210 Q160 174 131 145 Q126 151 120 155 Q148 180 160 210 ZM188 174 Q200 163 210 152 L200 143 Q191 155 179 167 L188 174 Z" /><glyph glyph-name="" unicode="&#x7b80;" d="M79 98 L92 98 L92 11 L79 11 L79 98 ZM85 98 L172 98 L172 87 L85 87 L85 98 ZM165 98 L178 98 L178 11 L165 11 L165 98 ZM86 22 L172 22 L172 11 L86 11 L86 22 ZM83 60 L173 60 L173 49 L83 49 L83 60 ZM28 113 L42 113 L42 -22 L28 -22 L28 113 ZM95 136 L230 136 L230 124 L95 124 L95 136 ZM216 131 L230 131 L230 4 Q230 -22 203 -22 Q189 -22 173 -22 Q171 -14 169 -7 Q188 -8 204 -8 Q216 -8 216 5 L216 131 ZM50 148 Q62 137 76 125 L67 115 Q56 127 42 139 L50 148 ZM41 187 L128 187 L128 175 L41 175 L41 187 ZM150 187 L243 187 L243 175 L150 175 L150 187 ZM51 209 L65 204 Q43 167 14 141 Q11 147 7 153 Q33 176 51 209 ZM74 169 Q82 160 93 148 L81 140 Q71 153 62 163 L74 169 ZM162 210 L175 206 Q154 169 129 144 Q126 148 120 154 Q147 181 162 210 ZM189 168 Q203 157 215 147 L205 138 Q193 149 179 160 L189 168 Z" /><glyph glyph-name="" unicode="&#x7b97;" d="M50 190 L128 190 L128 178 L50 178 L50 190 ZM155 190 L243 190 L243 178 L155 178 L155 190 ZM59 210 L74 210 Q56 170 18 145 Q15 150 10 157 Q44 177 59 210 ZM72 177 Q84 167 93 156 L84 148 Q74 159 63 170 L72 177 ZM161 210 L175 210 Q161 177 132 150 Q126 155 121 158 Q148 182 161 210 ZM188 177 Q200 167 210 156 L200 148 Q191 159 179 170 L188 177 ZM44 147 L57 147 L57 47 L44 47 L44 147 ZM52 147 L205 147 L205 137 L52 137 L52 147 ZM201 147 L214 147 L214 47 L201 47 L201 147 ZM53 58 L206 58 L206 47 L53 47 L53 58 ZM51 117 L204 117 L204 107 L51 107 L51 117 ZM51 88 L203 88 L203 78 L51 78 L51 88 ZM13 28 L246 28 L246 16 L13 16 L13 28 ZM175 41 L188 41 L188 -25 L175 -25 L175 41 ZM79 41 L93 41 Q93 18 85 5 Q74 -13 41 -27 Q36 -22 30 -17 Q62 -4 71 9 Q77 20 79 41 Z" /><glyph glyph-name="" unicode="&#x7ba1;" d="M49 190 L129 190 L129 178 L49 178 L49 190 ZM156 190 L247 190 L247 178 L156 178 L156 190 ZM58 210 L73 210 Q55 170 16 144 Q13 150 8 156 Q43 177 58 210 ZM71 176 Q83 166 93 156 L83 148 Q74 159 62 169 L71 176 ZM162 210 L177 210 Q162 176 133 149 Q127 154 121 158 Q149 182 162 210 ZM190 176 Q203 166 213 155 L203 147 Q193 159 181 169 L190 176 ZM47 106 L61 106 L61 -25 L47 -25 L47 106 ZM53 107 L201 107 L201 95 L53 95 L53 107 ZM194 107 L207 107 L207 58 L194 58 L194 107 ZM53 71 L201 71 L201 59 L53 59 L53 71 ZM20 143 L33 143 L33 106 L20 106 L20 143 ZM29 143 L227 143 L227 131 L29 131 L29 143 ZM223 143 L236 143 L236 106 L223 106 L223 143 ZM53 34 L209 34 L209 22 L53 22 L53 34 ZM199 34 L213 34 L213 -24 L199 -24 L199 34 ZM52 -3 L208 -3 L208 -15 L52 -15 L52 -3 ZM127 163 Q135 150 142 137 L129 133 Q124 144 115 159 L127 163 Z" /><glyph glyph-name="" unicode="&#x7cb9;" d="M10 120 L92 120 L92 107 L10 107 L10 120 ZM44 207 L58 207 L58 -22 L44 -22 L44 207 ZM19 187 Q29 161 36 143 L23 139 Q21 145 7 183 L19 187 ZM84 187 L97 182 Q89 160 80 139 L68 144 Q77 165 84 187 ZM45 114 L53 110 Q38 54 10 15 Q8 23 5 32 Q32 70 45 114 ZM64 90 Q81 74 95 61 L84 51 Q71 66 54 81 L64 90 ZM109 180 L242 180 L242 167 L109 167 L109 180 ZM100 50 L243 50 L243 38 L100 38 L100 50 ZM166 71 L180 71 L180 -24 L166 -24 L166 71 ZM171 211 Q178 199 184 186 L172 181 Q166 192 159 206 L171 211 ZM134 154 L147 151 Q132 112 112 83 Q107 87 100 91 Q121 118 134 154 ZM135 134 Q153 114 168 97 L158 88 Q140 110 126 126 L135 134 ZM204 152 L217 149 Q202 110 182 81 Q177 85 170 89 Q191 116 204 152 ZM208 132 Q227 111 242 93 L232 84 Q213 107 198 124 L208 132 Z" /><glyph glyph-name="" unicode="&#x7cfb;" d="M228 199 L230 185 Q131 179 27 178 Q27 185 25 192 Q126 192 228 199 ZM115 181 L130 172 Q94 148 52 127 Q124 131 162 133 L156 121 Q92 117 56 114 Q44 113 38 112 L30 130 Q41 133 51 138 Q84 157 115 181 ZM198 164 L210 154 Q150 111 62 69 Q126 72 214 76 L220 64 Q138 61 63 56 Q50 55 37 53 L29 72 Q44 75 58 81 Q140 121 198 164 ZM123 70 L138 70 L138 6 Q138 -21 110 -21 Q99 -21 85 -21 Q84 -14 82 -7 Q94 -8 109 -8 Q123 -8 123 5 L123 70 ZM67 41 L79 29 Q52 6 21 -16 Q15 -8 10 -2 Q40 15 67 41 ZM174 42 Q211 19 242 -2 L233 -15 Q201 8 165 31 L174 42 ZM181 106 Q211 83 239 59 L227 46 Q199 73 170 95 L181 106 Z" /><glyph glyph-name="" unicode="&#x7d22;" d="M25 187 L231 187 L231 174 L25 174 L25 187 ZM121 210 L135 210 L135 142 L121 142 L121 210 ZM19 147 L33 147 L33 110 L19 110 L19 147 ZM24 147 L231 147 L231 135 L24 135 L24 147 ZM223 147 L237 147 L237 110 L223 110 L223 147 ZM113 129 L131 124 Q100 108 70 95 Q106 97 160 99 L145 87 Q94 85 65 84 Q54 83 49 83 L43 97 Q54 99 66 104 Q88 114 113 129 ZM182 114 L192 104 Q134 76 71 53 Q146 57 208 59 L213 48 Q134 44 62 41 Q52 41 41 39 L35 56 Q51 58 67 64 Q116 83 182 114 ZM179 85 Q210 62 232 43 L221 33 Q199 53 170 76 L179 85 ZM125 55 L138 55 L138 -1 Q138 -21 116 -21 Q105 -21 85 -21 Q85 -17 82 -8 Q101 -9 111 -9 Q125 -9 125 2 L125 55 ZM76 29 L84 17 Q54 -1 19 -18 Q16 -12 12 -6 Q45 10 76 29 ZM176 29 Q211 12 244 -6 L235 -19 Q202 1 168 18 L176 29 Z" /><glyph glyph-name="" unicode="&#x7ea2;" d="M99 185 L238 185 L238 171 L99 171 L99 185 ZM92 4 L247 4 L247 -9 L92 -9 L92 4 ZM160 177 L177 177 L177 -2 L160 -2 L160 177 ZM64 209 L79 203 Q64 177 28 129 Q57 132 69 133 Q69 128 69 120 Q31 118 16 114 L11 129 Q33 154 64 209 ZM86 161 L100 155 Q66 102 36 66 Q63 69 94 73 L94 61 Q40 54 21 50 L17 65 Q45 92 86 161 ZM102 29 Q101 24 102 16 Q60 8 15 -3 L11 10 Q58 19 102 29 Z" /><glyph glyph-name="" unicode="&#x7ea7;" d="M59 207 L71 201 Q58 176 27 131 Q52 134 63 135 Q62 130 62 123 Q30 120 16 117 L13 131 Q32 155 59 207 ZM77 162 L89 156 Q60 105 34 71 Q58 74 84 77 L84 66 Q38 59 21 56 L18 70 Q42 96 77 162 ZM91 35 Q91 30 91 23 Q54 15 16 5 L12 18 Q53 26 91 35 ZM101 194 L211 194 L211 182 L101 182 L101 194 ZM204 194 L217 194 L217 179 L188 123 L188 115 L176 115 L176 129 L204 187 L204 194 ZM180 127 L228 127 L228 115 L180 115 L180 127 ZM221 127 L235 127 L235 113 Q208 22 127 -23 Q122 -17 117 -12 Q197 32 221 115 L221 127 ZM120 192 L134 192 Q134 163 133 143 Q132 89 126 60 Q116 15 77 -22 Q72 -16 67 -11 Q106 25 114 71 Q118 92 119 143 Q120 162 120 192 ZM127 160 Q147 77 183 39 Q211 10 245 -7 Q239 -13 233 -20 Q200 0 174 28 Q140 66 123 141 L127 160 Z" /><glyph glyph-name="" unicode="&#x7eaf;" d="M59 208 L72 202 Q59 176 26 128 Q53 131 64 132 Q63 127 63 119 Q29 116 15 113 L11 128 Q31 153 59 208 ZM79 160 L92 154 Q61 100 33 64 Q58 67 86 71 L86 59 Q37 52 20 49 L16 63 Q41 90 79 160 ZM94 27 Q93 22 93 14 Q55 6 14 -6 L10 8 Q53 17 94 27 ZM105 142 L119 142 L119 61 L105 61 L105 142 ZM112 73 L221 73 L221 61 L112 61 L112 73 ZM214 142 L228 142 L228 61 L214 61 L214 142 ZM96 176 L241 176 L241 163 L96 163 L96 176 ZM159 211 L173 211 L173 14 Q173 -2 187 -2 L213 -2 Q226 -2 228 11 Q230 27 231 44 Q239 40 246 38 Q244 21 241 5 Q237 -16 210 -16 L186 -16 Q159 -16 159 9 L159 211 Z" /><glyph glyph-name="" unicode="&#x7ebf;" d="M58 207 L71 200 Q58 174 25 127 Q51 130 62 131 Q62 126 62 118 Q28 116 14 113 L11 128 Q30 152 58 207 ZM77 159 L90 153 Q59 100 33 64 Q57 68 84 71 L84 60 Q37 52 19 49 L16 64 Q40 90 77 159 ZM92 28 Q91 23 91 15 Q54 7 13 -4 L10 10 Q52 18 92 28 ZM136 208 L151 208 Q152 170 154 130 Q158 75 169 45 Q177 19 200 -2 Q208 -8 214.5 -8 Q221 -8 224 2 Q229 19 231 40 Q237 36 246 33 Q242 11 238 -4 Q231 -23 215 -23 Q203 -23 190 -14 Q167 5 154 38 Q142 74 138 128 Q136 161 136 208 ZM234 161 L235 149 L92 133 L90 146 L234 161 ZM219 81 L229 72 Q181 21 90 -9 Q87 -3 82 5 Q173 32 219 81 ZM179 207 Q197 196 216 184 L209 173 Q190 186 172 197 L179 207 ZM240 110 L242 97 L87 80 L85 93 L240 110 Z" /><glyph glyph-name="" unicode="&#x7ec4;" d="M109 195 L123 195 L123 -4 L109 -4 L109 195 ZM113 195 L214 195 L214 182 L113 182 L113 195 ZM208 195 L223 195 L223 -4 L208 -4 L208 195 ZM114 130 L210 130 L210 117 L114 117 L114 130 ZM113 65 L212 65 L212 52 L113 52 L113 65 ZM78 -1 L246 -1 L246 -14 L78 -14 L78 -1 ZM60 207 L72 201 Q59 176 27 130 Q53 133 64 134 Q64 129 64 121 Q29 119 16 116 L12 130 Q32 154 60 207 ZM79 161 L92 155 Q61 103 34 69 Q59 72 86 76 L86 64 Q38 57 20 54 L17 68 Q42 94 79 161 ZM93 33 Q93 28 93 20 Q55 13 15 2 L11 16 Q54 24 93 33 Z" /><glyph glyph-name="" unicode="&#x7ec7;" d="M58 209 L71 202 Q58 176 26 128 Q52 131 62 132 Q62 127 62 119 Q28 117 15 113 L11 129 Q30 153 58 209 ZM77 161 L90 154 Q60 101 33 65 Q57 68 84 72 L84 60 Q37 53 19 49 L16 64 Q40 91 77 161 ZM92 27 Q91 22 91 14 Q54 6 14 -5 L10 9 Q52 18 92 27 ZM106 190 L120 190 L120 76 L106 76 L106 190 ZM116 190 L229 190 L229 177 L116 177 L116 190 ZM219 190 L233 190 L233 76 L219 76 L219 190 ZM115 89 L228 89 L228 76 L115 76 L115 89 ZM138 49 L150 39 Q122 6 93 -21 Q88 -16 82 -10 Q112 17 138 49 ZM198 48 Q227 19 252 -8 L239 -19 Q217 7 187 39 L198 48 Z" /><glyph glyph-name="" unicode="&#x7ecf;" d="M59 208 L72 202 Q59 176 26 128 Q52 131 63 132 Q63 127 63 120 Q28 117 14 114 L11 129 Q31 153 59 208 ZM78 160 L91 154 Q60 101 33 66 Q58 69 86 72 L86 61 Q37 54 19 50 L16 65 Q41 91 78 160 ZM93 29 Q93 24 93 16 Q54 8 13 -3 L10 11 Q53 19 93 29 ZM106 77 L226 77 L226 63 L106 63 L106 77 ZM89 2 L242 2 L242 -11 L89 -11 L89 2 ZM158 69 L173 69 L173 -4 L158 -4 L158 69 ZM104 198 L213 198 L213 184 L104 184 L104 198 ZM206 198 L219 198 L219 183 Q172 123 91 92 Q89 98 84 105 Q161 135 206 188 L206 198 ZM170 147 Q215 120 246 100 L236 89 Q204 111 162 137 L170 147 Z" /><glyph glyph-name="" unicode="&#x7ed3;" d="M59 208 L72 202 Q59 175 26 127 Q52 130 63 131 Q63 126 63 118 Q28 116 14 112 L11 128 Q31 152 59 208 ZM78 160 L91 153 Q60 100 33 64 Q58 67 86 71 L86 59 Q37 51 19 48 L16 63 Q41 90 78 160 ZM93 26 Q93 21 93 13 Q54 5 13 -6 L10 8 Q53 16 93 26 ZM112 70 L127 70 L127 -24 L112 -24 L112 70 ZM121 70 L221 70 L221 58 L121 58 L121 70 ZM217 70 L232 70 L232 -24 L217 -24 L217 70 ZM121 2 L220 2 L220 -10 L121 -10 L121 2 ZM98 168 L245 168 L245 156 L98 156 L98 168 ZM107 114 L236 114 L236 101 L107 101 L107 114 ZM165 207 L180 207 L180 107 L165 107 L165 207 Z" /><glyph glyph-name="" unicode="&#x7ed9;" d="M56 208 L69 202 Q56 176 25 128 Q50 131 60 132 Q60 127 60 119 Q27 117 14 113 L11 128 Q30 153 56 208 ZM75 160 L87 154 Q58 101 32 65 Q55 68 82 72 L82 60 Q36 53 19 50 L15 64 Q39 91 75 160 ZM89 28 Q88 23 89 15 Q52 7 13 -4 L10 10 Q50 18 89 28 ZM105 75 L119 75 L119 -24 L105 -24 L105 75 ZM111 75 L214 75 L214 62 L111 62 L111 75 ZM207 75 L222 75 L222 -24 L207 -24 L207 75 ZM112 4 L214 4 L214 -9 L112 -9 L112 4 ZM114 123 L214 123 L214 110 L114 110 L114 123 ZM171 210 L168 203 Q202 150 247 129 Q242 123 237 115 Q192 142 161 191 Q137 146 91 115 Q87 121 82 128 Q130 156 155 210 L171 210 Z" /><glyph glyph-name="" unicode="&#x7edf;" d="M57 208 L70 202 Q57 176 25 130 Q51 132 61 133 Q61 129 61 121 Q27 119 14 115 L10 130 Q30 154 57 208 ZM76 161 L88 155 Q59 103 32 68 Q56 71 83 75 L83 63 Q36 56 19 53 L15 67 Q40 93 76 161 ZM90 32 Q90 27 90 19 Q53 11 13 0 L10 14 Q51 22 90 32 ZM92 176 L238 176 L238 163 L92 163 L92 176 ZM157 211 Q166 200 177 185 L165 176 Q154 192 145 203 L157 211 ZM151 168 L164 160 Q140 130 113 101 Q162 103 212 105 L217 91 Q159 90 115 87 Q105 86 96 84 L89 100 Q98 104 106 113 Q128 136 151 168 ZM198 141 Q219 110 236 81 L221 74 Q205 106 185 135 L198 141 ZM127 92 L141 92 Q140 72 139 56 Q135 1 81 -27 Q76 -19 72 -12 Q120 9 125 56 Q126 71 127 92 ZM171 100 L185 100 L185 2 Q185 -9 195 -9 L216 -9 Q226 -9 228 4 Q230 15 230 29 Q237 26 243 24 Q242 11 241 1 Q237 -21 217 -21 L192 -21 Q171 -21 171 1 L171 100 Z" /><glyph glyph-name="" unicode="&#x7ee7;" d="M55 207 L67 201 Q55 175 24 128 Q49 131 59 132 Q59 127 59 119 Q27 117 14 113 L11 128 Q29 152 55 207 ZM73 160 L85 154 Q56 101 31 65 Q54 68 80 72 L80 60 Q35 53 18 50 L15 64 Q38 91 73 160 ZM86 28 Q86 23 86 15 Q51 7 13 -3 L10 10 Q49 19 86 28 ZM98 200 L112 200 L112 -14 L98 -14 L98 200 ZM106 -1 L244 -1 L244 -14 L106 -14 L106 -1 ZM124 121 L239 121 L239 109 L124 109 L124 121 ZM173 208 L186 208 L186 9 L173 9 L173 208 ZM136 185 Q149 164 159 142 L148 136 Q138 158 125 180 L136 185 ZM222 187 L233 179 Q221 158 206 136 L196 144 Q211 166 222 187 ZM176 126 L185 123 Q170 70 124 28 Q121 33 115 38 Q160 75 176 126 ZM191 89 Q218 66 237 48 L227 38 Q208 58 183 80 L191 89 Z" /><glyph glyph-name="" unicode="&#x7eed;" d="M55 208 L67 201 Q55 175 24 127 Q49 130 59 131 Q59 126 59 118 Q26 116 13 113 L10 128 Q29 152 55 208 ZM73 160 L86 153 Q57 100 31 64 Q54 67 81 71 L81 59 Q35 52 18 49 L15 63 Q38 90 73 160 ZM87 27 Q87 22 87 14 Q51 6 12 -5 L9 9 Q49 17 87 27 ZM104 182 L237 182 L237 169 L104 169 L104 182 ZM162 210 L175 210 L175 132 L162 132 L162 210 ZM88 54 L245 54 L245 41 L88 41 L88 54 ZM97 140 L237 140 L237 128 L97 128 L97 140 ZM229 140 L242 140 L242 127 L237 97 Q232 99 225 100 L229 128 L229 140 ZM124 120 Q142 110 161 99 L154 89 Q135 101 117 111 L124 120 ZM106 94 Q124 84 143 73 L137 63 Q118 75 99 85 L106 94 ZM179 113 L194 113 Q193 51 174 25 Q156 -2 98 -23 Q94 -15 90 -9 Q145 10 162 34 Q180 59 179 113 ZM176 29 Q211 11 245 -7 L236 -20 Q202 0 168 18 L176 29 Z" /><glyph glyph-name="" unicode="&#x7ef4;" d="M58 209 L71 202 Q58 176 25 128 Q51 130 62 131 Q62 127 62 119 Q28 116 14 113 L11 128 Q30 153 58 209 ZM77 160 L89 154 Q59 100 33 64 Q57 67 84 71 L84 59 Q37 51 19 48 L16 63 Q40 90 77 160 ZM91 26 Q91 21 91 13 Q54 5 13 -7 L10 8 Q52 16 91 26 ZM115 166 L239 166 L239 153 L115 153 L115 166 ZM111 113 L239 113 L239 100 L111 100 L111 113 ZM113 60 L239 60 L239 47 L113 47 L113 60 ZM113 6 L244 6 L244 -7 L113 -7 L113 6 ZM172 161 L186 161 L186 -1 L172 -1 L172 161 ZM107 152 L121 152 L121 -25 L107 -25 L107 152 ZM128 208 L142 204 Q120 140 89 100 Q85 106 81 111 Q109 151 128 208 ZM175 209 Q184 198 196 182 L183 173 Q172 189 163 201 L175 209 Z" /><glyph glyph-name="" unicode="&#x7f1d;" d="M51 208 L62 202 Q51 177 22 132 Q45 134 54 135 Q54 131 54 123 Q25 121 13 118 L10 132 Q27 156 51 208 ZM67 163 L78 157 Q52 106 29 71 Q50 74 74 78 L74 67 Q32 60 17 57 L14 71 Q35 96 67 163 ZM80 36 Q79 31 80 23 Q47 16 12 5 L9 18 Q45 26 80 36 ZM75 122 L100 122 L100 110 L75 110 L75 122 ZM92 122 L104 122 L104 9 L92 9 L92 122 ZM124 102 L235 102 L235 90 L124 90 L124 102 ZM128 71 L231 71 L231 59 L128 59 L128 71 ZM116 39 L243 39 L243 27 L116 27 L116 39 ZM174 118 L187 118 L187 6 L174 6 L174 118 ZM147 193 L227 193 L227 181 L147 181 L147 193 ZM220 193 L231 193 L231 182 Q198 135 119 110 Q117 114 112 120 Q186 140 220 186 L220 193 ZM155 214 L168 210 Q147 171 123 146 Q118 150 113 154 Q139 179 155 214 ZM144 187 Q174 138 248 125 Q244 122 242 114 Q170 129 137 179 L144 187 ZM88 207 Q100 185 110 164 L98 158 Q89 179 78 202 L88 207 ZM95 20 L103 20 Q119 -6 158 -6 Q212 -6 244 -4 Q241 -12 238 -19 Q186 -19 155 -18 Q116 -18 98 6 Q86 -4 71 -19 L64 -4 Q77 6 95 20 Z" /><glyph glyph-name="" unicode="&#x7f51;" d="M27 197 L41 197 L41 -19 L27 -19 L27 197 ZM34 197 L223 197 L223 183 L34 183 L34 197 ZM215 197 L229 197 L229 4 Q229 -20 203 -20 Q189 -20 167 -19 Q166 -13 164 -5 Q185 -7 197 -7 Q215 -7 215 9 L215 197 ZM189 153 L201 149 Q175 67 132 22 Q130 26 126 33 Q168 78 189 153 ZM136 149 Q173 87 204 32 L194 24 Q161 85 128 143 L136 149 ZM105 152 L116 148 Q93 68 52 23 Q50 27 46 34 Q86 79 105 152 ZM56 149 Q91 87 120 33 L110 25 Q79 85 49 142 L56 149 Z" /><glyph glyph-name="" unicode="&#x7f6e;" d="M29 200 L42 200 L42 154 L29 154 L29 200 ZM35 200 L218 200 L218 191 L35 191 L35 200 ZM213 200 L225 200 L225 154 L213 154 L213 200 ZM37 164 L220 164 L220 155 L37 155 L37 164 ZM91 194 L103 194 L103 160 L91 160 L91 194 ZM151 195 L164 195 L164 160 L151 160 L151 195 ZM46 105 L59 105 L59 -13 L46 -13 L46 105 ZM49 105 L207 105 L207 95 L49 95 L49 105 ZM200 105 L213 105 L213 -13 L200 -13 L200 105 ZM10 -6 L246 -6 L246 -17 L10 -17 L10 -6 ZM50 77 L206 77 L206 68 L50 68 L50 77 ZM50 50 L208 50 L208 40 L50 40 L50 50 ZM49 22 L207 22 L207 12 L49 12 L49 22 ZM16 135 L241 135 L241 124 L16 124 L16 135 ZM120 147 L132 147 L132 101 L120 101 L120 147 Z" /><glyph glyph-name="" unicode="&#x7f72;" d="M29 200 L42 200 L42 150 L29 150 L29 200 ZM35 200 L218 200 L218 190 L35 190 L35 200 ZM213 200 L225 200 L225 150 L213 150 L213 200 ZM37 160 L220 160 L220 150 L37 150 L37 160 ZM91 193 L103 193 L103 156 L91 156 L91 193 ZM151 194 L164 194 L164 156 L151 156 L151 194 ZM68 61 L205 61 L205 51 L68 51 L68 61 ZM197 61 L209 61 L209 -24 L197 -24 L197 61 ZM65 -3 L203 -3 L203 -13 L65 -13 L65 -3 ZM64 29 L202 29 L202 19 L64 19 L64 29 ZM36 128 L173 128 L173 118 L36 118 L36 128 ZM12 96 L244 96 L244 85 L12 85 L12 96 ZM103 143 L116 143 L116 90 L103 90 L103 143 ZM58 56 L70 56 L70 -24 L58 -24 L58 56 ZM216 134 L223 125 Q124 68 17 31 Q14 37 10 42 Q122 77 216 134 Z" /><glyph glyph-name="" unicode="&#x7f8e;" d="M15 55 L242 55 L242 43 L15 43 L15 55 ZM120 80 L135 80 Q133 48 126 32 Q107 -10 21 -25 Q18 -19 13 -12 Q95 1 113 38 Q119 52 120 80 ZM130 57 Q152 1 242 -9 Q236 -18 233 -24 Q157 -14 123 40 L130 57 ZM14 175 L241 175 L241 163 L14 163 L14 175 ZM27 135 L228 135 L228 123 L27 123 L27 135 ZM12 96 L244 96 L244 84 L12 84 L12 96 ZM121 171 L135 171 L135 88 L121 88 L121 171 ZM70 212 Q84 200 101 186 L90 176 Q77 188 60 202 L70 212 ZM181 211 L194 204 Q180 186 161 166 L149 174 Q167 193 181 211 Z" /><glyph glyph-name="" unicode="&#x7fa4;" d="M131 164 L244 164 L244 151 L131 151 L131 164 ZM138 109 L238 109 L238 95 L138 95 L138 109 ZM128 51 L246 51 L246 38 L128 38 L128 51 ZM180 158 L193 158 L193 -25 L180 -25 L180 158 ZM156 208 Q163 197 172 182 L162 172 Q153 189 146 200 L156 208 ZM218 209 L229 199 Q218 180 206 160 L192 160 Q206 185 218 209 ZM36 63 L47 63 L47 -22 L36 -22 L36 63 ZM42 63 L109 63 L109 52 L42 52 L42 63 ZM102 63 L113 63 L113 -21 L102 -21 L102 63 ZM20 194 L106 194 L106 183 L20 183 L20 194 ZM99 194 L110 194 L110 96 L99 96 L99 194 ZM18 107 L106 107 L106 95 L18 95 L18 107 ZM14 151 L125 151 L125 139 L14 139 L14 151 ZM41 3 L108 3 L108 -9 L41 -9 L41 3 ZM49 186 L59 186 Q59 122 51 87 Q41 48 16 16 Q13 21 8 27 Q32 55 40 89 Q48 120 49 186 Z" /><glyph glyph-name="" unicode="&#x800c;" d="M13 194 L242 194 L242 181 L13 181 L13 194 ZM89 130 L102 130 L102 -9 L89 -9 L89 130 ZM151 130 L164 130 L164 -9 L151 -9 L151 130 ZM26 137 L40 137 L40 -23 L26 -23 L26 137 ZM33 137 L228 137 L228 123 L33 123 L33 137 ZM214 129 L228 129 L228 3 Q228 -21 204 -21 Q190 -21 173 -21 Q172 -15 170 -7 Q186 -8 201 -8 Q214 -8 214 4 L214 129 ZM119 191 L135 183 Q128 155 120 129 L107 135 Q114 164 119 191 Z" /><glyph glyph-name="" unicode="&#x804a;" d="M178 197 L190 197 L190 -23 L178 -23 L178 197 ZM184 196 L230 196 L230 184 L184 184 L184 196 ZM223 197 L236 197 L236 46 Q236 22 215 22 L202 22 Q202 28 200 35 Q204 34 213 34 Q223 34 223 48 L223 197 ZM158 204 L163 191 Q133 185 103 183 L103 195 Q132 197 158 204 ZM103 189 L115 189 L115 59 Q133 68 145 74 Q145 67 147 61 Q131 54 116 46 Q110 42 105 39 L97 50 Q103 55 103 67 L103 189 ZM143 157 L155 157 Q155 116 155 92 Q154 48 143 23 Q129 -6 96 -26 Q92 -20 88 -14 Q119 4 131 28 Q142 51 143 91 Q143 117 143 157 ZM11 196 L94 196 L94 184 L11 184 L11 196 ZM29 143 L75 143 L75 131 L29 131 L29 143 ZM29 89 L74 89 L74 77 L29 77 L29 89 ZM23 191 L34 191 L34 21 L23 21 L23 191 ZM70 191 L80 191 L80 -25 L70 -25 L70 191 ZM95 44 Q95 39 95 30 Q55 22 13 10 L9 25 Q53 33 95 44 Z" /></font>
</defs>
</svg>
